<ttFont>
<head>
    <!-- Most of this table will be recalculated by the compiler -->
    <tableVersion value="1.0"/>
    <fontRevision value="1.0"/>
    <checkSumAdjustment value="0xf475b6c5"/>
    <magicNumber value="0x5f0f3cf5"/>
    <flags value="00000000 00011111"/>
    <unitsPerEm value="1000"/>
    <created value="Tue Jan 17 04:00:36 2017"/>
    <modified value="Tue Jan 17 04:00:36 2017"/>
    <xMin value="-474"/>
    <yMin value="-250"/>
    <xMax value="1099"/>
    <yMax value="750"/>
    <macStyle value="00000000 00000001"/>
    <lowestRecPPEM value="8"/>
    <fontDirectionHint value="2"/>
    <indexToLocFormat value="0"/>
    <glyphDataFormat value="0"/>
  </head>
    <TTGlyph name=".notdef" xMin="50" yMin="0" xMax="200" yMax="533">
      <contour>
        <pt x="50" y="0" on="1"/>
        <pt x="50" y="533" on="1"/>
        <pt x="200" y="533" on="1"/>
        <pt x="200" y="0" on="1"/>
      </contour>
      <contour>
        <pt x="100" y="50" on="1"/>
        <pt x="150" y="50" on="1"/>
        <pt x="150" y="483" on="1"/>
        <pt x="100" y="483" on="1"/>
      </contour>
    </TTGlyph>
    <TTGlyph name="A" xMin="42" yMin="0" xMax="690" yMax="694">
      <contour>
        <pt x="291" y="692" on="1"/>
        <pt x="295" y="694" on="0"/>
        <pt x="437" y="694" on="0"/>
        <pt x="441" y="692" on="1"/>
        <pt x="464" y="687" on="0"/>
        <pt x="474" y="667" on="1"/>
        <pt x="477" y="663" on="0"/>
        <pt x="690" y="36" on="0"/>
        <pt x="690" y="27" on="1"/>
        <pt x="690" y="7" on="0"/>
        <pt x="672" y="2" on="1"/>
        <pt x="669" y="0" on="0"/>
        <pt x="617" y="0" on="1"/>
        <pt x="564" y="0" on="0"/>
        <pt x="559" y="2" on="1"/>
        <pt x="537" y="7" on="0"/>
        <pt x="526" y="26" on="1"/>
        <pt x="522" y="33" on="0"/>
        <pt x="506" y="81" on="1"/>
        <pt x="490" y="130" on="1"/>
        <pt x="225" y="130" on="1"/>
        <pt x="225" y="128" on="0"/>
        <pt x="191" y="29" on="0"/>
        <pt x="189" y="27" on="1"/>
        <pt x="179" y="9" on="0"/>
        <pt x="161" y="3" on="1"/>
        <pt x="155" y="1" on="0"/>
        <pt x="110" y="0" on="1"/>
        <pt x="72" y="0" on="0"/>
        <pt x="57" y="2" on="0"/>
        <pt x="51" y="7" on="1"/>
        <pt x="42" y="15" on="0"/>
        <pt x="42" y="27" on="1"/>
        <pt x="42" y="37" on="0"/>
        <pt x="254" y="663" on="0"/>
        <pt x="258" y="667" on="1"/>
        <pt x="269" y="687" on="0"/>
      </contour>
      <contour>
        <pt x="363" y="527" on="1"/>
        <pt x="359" y="541" on="0"/>
        <pt x="359" y="547" on="1"/>
        <pt x="357" y="555" on="1"/>
        <pt x="355" y="543" on="1"/>
        <pt x="347" y="503" on="0"/>
        <pt x="317" y="409" on="1"/>
        <pt x="310" y="387" on="0"/>
        <pt x="270" y="263" on="1"/>
        <pt x="259" y="231" on="1"/>
        <pt x="357" y="231" on="1"/>
        <pt x="455" y="231" on="0"/>
        <pt x="455" y="232" on="1"/>
        <pt x="448" y="253" on="0"/>
        <pt x="439" y="279" on="1"/>
        <pt x="375" y="475" on="0"/>
      </contour>
    </TTGlyph>
    <TTGlyph name="B" xMin="92" yMin="1" xMax="671" yMax="694">
      <contour>
        <pt x="119" y="1" on="1"/>
        <pt x="99" y="5" on="0"/>
        <pt x="92" y="28" on="1"/>
        <pt x="92" y="667" on="1"/>
        <pt x="98" y="685" on="0"/>
        <pt x="118" y="693" on="1"/>
        <pt x="121" y="694" on="0"/>
        <pt x="272" y="694" on="1"/>
        <pt x="430" y="693" on="0"/>
        <pt x="464" y="688" on="1"/>
        <pt x="544" y="677" on="0"/>
        <pt x="640" y="589" on="0"/>
        <pt x="640" y="513" on="1"/>
        <pt x="640" y="452" on="0"/>
        <pt x="564" y="377" on="0"/>
        <pt x="504" y="364" on="1"/>
        <pt x="518" y="361" on="1"/>
        <pt x="671" y="329" on="0"/>
        <pt x="671" y="197" on="1"/>
        <pt x="671" y="121" on="0"/>
        <pt x="629" y="73" on="1"/>
        <pt x="584" y="19" on="0"/>
        <pt x="488" y="5" on="1"/>
        <pt x="456" y="1" on="0"/>
        <pt x="282" y="1" on="1"/>
      </contour>
      <contour>
        <pt x="394" y="591" on="1"/>
        <pt x="387" y="592" on="0"/>
        <pt x="315" y="593" on="1"/>
        <pt x="247" y="593" on="1"/>
        <pt x="247" y="404" on="1"/>
        <pt x="298" y="404" on="1"/>
        <pt x="366" y="404" on="0"/>
        <pt x="391" y="407" on="1"/>
        <pt x="436" y="414" on="0"/>
        <pt x="489" y="466" on="0"/>
        <pt x="489" y="509" on="1"/>
        <pt x="489" y="536" on="0"/>
        <pt x="468" y="561" on="1"/>
        <pt x="445" y="582" on="0"/>
      </contour>
      <contour>
        <pt x="319" y="101" on="1"/>
        <pt x="324" y="101" on="1"/>
        <pt x="366" y="101" on="0"/>
        <pt x="408" y="103" on="0"/>
        <pt x="465" y="112" on="0"/>
        <pt x="493" y="131" on="0"/>
        <pt x="515" y="167" on="0"/>
        <pt x="517" y="194" on="1"/>
        <pt x="517" y="248" on="0"/>
        <pt x="463" y="305" on="0"/>
        <pt x="407" y="315" on="1"/>
        <pt x="400" y="316" on="0"/>
        <pt x="322" y="317" on="1"/>
        <pt x="247" y="317" on="1"/>
        <pt x="247" y="101" on="1"/>
      </contour>
    </TTGlyph>
    <TTGlyph name="C" xMin="61" yMin="-11" xMax="647" yMax="704">
      <contour>
        <pt x="423" y="-11" on="1"/>
        <pt x="243" y="-11" on="0"/>
        <pt x="61" y="170" on="0"/>
        <pt x="61" y="347" on="1"/>
        <pt x="61" y="450" on="0"/>
        <pt x="93" y="527" on="1"/>
        <pt x="156" y="663" on="0"/>
        <pt x="313" y="694" on="1"/>
        <pt x="356" y="704" on="0"/>
        <pt x="416" y="704" on="1"/>
        <pt x="482" y="704" on="0"/>
        <pt x="557" y="693" on="0"/>
        <pt x="608" y="676" on="1"/>
        <pt x="634" y="667" on="0"/>
        <pt x="635" y="660" on="1"/>
        <pt x="635" y="653" on="0"/>
        <pt x="624" y="592" on="1"/>
        <pt x="612" y="528" on="1"/>
        <pt x="609" y="524" on="1"/>
        <pt x="604" y="521" on="0"/>
        <pt x="601" y="521" on="1"/>
        <pt x="596" y="521" on="0"/>
        <pt x="587" y="529" on="1"/>
        <pt x="539" y="571" on="0"/>
        <pt x="493" y="582" on="1"/>
        <pt x="469" y="589" on="0"/>
        <pt x="428" y="589" on="1"/>
        <pt x="319" y="589" on="0"/>
        <pt x="224" y="467" on="0"/>
        <pt x="224" y="227" on="0"/>
        <pt x="322" y="104" on="0"/>
        <pt x="432" y="104" on="1"/>
        <pt x="492" y="104" on="0"/>
        <pt x="559" y="125" on="0"/>
        <pt x="604" y="158" on="1"/>
        <pt x="607" y="160" on="0"/>
        <pt x="613" y="164" on="0"/>
        <pt x="617" y="167" on="0"/>
        <pt x="619" y="168" on="1"/>
        <pt x="621" y="170" on="1"/>
        <pt x="625" y="172" on="0"/>
        <pt x="636" y="167" on="0"/>
        <pt x="637" y="163" on="1"/>
        <pt x="638" y="160" on="0"/>
        <pt x="647" y="58" on="0"/>
        <pt x="647" y="54" on="1"/>
        <pt x="646" y="49" on="0"/>
        <pt x="628" y="39" on="1"/>
        <pt x="572" y="8" on="0"/>
        <pt x="496" y="-11" on="0"/>
      </contour>
    </TTGlyph>
    <TTGlyph name="D" xMin="92" yMin="1" xMax="732" yMax="694">
      <contour>
        <pt x="119" y="1" on="1"/>
        <pt x="99" y="5" on="0"/>
        <pt x="92" y="28" on="1"/>
        <pt x="92" y="667" on="1"/>
        <pt x="98" y="685" on="0"/>
        <pt x="118" y="693" on="1"/>
        <pt x="124" y="693" on="1"/>
        <pt x="131" y="693" on="0"/>
        <pt x="154" y="694" on="0"/>
        <pt x="182" y="694" on="0"/>
        <pt x="219" y="694" on="0"/>
        <pt x="237" y="694" on="1"/>
        <pt x="426" y="694" on="0"/>
        <pt x="446" y="692" on="1"/>
        <pt x="732" y="665" on="0"/>
        <pt x="732" y="342" on="1"/>
        <pt x="732" y="169" on="0"/>
        <pt x="644" y="81" on="1"/>
        <pt x="575" y="15" on="0"/>
        <pt x="450" y="2" on="1"/>
        <pt x="434" y="1" on="0"/>
        <pt x="276" y="1" on="1"/>
      </contour>
      <contour>
        <pt x="403" y="591" on="1"/>
        <pt x="395" y="592" on="0"/>
        <pt x="320" y="593" on="1"/>
        <pt x="250" y="593" on="1"/>
        <pt x="250" y="101" on="1"/>
        <pt x="321" y="101" on="1"/>
        <pt x="403" y="102" on="0"/>
        <pt x="431" y="108" on="1"/>
        <pt x="551" y="131" on="0"/>
        <pt x="569" y="263" on="1"/>
        <pt x="573" y="303" on="0"/>
        <pt x="573" y="349" on="1"/>
        <pt x="573" y="464" on="0"/>
        <pt x="498" y="578" on="0"/>
      </contour>
    </TTGlyph>
    <TTGlyph name="Delta" xMin="60" yMin="0" xMax="856" yMax="694">
      <contour>
        <pt x="381" y="692" on="1"/>
        <pt x="386" y="694" on="0"/>
        <pt x="458" y="694" on="1"/>
        <pt x="516" y="694" on="0"/>
        <pt x="538" y="692" on="0"/>
        <pt x="549" y="687" on="1"/>
        <pt x="564" y="680" on="0"/>
        <pt x="575" y="663" on="1"/>
        <pt x="576" y="658" on="0"/>
        <pt x="854" y="40" on="0"/>
        <pt x="856" y="27" on="1"/>
        <pt x="856" y="6" on="0"/>
        <pt x="838" y="1" on="1"/>
        <pt x="826" y="1" on="1"/>
        <pt x="815" y="1" on="0"/>
        <pt x="774" y="1" on="0"/>
        <pt x="720" y="1" on="0"/>
        <pt x="652" y="0" on="0"/>
        <pt x="580" y="0" on="0"/>
        <pt x="497" y="0" on="0"/>
        <pt x="419" y="0" on="0"/>
        <pt x="336" y="0" on="0"/>
        <pt x="264" y="0" on="0"/>
        <pt x="196" y="1" on="0"/>
        <pt x="142" y="1" on="0"/>
        <pt x="101" y="1" on="0"/>
        <pt x="90" y="1" on="1"/>
        <pt x="78" y="1" on="1"/>
        <pt x="60" y="6" on="0"/>
        <pt x="60" y="27" on="1"/>
        <pt x="62" y="38" on="0"/>
        <pt x="341" y="661" on="0"/>
        <pt x="341" y="663" on="1"/>
        <pt x="356" y="687" on="0"/>
      </contour>
      <contour>
        <pt x="447" y="554" on="1"/>
        <pt x="448" y="557" on="1"/>
        <pt x="449" y="557" on="0"/>
        <pt x="289" y="193" on="0"/>
        <pt x="268" y="148" on="1"/>
        <pt x="268" y="147" on="0"/>
        <pt x="448" y="147" on="1"/>
        <pt x="627" y="147" on="0"/>
        <pt x="627" y="148" on="1"/>
        <pt x="626" y="149" on="0"/>
        <pt x="568" y="281" on="1"/>
        <pt x="483" y="470" on="0"/>
        <pt x="457" y="533" on="1"/>
      </contour>
    </TTGlyph>
    <TTGlyph name="E" xMin="92" yMin="0" xMax="595" yMax="691">
      <contour>
        <pt x="277" y="122" on="1"/>
        <pt x="282" y="122" on="0"/>
        <pt x="526" y="125" on="0"/>
        <pt x="544" y="125" on="1"/>
        <pt x="552" y="125" on="0"/>
        <pt x="563" y="124" on="0"/>
        <pt x="568" y="124" on="0"/>
        <pt x="569" y="124" on="1"/>
        <pt x="587" y="118" on="0"/>
        <pt x="593" y="100" on="1"/>
        <pt x="595" y="94" on="0"/>
        <pt x="595" y="62" on="1"/>
        <pt x="595" y="31" on="0"/>
        <pt x="593" y="25" on="1"/>
        <pt x="587" y="6" on="0"/>
        <pt x="569" y="2" on="1"/>
        <pt x="564" y="0" on="0"/>
        <pt x="341" y="0" on="1"/>
        <pt x="119" y="1" on="1"/>
        <pt x="100" y="7" on="0"/>
        <pt x="92" y="28" on="1"/>
        <pt x="92" y="664" on="1"/>
        <pt x="98" y="682" on="0"/>
        <pt x="118" y="690" on="1"/>
        <pt x="121" y="691" on="0"/>
        <pt x="549" y="691" on="0"/>
        <pt x="554" y="689" on="1"/>
        <pt x="573" y="684" on="0"/>
        <pt x="578" y="666" on="1"/>
        <pt x="580" y="661" on="0"/>
        <pt x="580" y="632" on="1"/>
        <pt x="580" y="602" on="0"/>
        <pt x="578" y="597" on="1"/>
        <pt x="572" y="579" on="0"/>
        <pt x="554" y="573" on="1"/>
        <pt x="553" y="573" on="0"/>
        <pt x="548" y="572" on="0"/>
        <pt x="536" y="572" on="0"/>
        <pt x="527" y="572" on="1"/>
        <pt x="521" y="572" on="0"/>
        <pt x="462" y="573" on="0"/>
        <pt x="385" y="574" on="0"/>
        <pt x="311" y="574" on="0"/>
        <pt x="286" y="574" on="1"/>
        <pt x="260" y="575" on="1"/>
        <pt x="253" y="575" on="1"/>
        <pt x="253" y="412" on="1"/>
        <pt x="385" y="412" on="1"/>
        <pt x="518" y="412" on="0"/>
        <pt x="523" y="410" on="1"/>
        <pt x="542" y="405" on="0"/>
        <pt x="547" y="387" on="1"/>
        <pt x="549" y="382" on="0"/>
        <pt x="549" y="357" on="1"/>
        <pt x="549" y="333" on="0"/>
        <pt x="547" y="328" on="1"/>
        <pt x="542" y="310" on="0"/>
        <pt x="523" y="305" on="1"/>
        <pt x="518" y="303" on="0"/>
        <pt x="385" y="303" on="1"/>
        <pt x="253" y="303" on="1"/>
        <pt x="253" y="122" on="1"/>
      </contour>
    </TTGlyph>
    <TTGlyph name="F" xMin="92" yMin="0" xMax="564" yMax="691">
      <contour>
        <pt x="512" y="572" on="1"/>
        <pt x="258" y="575" on="1"/>
        <pt x="253" y="575" on="1"/>
        <pt x="253" y="400" on="1"/>
        <pt x="370" y="400" on="1"/>
        <pt x="487" y="400" on="0"/>
        <pt x="492" y="398" on="1"/>
        <pt x="511" y="393" on="0"/>
        <pt x="516" y="375" on="1"/>
        <pt x="518" y="370" on="0"/>
        <pt x="518" y="345" on="1"/>
        <pt x="518" y="321" on="0"/>
        <pt x="516" y="316" on="1"/>
        <pt x="511" y="298" on="0"/>
        <pt x="492" y="293" on="1"/>
        <pt x="487" y="291" on="0"/>
        <pt x="370" y="291" on="1"/>
        <pt x="253" y="291" on="1"/>
        <pt x="253" y="161" on="1"/>
        <pt x="253" y="31" on="0"/>
        <pt x="251" y="25" on="1"/>
        <pt x="245" y="6" on="0"/>
        <pt x="227" y="2" on="1"/>
        <pt x="222" y="0" on="0"/>
        <pt x="170" y="0" on="1"/>
        <pt x="119" y="1" on="1"/>
        <pt x="100" y="7" on="0"/>
        <pt x="92" y="28" on="1"/>
        <pt x="92" y="664" on="1"/>
        <pt x="98" y="682" on="0"/>
        <pt x="118" y="690" on="1"/>
        <pt x="121" y="691" on="0"/>
        <pt x="533" y="691" on="0"/>
        <pt x="538" y="689" on="1"/>
        <pt x="557" y="684" on="0"/>
        <pt x="562" y="666" on="1"/>
        <pt x="564" y="661" on="0"/>
        <pt x="564" y="632" on="1"/>
        <pt x="564" y="602" on="0"/>
        <pt x="562" y="597" on="1"/>
        <pt x="556" y="579" on="0"/>
        <pt x="538" y="573" on="1"/>
        <pt x="537" y="573" on="0"/>
        <pt x="532" y="572" on="0"/>
        <pt x="520" y="572" on="0"/>
      </contour>
    </TTGlyph>
    <TTGlyph name="G" xMin="61" yMin="-11" xMax="659" yMax="705">
      <contour>
        <pt x="61" y="169" on="0"/>
        <pt x="61" y="525" on="0"/>
        <pt x="246" y="705" on="0"/>
        <pt x="426" y="705" on="1"/>
        <pt x="539" y="705" on="0"/>
        <pt x="635" y="659" on="1"/>
        <pt x="649" y="651" on="0"/>
        <pt x="650" y="646" on="1"/>
        <pt x="650" y="645" on="0"/>
        <pt x="647" y="629" on="0"/>
        <pt x="642" y="595" on="0"/>
        <pt x="639" y="578" on="1"/>
        <pt x="627" y="514" on="1"/>
        <pt x="624" y="510" on="1"/>
        <pt x="620" y="507" on="0"/>
        <pt x="615" y="507" on="1"/>
        <pt x="611" y="507" on="0"/>
        <pt x="595" y="522" on="1"/>
        <pt x="558" y="558" on="0"/>
        <pt x="487" y="590" on="0"/>
        <pt x="430" y="590" on="1"/>
        <pt x="321" y="590" on="0"/>
        <pt x="223" y="466" on="0"/>
        <pt x="223" y="228" on="0"/>
        <pt x="322" y="104" on="0"/>
        <pt x="431" y="104" on="1"/>
        <pt x="479" y="104" on="0"/>
        <pt x="506" y="112" on="1"/>
        <pt x="508" y="112" on="0"/>
        <pt x="508" y="164" on="1"/>
        <pt x="508" y="215" on="1"/>
        <pt x="471" y="215" on="1"/>
        <pt x="434" y="216" on="1"/>
        <pt x="428" y="222" on="1"/>
        <pt x="427" y="268" on="1"/>
        <pt x="427" y="315" on="0"/>
        <pt x="429" y="318" on="1"/>
        <pt x="432" y="323" on="0"/>
        <pt x="457" y="324" on="0"/>
        <pt x="544" y="324" on="1"/>
        <pt x="652" y="324" on="1"/>
        <pt x="655" y="320" on="0"/>
        <pt x="659" y="317" on="1"/>
        <pt x="659" y="45" on="1"/>
        <pt x="656" y="43" on="1"/>
        <pt x="654" y="40" on="0"/>
        <pt x="649" y="38" on="1"/>
        <pt x="542" y="-11" on="0"/>
        <pt x="424" y="-11" on="1"/>
        <pt x="245" y="-11" on="0"/>
      </contour>
    </TTGlyph>
    <TTGlyph name="Gamma" xMin="92" yMin="0" xMax="534" yMax="691">
      <contour>
        <pt x="92" y="664" on="1"/>
        <pt x="98" y="682" on="0"/>
        <pt x="118" y="690" on="1"/>
        <pt x="121" y="691" on="0"/>
        <pt x="503" y="691" on="0"/>
        <pt x="508" y="689" on="1"/>
        <pt x="527" y="684" on="0"/>
        <pt x="532" y="666" on="1"/>
        <pt x="534" y="661" on="0"/>
        <pt x="534" y="632" on="1"/>
        <pt x="534" y="602" on="0"/>
        <pt x="532" y="597" on="1"/>
        <pt x="527" y="583" on="0"/>
        <pt x="509" y="572" on="0"/>
        <pt x="489" y="572" on="1"/>
        <pt x="486" y="572" on="0"/>
        <pt x="440" y="573" on="0"/>
        <pt x="416" y="573" on="1"/>
        <pt x="333" y="573" on="0"/>
        <pt x="291" y="575" on="1"/>
        <pt x="253" y="575" on="1"/>
        <pt x="253" y="303" on="1"/>
        <pt x="253" y="31" on="0"/>
        <pt x="251" y="25" on="1"/>
        <pt x="245" y="6" on="0"/>
        <pt x="227" y="2" on="1"/>
        <pt x="222" y="0" on="0"/>
        <pt x="170" y="0" on="1"/>
        <pt x="119" y="1" on="1"/>
        <pt x="100" y="7" on="0"/>
        <pt x="92" y="28" on="1"/>
      </contour>
    </TTGlyph>
    <TTGlyph name="H" xMin="92" yMin="0" xMax="702" yMax="694">
      <contour>
        <pt x="92" y="667" on="1"/>
        <pt x="98" y="685" on="0"/>
        <pt x="118" y="693" on="1"/>
        <pt x="120" y="694" on="0"/>
        <pt x="172" y="694" on="1"/>
        <pt x="222" y="694" on="0"/>
        <pt x="227" y="692" on="1"/>
        <pt x="246" y="687" on="0"/>
        <pt x="251" y="669" on="1"/>
        <pt x="253" y="663" on="0"/>
        <pt x="253" y="539" on="1"/>
        <pt x="253" y="415" on="1"/>
        <pt x="540" y="415" on="1"/>
        <pt x="540" y="539" on="1"/>
        <pt x="540" y="663" on="0"/>
        <pt x="542" y="669" on="1"/>
        <pt x="547" y="687" on="0"/>
        <pt x="566" y="692" on="1"/>
        <pt x="570" y="694" on="0"/>
        <pt x="672" y="694" on="0"/>
        <pt x="676" y="692" on="1"/>
        <pt x="695" y="687" on="0"/>
        <pt x="700" y="669" on="1"/>
        <pt x="702" y="663" on="0"/>
        <pt x="702" y="31" on="0"/>
        <pt x="700" y="25" on="1"/>
        <pt x="695" y="7" on="0"/>
        <pt x="676" y="2" on="1"/>
        <pt x="672" y="0" on="0"/>
        <pt x="570" y="0" on="0"/>
        <pt x="566" y="2" on="1"/>
        <pt x="547" y="7" on="0"/>
        <pt x="542" y="25" on="1"/>
        <pt x="540" y="31" on="0"/>
        <pt x="540" y="169" on="1"/>
        <pt x="540" y="306" on="1"/>
        <pt x="253" y="306" on="1"/>
        <pt x="253" y="169" on="1"/>
        <pt x="253" y="31" on="0"/>
        <pt x="251" y="25" on="1"/>
        <pt x="245" y="6" on="0"/>
        <pt x="227" y="2" on="1"/>
        <pt x="222" y="0" on="0"/>
        <pt x="170" y="0" on="1"/>
        <pt x="119" y="1" on="1"/>
        <pt x="100" y="7" on="0"/>
        <pt x="92" y="28" on="1"/>
      </contour>
    </TTGlyph>
    <TTGlyph name="I" xMin="85" yMin="0" xMax="246" yMax="694">
      <contour>
        <pt x="85" y="667" on="1"/>
        <pt x="91" y="685" on="0"/>
        <pt x="111" y="693" on="1"/>
        <pt x="113" y="694" on="0"/>
        <pt x="165" y="694" on="1"/>
        <pt x="215" y="694" on="0"/>
        <pt x="220" y="692" on="1"/>
        <pt x="239" y="687" on="0"/>
        <pt x="244" y="669" on="1"/>
        <pt x="246" y="663" on="0"/>
        <pt x="246" y="31" on="0"/>
        <pt x="244" y="25" on="1"/>
        <pt x="238" y="6" on="0"/>
        <pt x="220" y="2" on="1"/>
        <pt x="215" y="0" on="0"/>
        <pt x="163" y="0" on="1"/>
        <pt x="112" y="1" on="1"/>
        <pt x="93" y="7" on="0"/>
        <pt x="85" y="28" on="1"/>
      </contour>
    </TTGlyph>
    <TTGlyph name="J" xMin="46" yMin="-22" xMax="427" yMax="694">
      <contour>
        <pt x="294" y="692" on="1"/>
        <pt x="298" y="694" on="0"/>
        <pt x="347" y="694" on="1"/>
        <pt x="397" y="694" on="0"/>
        <pt x="401" y="692" on="1"/>
        <pt x="420" y="687" on="0"/>
        <pt x="425" y="669" on="1"/>
        <pt x="427" y="663" on="0"/>
        <pt x="427" y="399" on="1"/>
        <pt x="427" y="132" on="0"/>
        <pt x="426" y="125" on="1"/>
        <pt x="417" y="55" on="0"/>
        <pt x="317" y="-22" on="0"/>
        <pt x="236" y="-22" on="1"/>
        <pt x="138" y="-22" on="0"/>
        <pt x="61" y="18" on="1"/>
        <pt x="47" y="24" on="0"/>
        <pt x="46" y="29" on="1"/>
        <pt x="46" y="37" on="0"/>
        <pt x="56" y="91" on="1"/>
        <pt x="66" y="150" on="0"/>
        <pt x="69" y="153" on="1"/>
        <pt x="80" y="164" on="0"/>
        <pt x="92" y="146" on="1"/>
        <pt x="124" y="91" on="0"/>
        <pt x="191" y="91" on="1"/>
        <pt x="221" y="91" on="0"/>
        <pt x="263" y="114" on="0"/>
        <pt x="267" y="134" on="1"/>
        <pt x="268" y="139" on="0"/>
        <pt x="268" y="402" on="1"/>
        <pt x="268" y="663" on="0"/>
        <pt x="270" y="669" on="1"/>
        <pt x="275" y="687" on="0"/>
      </contour>
    </TTGlyph>
    <TTGlyph name="K" xMin="92" yMin="0" xMax="701" yMax="694">
      <contour>
        <pt x="701" y="23" on="1"/>
        <pt x="701" y="7" on="0"/>
        <pt x="683" y="0" on="1"/>
        <pt x="626" y="0" on="1"/>
        <pt x="570" y="0" on="0"/>
        <pt x="564" y="2" on="1"/>
        <pt x="556" y="4" on="0"/>
        <pt x="545" y="13" on="1"/>
        <pt x="333" y="307" on="0"/>
        <pt x="331" y="307" on="0"/>
        <pt x="284" y="260" on="1"/>
        <pt x="236" y="214" on="1"/>
        <pt x="236" y="122" on="1"/>
        <pt x="236" y="31" on="0"/>
        <pt x="234" y="25" on="1"/>
        <pt x="228" y="6" on="0"/>
        <pt x="210" y="2" on="1"/>
        <pt x="205" y="0" on="0"/>
        <pt x="161" y="0" on="1"/>
        <pt x="119" y="1" on="1"/>
        <pt x="100" y="7" on="0"/>
        <pt x="92" y="28" on="1"/>
        <pt x="92" y="667" on="1"/>
        <pt x="98" y="685" on="0"/>
        <pt x="118" y="693" on="1"/>
        <pt x="120" y="694" on="0"/>
        <pt x="163" y="694" on="1"/>
        <pt x="205" y="694" on="0"/>
        <pt x="210" y="692" on="1"/>
        <pt x="228" y="687" on="0"/>
        <pt x="234" y="671" on="1"/>
        <pt x="236" y="663" on="0"/>
        <pt x="236" y="529" on="1"/>
        <pt x="237" y="392" on="1"/>
        <pt x="382" y="535" on="1"/>
        <pt x="416" y="569" on="0"/>
        <pt x="492" y="642" on="0"/>
        <pt x="532" y="681" on="0"/>
        <pt x="533" y="682" on="1"/>
        <pt x="544" y="690" on="0"/>
        <pt x="559" y="693" on="1"/>
        <pt x="563" y="694" on="0"/>
        <pt x="623" y="694" on="1"/>
        <pt x="681" y="694" on="1"/>
        <pt x="695" y="680" on="0"/>
        <pt x="695" y="671" on="1"/>
        <pt x="695" y="670" on="0"/>
        <pt x="693" y="664" on="1"/>
        <pt x="690" y="659" on="0"/>
        <pt x="559" y="530" on="0"/>
        <pt x="495" y="468" on="1"/>
        <pt x="431" y="405" on="1"/>
        <pt x="698" y="33" on="1"/>
        <pt x="701" y="28" on="0"/>
      </contour>
    </TTGlyph>
    <TTGlyph name="L" xMin="92" yMin="0" xMax="534" yMax="694">
      <contour>
        <pt x="490" y="119" on="1"/>
        <pt x="510" y="119" on="0"/>
        <pt x="525" y="109" on="0"/>
        <pt x="534" y="93" on="1"/>
        <pt x="534" y="63" on="1"/>
        <pt x="534" y="32" on="0"/>
        <pt x="532" y="26" on="1"/>
        <pt x="527" y="7" on="0"/>
        <pt x="508" y="2" on="1"/>
        <pt x="503" y="0" on="0"/>
        <pt x="310" y="0" on="1"/>
        <pt x="119" y="1" on="1"/>
        <pt x="100" y="7" on="0"/>
        <pt x="92" y="28" on="1"/>
        <pt x="92" y="667" on="1"/>
        <pt x="98" y="685" on="0"/>
        <pt x="118" y="693" on="1"/>
        <pt x="120" y="694" on="0"/>
        <pt x="172" y="694" on="1"/>
        <pt x="222" y="694" on="0"/>
        <pt x="227" y="692" on="1"/>
        <pt x="246" y="687" on="0"/>
        <pt x="251" y="669" on="1"/>
        <pt x="253" y="663" on="0"/>
        <pt x="253" y="389" on="1"/>
        <pt x="253" y="116" on="1"/>
        <pt x="278" y="117" on="1"/>
        <pt x="410" y="119" on="0"/>
      </contour>
    </TTGlyph>
    <TTGlyph name="Lambda" xMin="41" yMin="0" xMax="630" yMax="694">
      <contour>
        <pt x="263" y="693" on="1"/>
        <pt x="274" y="694" on="1"/>
        <pt x="286" y="694" on="0"/>
        <pt x="320" y="694" on="0"/>
        <pt x="350" y="694" on="0"/>
        <pt x="384" y="694" on="0"/>
        <pt x="406" y="693" on="0"/>
        <pt x="407" y="693" on="1"/>
        <pt x="432" y="688" on="0"/>
        <pt x="442" y="667" on="1"/>
        <pt x="445" y="660" on="0"/>
        <pt x="630" y="39" on="0"/>
        <pt x="630" y="28" on="1"/>
        <pt x="630" y="14" on="0"/>
        <pt x="621" y="7" on="1"/>
        <pt x="615" y="2" on="0"/>
        <pt x="598" y="0" on="0"/>
        <pt x="555" y="0" on="1"/>
        <pt x="502" y="0" on="0"/>
        <pt x="499" y="1" on="1"/>
        <pt x="475" y="6" on="0"/>
        <pt x="465" y="27" on="1"/>
        <pt x="461" y="34" on="0"/>
        <pt x="416" y="189" on="1"/>
        <pt x="335" y="468" on="0"/>
        <pt x="325" y="555" on="1"/>
        <pt x="325" y="546" on="1"/>
        <pt x="319" y="488" on="0"/>
        <pt x="267" y="302" on="1"/>
        <pt x="197" y="49" on="0"/>
        <pt x="186" y="27" on="1"/>
        <pt x="184" y="22" on="0"/>
        <pt x="170" y="8" on="0"/>
        <pt x="165" y="6" on="1"/>
        <pt x="154" y="0" on="0"/>
        <pt x="106" y="0" on="1"/>
        <pt x="70" y="0" on="0"/>
        <pt x="56" y="2" on="0"/>
        <pt x="50" y="7" on="1"/>
        <pt x="41" y="14" on="0"/>
        <pt x="41" y="28" on="1"/>
        <pt x="41" y="39" on="0"/>
        <pt x="226" y="660" on="0"/>
        <pt x="229" y="667" on="1"/>
        <pt x="239" y="688" on="0"/>
      </contour>
    </TTGlyph>
    <TTGlyph name="M" xMin="92" yMin="0" xMax="886" yMax="694">
      <contour>
        <pt x="92" y="667" on="1"/>
        <pt x="98" y="685" on="0"/>
        <pt x="118" y="693" on="1"/>
        <pt x="121" y="694" on="0"/>
        <pt x="192" y="694" on="1"/>
        <pt x="268" y="694" on="0"/>
        <pt x="281" y="688" on="1"/>
        <pt x="298" y="681" on="0"/>
        <pt x="305" y="664" on="1"/>
        <pt x="314" y="648" on="0"/>
        <pt x="414" y="381" on="1"/>
        <pt x="487" y="187" on="0"/>
        <pt x="487" y="165" on="1"/>
        <pt x="487" y="162" on="0"/>
        <pt x="489" y="162" on="0"/>
        <pt x="489" y="165" on="1"/>
        <pt x="489" y="184" on="0"/>
        <pt x="560" y="377" on="1"/>
        <pt x="655" y="631" on="0"/>
        <pt x="671" y="664" on="1"/>
        <pt x="679" y="680" on="0"/>
        <pt x="695" y="688" on="1"/>
        <pt x="708" y="694" on="0"/>
        <pt x="785" y="694" on="1"/>
        <pt x="855" y="694" on="0"/>
        <pt x="860" y="692" on="1"/>
        <pt x="879" y="687" on="0"/>
        <pt x="884" y="669" on="1"/>
        <pt x="886" y="663" on="0"/>
        <pt x="886" y="31" on="0"/>
        <pt x="884" y="25" on="1"/>
        <pt x="879" y="7" on="0"/>
        <pt x="860" y="2" on="1"/>
        <pt x="856" y="0" on="0"/>
        <pt x="778" y="0" on="0"/>
        <pt x="774" y="2" on="1"/>
        <pt x="755" y="7" on="0"/>
        <pt x="750" y="25" on="1"/>
        <pt x="748" y="31" on="0"/>
        <pt x="748" y="293" on="1"/>
        <pt x="748" y="555" on="1"/>
        <pt x="746" y="544" on="1"/>
        <pt x="728" y="472" on="0"/>
        <pt x="594" y="129" on="1"/>
        <pt x="565" y="53" on="0"/>
        <pt x="564" y="52" on="1"/>
        <pt x="556" y="36" on="0"/>
        <pt x="540" y="28" on="1"/>
        <pt x="526" y="22" on="0"/>
        <pt x="448" y="22" on="0"/>
        <pt x="434" y="28" on="1"/>
        <pt x="417" y="35" on="0"/>
        <pt x="410" y="52" on="1"/>
        <pt x="398" y="74" on="0"/>
        <pt x="311" y="309" on="1"/>
        <pt x="241" y="495" on="0"/>
        <pt x="231" y="546" on="1"/>
        <pt x="230" y="548" on="1"/>
        <pt x="229" y="548" on="0"/>
        <pt x="229" y="293" on="1"/>
        <pt x="229" y="31" on="0"/>
        <pt x="227" y="25" on="1"/>
        <pt x="221" y="6" on="0"/>
        <pt x="203" y="2" on="1"/>
        <pt x="198" y="0" on="0"/>
        <pt x="158" y="0" on="1"/>
        <pt x="119" y="1" on="1"/>
        <pt x="100" y="7" on="0"/>
        <pt x="92" y="28" on="1"/>
      </contour>
    </TTGlyph>
    <TTGlyph name="N" xMin="92" yMin="0" xMax="702" yMax="694">
      <contour>
        <pt x="92" y="667" on="1"/>
        <pt x="98" y="685" on="0"/>
        <pt x="118" y="693" on="1"/>
        <pt x="121" y="694" on="0"/>
        <pt x="185" y="694" on="1"/>
        <pt x="273" y="694" on="0"/>
        <pt x="279" y="692" on="1"/>
        <pt x="301" y="689" on="0"/>
        <pt x="315" y="669" on="1"/>
        <pt x="324" y="656" on="0"/>
        <pt x="549" y="176" on="0"/>
        <pt x="554" y="163" on="1"/>
        <pt x="562" y="143" on="1"/>
        <pt x="564" y="143" on="0"/>
        <pt x="564" y="401" on="1"/>
        <pt x="564" y="663" on="0"/>
        <pt x="566" y="669" on="1"/>
        <pt x="571" y="687" on="0"/>
        <pt x="590" y="692" on="1"/>
        <pt x="594" y="694" on="0"/>
        <pt x="672" y="694" on="0"/>
        <pt x="676" y="692" on="1"/>
        <pt x="695" y="687" on="0"/>
        <pt x="700" y="669" on="1"/>
        <pt x="702" y="663" on="0"/>
        <pt x="702" y="31" on="0"/>
        <pt x="700" y="25" on="1"/>
        <pt x="695" y="7" on="0"/>
        <pt x="676" y="2" on="1"/>
        <pt x="671" y="0" on="0"/>
        <pt x="596" y="0" on="1"/>
        <pt x="534" y="0" on="0"/>
        <pt x="510" y="2" on="0"/>
        <pt x="501" y="6" on="1"/>
        <pt x="486" y="13" on="0"/>
        <pt x="478" y="25" on="1"/>
        <pt x="471" y="34" on="0"/>
        <pt x="352" y="287" on="0"/>
        <pt x="240" y="530" on="0"/>
        <pt x="239" y="532" on="1"/>
        <pt x="231" y="550" on="0"/>
        <pt x="231" y="552" on="1"/>
        <pt x="229" y="479" on="1"/>
        <pt x="229" y="440" on="0"/>
        <pt x="229" y="293" on="1"/>
        <pt x="229" y="31" on="0"/>
        <pt x="227" y="25" on="1"/>
        <pt x="221" y="6" on="0"/>
        <pt x="203" y="2" on="1"/>
        <pt x="198" y="0" on="0"/>
        <pt x="158" y="0" on="1"/>
        <pt x="119" y="1" on="1"/>
        <pt x="100" y="7" on="0"/>
        <pt x="92" y="28" on="1"/>
      </contour>
    </TTGlyph>
    <TTGlyph name="O" xMin="62" yMin="-22" xMax="731" yMax="716">
      <contour>
        <pt x="62" y="342" on="1"/>
        <pt x="62" y="695" on="0"/>
        <pt x="362" y="715" on="1"/>
        <pt x="364" y="715" on="0"/>
        <pt x="388" y="716" on="0"/>
        <pt x="394" y="716" on="1"/>
        <pt x="400" y="716" on="1"/>
        <pt x="547" y="716" on="0"/>
        <pt x="712" y="565" on="0"/>
        <pt x="727" y="426" on="1"/>
        <pt x="731" y="395" on="0"/>
        <pt x="731" y="342" on="1"/>
        <pt x="731" y="271" on="0"/>
        <pt x="722" y="225" on="1"/>
        <pt x="672" y="-22" on="0"/>
        <pt x="396" y="-22" on="1"/>
        <pt x="264" y="-22" on="0"/>
        <pt x="103" y="92" on="0"/>
        <pt x="77" y="201" on="1"/>
        <pt x="62" y="257" on="0"/>
      </contour>
      <contour>
        <pt x="568" y="433" on="1"/>
        <pt x="551" y="623" on="0"/>
        <pt x="396" y="623" on="1"/>
        <pt x="329" y="623" on="0"/>
        <pt x="245" y="548" on="0"/>
        <pt x="233" y="485" on="1"/>
        <pt x="223" y="442" on="0"/>
        <pt x="223" y="350" on="1"/>
        <pt x="223" y="252" on="0"/>
        <pt x="238" y="200" on="1"/>
        <pt x="259" y="129" on="0"/>
        <pt x="303" y="101" on="1"/>
        <pt x="344" y="74" on="0"/>
        <pt x="397" y="74" on="1"/>
        <pt x="438" y="74" on="0"/>
        <pt x="508" y="108" on="0"/>
        <pt x="526" y="137" on="1"/>
        <pt x="565" y="194" on="0"/>
        <pt x="569" y="303" on="1"/>
        <pt x="569" y="308" on="0"/>
        <pt x="570" y="345" on="0"/>
        <pt x="570" y="357" on="1"/>
        <pt x="570" y="409" on="0"/>
      </contour>
    </TTGlyph>
    <TTGlyph name="Omega" xMin="49" yMin="0" xMax="744" yMax="716">
      <contour>
        <pt x="396" y="629" on="1"/>
        <pt x="307" y="629" on="0"/>
        <pt x="223" y="552" on="0"/>
        <pt x="223" y="468" on="1"/>
        <pt x="223" y="432" on="0"/>
        <pt x="232" y="397" on="1"/>
        <pt x="242" y="355" on="0"/>
        <pt x="285" y="262" on="1"/>
        <pt x="323" y="178" on="0"/>
        <pt x="336" y="132" on="1"/>
        <pt x="350" y="84" on="0"/>
        <pt x="350" y="41" on="1"/>
        <pt x="350" y="8" on="0"/>
        <pt x="324" y="2" on="1"/>
        <pt x="319" y="0" on="0"/>
        <pt x="197" y="0" on="1"/>
        <pt x="77" y="1" on="1"/>
        <pt x="58" y="7" on="0"/>
        <pt x="50" y="28" on="1"/>
        <pt x="49" y="59" on="1"/>
        <pt x="49" y="91" on="0"/>
        <pt x="51" y="97" on="1"/>
        <pt x="56" y="116" on="0"/>
        <pt x="75" y="121" on="1"/>
        <pt x="81" y="123" on="0"/>
        <pt x="100" y="123" on="1"/>
        <pt x="104" y="123" on="0"/>
        <pt x="144" y="122" on="0"/>
        <pt x="161" y="122" on="1"/>
        <pt x="241" y="122" on="1"/>
        <pt x="221" y="160" on="0"/>
        <pt x="169" y="228" on="1"/>
        <pt x="132" y="276" on="0"/>
        <pt x="118" y="297" on="1"/>
        <pt x="61" y="384" on="0"/>
        <pt x="61" y="464" on="1"/>
        <pt x="61" y="484" on="0"/>
        <pt x="64" y="503" on="1"/>
        <pt x="96" y="716" on="0"/>
        <pt x="396" y="716" on="1"/>
        <pt x="540" y="716" on="0"/>
        <pt x="622" y="668" on="1"/>
        <pt x="674" y="638" on="0"/>
        <pt x="732" y="532" on="0"/>
        <pt x="732" y="465" on="1"/>
        <pt x="732" y="404" on="0"/>
        <pt x="701" y="343" on="1"/>
        <pt x="680" y="301" on="0"/>
        <pt x="624" y="228" on="1"/>
        <pt x="569" y="155" on="0"/>
        <pt x="552" y="122" on="1"/>
        <pt x="632" y="122" on="1"/>
        <pt x="649" y="122" on="0"/>
        <pt x="689" y="123" on="0"/>
        <pt x="693" y="123" on="1"/>
        <pt x="712" y="123" on="0"/>
        <pt x="718" y="121" on="1"/>
        <pt x="737" y="116" on="0"/>
        <pt x="742" y="98" on="1"/>
        <pt x="744" y="92" on="0"/>
        <pt x="744" y="62" on="1"/>
        <pt x="744" y="31" on="0"/>
        <pt x="742" y="25" on="1"/>
        <pt x="736" y="6" on="0"/>
        <pt x="718" y="2" on="1"/>
        <pt x="713" y="0" on="0"/>
        <pt x="591" y="0" on="1"/>
        <pt x="471" y="1" on="1"/>
        <pt x="454" y="7" on="0"/>
        <pt x="446" y="21" on="1"/>
        <pt x="444" y="27" on="0"/>
        <pt x="444" y="45" on="1"/>
        <pt x="444" y="97" on="0"/>
        <pt x="466" y="160" on="1"/>
        <pt x="477" y="192" on="0"/>
        <pt x="508" y="262" on="1"/>
        <pt x="560" y="372" on="0"/>
        <pt x="567" y="426" on="1"/>
        <pt x="569" y="436" on="0"/>
        <pt x="569" y="469" on="1"/>
        <pt x="569" y="554" on="0"/>
        <pt x="486" y="629" on="0"/>
      </contour>
    </TTGlyph>
    <TTGlyph name="P" xMin="92" yMin="0" xMax="641" yMax="694">
      <contour>
        <pt x="92" y="667" on="1"/>
        <pt x="98" y="685" on="0"/>
        <pt x="118" y="693" on="1"/>
        <pt x="121" y="694" on="0"/>
        <pt x="271" y="694" on="1"/>
        <pt x="428" y="693" on="0"/>
        <pt x="462" y="688" on="1"/>
        <pt x="641" y="656" on="0"/>
        <pt x="641" y="470" on="1"/>
        <pt x="641" y="287" on="0"/>
        <pt x="456" y="258" on="1"/>
        <pt x="431" y="254" on="0"/>
        <pt x="337" y="253" on="1"/>
        <pt x="253" y="253" on="1"/>
        <pt x="253" y="142" on="1"/>
        <pt x="253" y="31" on="0"/>
        <pt x="251" y="25" on="1"/>
        <pt x="245" y="6" on="0"/>
        <pt x="227" y="2" on="1"/>
        <pt x="222" y="0" on="0"/>
        <pt x="170" y="0" on="1"/>
        <pt x="119" y="1" on="1"/>
        <pt x="100" y="7" on="0"/>
        <pt x="92" y="28" on="1"/>
      </contour>
      <contour>
        <pt x="441" y="577" on="1"/>
        <pt x="410" y="593" on="0"/>
        <pt x="353" y="593" on="1"/>
        <pt x="310" y="593" on="1"/>
        <pt x="250" y="593" on="1"/>
        <pt x="250" y="347" on="1"/>
        <pt x="309" y="347" on="1"/>
        <pt x="395" y="347" on="0"/>
        <pt x="421" y="355" on="1"/>
        <pt x="457" y="365" on="0"/>
        <pt x="487" y="418" on="0"/>
        <pt x="487" y="467" on="1"/>
        <pt x="487" y="515" on="0"/>
        <pt x="468" y="563" on="0"/>
      </contour>
    </TTGlyph>
    <TTGlyph name="Phi" xMin="62" yMin="0" xMax="732" yMax="694">
      <contour>
        <pt x="346" y="693" on="1"/>
        <pt x="348" y="694" on="0"/>
        <pt x="397" y="694" on="1"/>
        <pt x="444" y="694" on="0"/>
        <pt x="449" y="692" on="1"/>
        <pt x="468" y="687" on="0"/>
        <pt x="473" y="669" on="1"/>
        <pt x="475" y="663" on="0"/>
        <pt x="475" y="625" on="1"/>
        <pt x="475" y="587" on="1"/>
        <pt x="478" y="587" on="1"/>
        <pt x="479" y="587" on="0"/>
        <pt x="483" y="586" on="0"/>
        <pt x="490" y="585" on="0"/>
        <pt x="492" y="585" on="1"/>
        <pt x="613" y="571" on="0"/>
        <pt x="674" y="507" on="1"/>
        <pt x="732" y="444" on="0"/>
        <pt x="732" y="347" on="1"/>
        <pt x="732" y="252" on="0"/>
        <pt x="674" y="187" on="1"/>
        <pt x="613" y="123" on="0"/>
        <pt x="492" y="109" on="1"/>
        <pt x="490" y="109" on="0"/>
        <pt x="483" y="108" on="0"/>
        <pt x="479" y="107" on="0"/>
        <pt x="478" y="107" on="1"/>
        <pt x="475" y="107" on="1"/>
        <pt x="475" y="69" on="1"/>
        <pt x="475" y="31" on="0"/>
        <pt x="473" y="25" on="1"/>
        <pt x="467" y="6" on="0"/>
        <pt x="449" y="2" on="1"/>
        <pt x="444" y="0" on="0"/>
        <pt x="395" y="0" on="1"/>
        <pt x="347" y="1" on="1"/>
        <pt x="328" y="7" on="0"/>
        <pt x="320" y="28" on="1"/>
        <pt x="319" y="67" on="1"/>
        <pt x="319" y="107" on="1"/>
        <pt x="315" y="107" on="1"/>
        <pt x="313" y="108" on="0"/>
        <pt x="303" y="109" on="0"/>
        <pt x="301" y="109" on="1"/>
        <pt x="180" y="123" on="0"/>
        <pt x="119" y="187" on="1"/>
        <pt x="62" y="251" on="0"/>
        <pt x="62" y="347" on="1"/>
        <pt x="62" y="445" on="0"/>
        <pt x="119" y="507" on="1"/>
        <pt x="180" y="571" on="0"/>
        <pt x="301" y="585" on="1"/>
        <pt x="303" y="585" on="0"/>
        <pt x="313" y="586" on="0"/>
        <pt x="315" y="587" on="1"/>
        <pt x="319" y="587" on="1"/>
        <pt x="319" y="627" on="1"/>
        <pt x="320" y="667" on="1"/>
        <pt x="326" y="685" on="0"/>
      </contour>
      <contour>
        <pt x="319" y="197" on="0"/>
        <pt x="319" y="497" on="0"/>
        <pt x="318" y="497" on="1"/>
        <pt x="314" y="497" on="0"/>
        <pt x="296" y="490" on="1"/>
        <pt x="255" y="474" on="0"/>
        <pt x="220" y="408" on="0"/>
        <pt x="220" y="347" on="1"/>
        <pt x="220" y="284" on="0"/>
        <pt x="239" y="249" on="1"/>
        <pt x="261" y="212" on="0"/>
        <pt x="308" y="200" on="1"/>
        <pt x="316" y="198" on="0"/>
        <pt x="317" y="197" on="1"/>
      </contour>
      <contour>
        <pt x="531" y="471" on="1"/>
        <pt x="514" y="486" on="0"/>
        <pt x="475" y="497" on="1"/>
        <pt x="475" y="197" on="1"/>
        <pt x="519" y="210" on="0"/>
        <pt x="565" y="257" on="0"/>
        <pt x="571" y="303" on="1"/>
        <pt x="572" y="312" on="0"/>
        <pt x="572" y="382" on="0"/>
        <pt x="571" y="392" on="1"/>
        <pt x="562" y="447" on="0"/>
      </contour>
    </TTGlyph>
    <TTGlyph name="Pi" xMin="92" yMin="0" xMax="702" yMax="691">
      <contour>
        <pt x="92" y="664" on="1"/>
        <pt x="98" y="682" on="0"/>
        <pt x="118" y="690" on="1"/>
        <pt x="121" y="691" on="0"/>
        <pt x="671" y="691" on="0"/>
        <pt x="676" y="689" on="1"/>
        <pt x="695" y="684" on="0"/>
        <pt x="700" y="666" on="1"/>
        <pt x="702" y="660" on="0"/>
        <pt x="702" y="345" on="1"/>
        <pt x="702" y="31" on="0"/>
        <pt x="700" y="25" on="1"/>
        <pt x="695" y="7" on="0"/>
        <pt x="676" y="2" on="1"/>
        <pt x="672" y="0" on="0"/>
        <pt x="570" y="0" on="0"/>
        <pt x="566" y="2" on="1"/>
        <pt x="547" y="7" on="0"/>
        <pt x="542" y="25" on="1"/>
        <pt x="540" y="31" on="0"/>
        <pt x="540" y="307" on="1"/>
        <pt x="540" y="582" on="1"/>
        <pt x="253" y="582" on="1"/>
        <pt x="253" y="307" on="1"/>
        <pt x="253" y="31" on="0"/>
        <pt x="251" y="25" on="1"/>
        <pt x="245" y="6" on="0"/>
        <pt x="227" y="2" on="1"/>
        <pt x="222" y="0" on="0"/>
        <pt x="170" y="0" on="1"/>
        <pt x="119" y="1" on="1"/>
        <pt x="100" y="7" on="0"/>
        <pt x="92" y="28" on="1"/>
      </contour>
    </TTGlyph>
    <TTGlyph name="Psi" xMin="61" yMin="0" xMax="794" yMax="694">
      <contour>
        <pt x="708" y="626" on="1"/>
        <pt x="731" y="626" on="1"/>
        <pt x="766" y="626" on="0"/>
        <pt x="794" y="611" on="0"/>
        <pt x="794" y="582" on="1"/>
        <pt x="794" y="549" on="0"/>
        <pt x="768" y="540" on="1"/>
        <pt x="760" y="539" on="0"/>
        <pt x="757" y="525" on="1"/>
        <pt x="751" y="502" on="0"/>
        <pt x="750" y="428" on="1"/>
        <pt x="749" y="365" on="0"/>
        <pt x="743" y="331" on="1"/>
        <pt x="715" y="162" on="0"/>
        <pt x="560" y="120" on="1"/>
        <pt x="550" y="116" on="0"/>
        <pt x="512" y="109" on="1"/>
        <pt x="506" y="109" on="1"/>
        <pt x="506" y="70" on="1"/>
        <pt x="506" y="31" on="0"/>
        <pt x="504" y="25" on="1"/>
        <pt x="498" y="6" on="0"/>
        <pt x="480" y="2" on="1"/>
        <pt x="475" y="0" on="0"/>
        <pt x="426" y="0" on="1"/>
        <pt x="378" y="1" on="1"/>
        <pt x="359" y="7" on="0"/>
        <pt x="351" y="28" on="1"/>
        <pt x="350" y="68" on="1"/>
        <pt x="350" y="109" on="1"/>
        <pt x="335" y="111" on="1"/>
        <pt x="138" y="146" on="0"/>
        <pt x="110" y="341" on="1"/>
        <pt x="106" y="372" on="0"/>
        <pt x="105" y="429" on="1"/>
        <pt x="104" y="502" on="0"/>
        <pt x="98" y="525" on="1"/>
        <pt x="95" y="539" on="0"/>
        <pt x="87" y="540" on="1"/>
        <pt x="66" y="548" on="0"/>
        <pt x="63" y="565" on="1"/>
        <pt x="61" y="570" on="0"/>
        <pt x="61" y="585" on="1"/>
        <pt x="62" y="600" on="0"/>
        <pt x="64" y="605" on="1"/>
        <pt x="71" y="617" on="0"/>
        <pt x="89" y="626" on="1"/>
        <pt x="138" y="626" on="1"/>
        <pt x="196" y="626" on="0"/>
        <pt x="208" y="620" on="1"/>
        <pt x="243" y="602" on="0"/>
        <pt x="253" y="546" on="1"/>
        <pt x="260" y="514" on="0"/>
        <pt x="261" y="430" on="1"/>
        <pt x="262" y="355" on="0"/>
        <pt x="267" y="327" on="1"/>
        <pt x="281" y="250" on="0"/>
        <pt x="325" y="219" on="1"/>
        <pt x="342" y="205" on="0"/>
        <pt x="349" y="205" on="1"/>
        <pt x="350" y="205" on="0"/>
        <pt x="350" y="436" on="1"/>
        <pt x="351" y="667" on="1"/>
        <pt x="357" y="685" on="0"/>
        <pt x="377" y="693" on="1"/>
        <pt x="379" y="694" on="0"/>
        <pt x="428" y="694" on="1"/>
        <pt x="475" y="694" on="0"/>
        <pt x="480" y="692" on="1"/>
        <pt x="498" y="687" on="0"/>
        <pt x="504" y="671" on="1"/>
        <pt x="506" y="663" on="0"/>
        <pt x="506" y="436" on="1"/>
        <pt x="507" y="205" on="1"/>
        <pt x="513" y="208" on="1"/>
        <pt x="573" y="236" on="0"/>
        <pt x="588" y="330" on="1"/>
        <pt x="593" y="355" on="0"/>
        <pt x="594" y="430" on="1"/>
        <pt x="595" y="514" on="0"/>
        <pt x="602" y="546" on="1"/>
        <pt x="614" y="614" on="0"/>
        <pt x="661" y="625" on="1"/>
        <pt x="665" y="626" on="0"/>
      </contour>
    </TTGlyph>
    <TTGlyph name="Q" xMin="62" yMin="-106" xMax="732" yMax="716">
      <contour>
        <pt x="62" y="342" on="1"/>
        <pt x="62" y="695" on="0"/>
        <pt x="362" y="715" on="1"/>
        <pt x="364" y="715" on="0"/>
        <pt x="388" y="716" on="0"/>
        <pt x="394" y="716" on="1"/>
        <pt x="732" y="716" on="0"/>
        <pt x="732" y="340" on="1"/>
        <pt x="732" y="169" on="0"/>
        <pt x="656" y="78" on="1"/>
        <pt x="636" y="53" on="0"/>
        <pt x="608" y="34" on="1"/>
        <pt x="601" y="29" on="1"/>
        <pt x="676" y="-73" on="1"/>
        <pt x="679" y="-78" on="0"/>
        <pt x="679" y="-83" on="1"/>
        <pt x="679" y="-99" on="0"/>
        <pt x="661" y="-106" on="1"/>
        <pt x="593" y="-106" on="1"/>
        <pt x="526" y="-106" on="0"/>
        <pt x="521" y="-104" on="1"/>
        <pt x="514" y="-103" on="0"/>
        <pt x="503" y="-94" on="1"/>
        <pt x="503" y="-93" on="0"/>
        <pt x="495" y="-83" on="0"/>
        <pt x="483" y="-63" on="0"/>
        <pt x="477" y="-55" on="1"/>
        <pt x="454" y="-19" on="1"/>
        <pt x="450" y="-20" on="1"/>
        <pt x="443" y="-20" on="0"/>
        <pt x="404" y="-22" on="0"/>
        <pt x="396" y="-22" on="1"/>
        <pt x="264" y="-22" on="0"/>
        <pt x="103" y="92" on="0"/>
        <pt x="77" y="201" on="1"/>
        <pt x="62" y="257" on="0"/>
      </contour>
      <contour>
        <pt x="554" y="509" on="1"/>
        <pt x="517" y="622" on="0"/>
        <pt x="391" y="622" on="1"/>
        <pt x="294" y="622" on="0"/>
        <pt x="250" y="535" on="1"/>
        <pt x="220" y="475" on="0"/>
        <pt x="220" y="345" on="1"/>
        <pt x="220" y="274" on="0"/>
        <pt x="225" y="237" on="1"/>
        <pt x="237" y="165" on="0"/>
        <pt x="302" y="85" on="0"/>
        <pt x="363" y="74" on="1"/>
        <pt x="378" y="71" on="0"/>
        <pt x="393" y="71" on="1"/>
        <pt x="395" y="71" on="1"/>
        <pt x="338" y="160" on="0"/>
        <pt x="338" y="161" on="1"/>
        <pt x="335" y="166" on="0"/>
        <pt x="335" y="171" on="1"/>
        <pt x="335" y="186" on="0"/>
        <pt x="352" y="193" on="1"/>
        <pt x="361" y="194" on="1"/>
        <pt x="370" y="194" on="0"/>
        <pt x="399" y="194" on="0"/>
        <pt x="412" y="194" on="1"/>
        <pt x="450" y="194" on="1"/>
        <pt x="457" y="194" on="0"/>
        <pt x="466" y="194" on="0"/>
        <pt x="475" y="191" on="0"/>
        <pt x="478" y="190" on="0"/>
        <pt x="486" y="182" on="0"/>
        <pt x="489" y="178" on="0"/>
        <pt x="501" y="163" on="0"/>
        <pt x="504" y="158" on="1"/>
        <pt x="526" y="129" on="1"/>
        <pt x="532" y="127" on="0"/>
        <pt x="552" y="175" on="1"/>
        <pt x="573" y="231" on="0"/>
        <pt x="573" y="348" on="1"/>
        <pt x="573" y="455" on="0"/>
      </contour>
    </TTGlyph>
    <TTGlyph name="R" xMin="92" yMin="0" xMax="654" yMax="694">
      <contour>
        <pt x="92" y="667" on="1"/>
        <pt x="98" y="685" on="0"/>
        <pt x="118" y="693" on="1"/>
        <pt x="124" y="693" on="1"/>
        <pt x="131" y="693" on="0"/>
        <pt x="152" y="694" on="0"/>
        <pt x="178" y="694" on="0"/>
        <pt x="212" y="694" on="0"/>
        <pt x="229" y="694" on="1"/>
        <pt x="402" y="694" on="0"/>
        <pt x="424" y="692" on="1"/>
        <pt x="588" y="676" on="0"/>
        <pt x="627" y="569" on="1"/>
        <pt x="641" y="532" on="0"/>
        <pt x="641" y="493" on="1"/>
        <pt x="641" y="378" on="0"/>
        <pt x="537" y="331" on="1"/>
        <pt x="515" y="323" on="0"/>
        <pt x="497" y="317" on="1"/>
        <pt x="493" y="316" on="1"/>
        <pt x="644" y="49" on="0"/>
        <pt x="651" y="35" on="1"/>
        <pt x="654" y="30" on="0"/>
        <pt x="654" y="24" on="1"/>
        <pt x="654" y="12" on="0"/>
        <pt x="646" y="6" on="1"/>
        <pt x="640" y="1" on="0"/>
        <pt x="623" y="0" on="0"/>
        <pt x="577" y="0" on="1"/>
        <pt x="521" y="1" on="1"/>
        <pt x="511" y="4" on="0"/>
        <pt x="504" y="11" on="1"/>
        <pt x="501" y="15" on="0"/>
        <pt x="421" y="160" on="1"/>
        <pt x="343" y="304" on="1"/>
        <pt x="250" y="304" on="1"/>
        <pt x="250" y="168" on="1"/>
        <pt x="250" y="31" on="0"/>
        <pt x="248" y="25" on="1"/>
        <pt x="242" y="6" on="0"/>
        <pt x="224" y="2" on="1"/>
        <pt x="219" y="0" on="0"/>
        <pt x="168" y="0" on="1"/>
        <pt x="119" y="1" on="1"/>
        <pt x="100" y="7" on="0"/>
        <pt x="92" y="28" on="1"/>
      </contour>
      <contour>
        <pt x="487" y="444" on="0"/>
        <pt x="487" y="540" on="0"/>
        <pt x="451" y="584" on="0"/>
        <pt x="404" y="591" on="1"/>
        <pt x="398" y="592" on="0"/>
        <pt x="322" y="593" on="1"/>
        <pt x="250" y="593" on="1"/>
        <pt x="250" y="391" on="1"/>
        <pt x="321" y="391" on="1"/>
        <pt x="397" y="392" on="0"/>
        <pt x="404" y="393" on="1"/>
        <pt x="450" y="400" on="0"/>
      </contour>
    </TTGlyph>
    <TTGlyph name="S" xMin="49" yMin="-22" xMax="549" yMax="716">
      <contour>
        <pt x="304" y="102" on="1"/>
        <pt x="408" y="102" on="0"/>
        <pt x="408" y="188" on="1"/>
        <pt x="408" y="205" on="0"/>
        <pt x="407" y="209" on="1"/>
        <pt x="394" y="250" on="0"/>
        <pt x="352" y="268" on="1"/>
        <pt x="342" y="273" on="0"/>
        <pt x="281" y="287" on="1"/>
        <pt x="231" y="298" on="0"/>
        <pt x="187" y="313" on="0"/>
        <pt x="158" y="331" on="1"/>
        <pt x="73" y="389" on="0"/>
        <pt x="62" y="484" on="1"/>
        <pt x="61" y="489" on="0"/>
        <pt x="61" y="503" on="1"/>
        <pt x="61" y="605" on="0"/>
        <pt x="118" y="657" on="1"/>
        <pt x="178" y="716" on="0"/>
        <pt x="305" y="716" on="1"/>
        <pt x="363" y="716" on="0"/>
        <pt x="445" y="696" on="0"/>
        <pt x="496" y="671" on="1"/>
        <pt x="513" y="664" on="0"/>
        <pt x="514" y="657" on="1"/>
        <pt x="514" y="656" on="0"/>
        <pt x="511" y="640" on="0"/>
        <pt x="506" y="606" on="0"/>
        <pt x="503" y="589" on="1"/>
        <pt x="491" y="525" on="1"/>
        <pt x="488" y="521" on="1"/>
        <pt x="484" y="518" on="0"/>
        <pt x="479" y="518" on="1"/>
        <pt x="475" y="518" on="1"/>
        <pt x="461" y="532" on="1"/>
        <pt x="427" y="568" on="0"/>
        <pt x="358" y="598" on="0"/>
        <pt x="305" y="598" on="1"/>
        <pt x="201" y="598" on="0"/>
        <pt x="201" y="523" on="1"/>
        <pt x="201" y="472" on="0"/>
        <pt x="263" y="451" on="1"/>
        <pt x="267" y="450" on="0"/>
        <pt x="383" y="422" on="0"/>
        <pt x="388" y="420" on="1"/>
        <pt x="459" y="398" on="0"/>
        <pt x="549" y="276" on="0"/>
        <pt x="549" y="204" on="1"/>
        <pt x="549" y="93" on="0"/>
        <pt x="425" y="-22" on="0"/>
        <pt x="308" y="-22" on="1"/>
        <pt x="268" y="-22" on="0"/>
        <pt x="233" y="-16" on="1"/>
        <pt x="146" y="-3" on="0"/>
        <pt x="69" y="41" on="1"/>
        <pt x="50" y="52" on="0"/>
        <pt x="49" y="57" on="1"/>
        <pt x="49" y="58" on="0"/>
        <pt x="52" y="74" on="0"/>
        <pt x="57" y="108" on="0"/>
        <pt x="60" y="125" on="1"/>
        <pt x="72" y="189" on="1"/>
        <pt x="75" y="193" on="1"/>
        <pt x="80" y="196" on="0"/>
        <pt x="88" y="196" on="0"/>
        <pt x="98" y="187" on="1"/>
        <pt x="158" y="130" on="0"/>
        <pt x="233" y="111" on="1"/>
        <pt x="268" y="102" on="0"/>
      </contour>
    </TTGlyph>
    <TTGlyph name="Sigma" xMin="61" yMin="0" xMax="732" yMax="694">
      <contour>
        <pt x="322" y="124" on="1"/>
        <pt x="647" y="127" on="0"/>
        <pt x="672" y="127" on="1"/>
        <pt x="683" y="127" on="0"/>
        <pt x="699" y="126" on="0"/>
        <pt x="705" y="126" on="0"/>
        <pt x="706" y="126" on="1"/>
        <pt x="724" y="120" on="0"/>
        <pt x="730" y="102" on="1"/>
        <pt x="732" y="96" on="0"/>
        <pt x="732" y="64" on="1"/>
        <pt x="732" y="31" on="0"/>
        <pt x="730" y="25" on="1"/>
        <pt x="724" y="6" on="0"/>
        <pt x="706" y="2" on="1"/>
        <pt x="701" y="0" on="0"/>
        <pt x="394" y="0" on="1"/>
        <pt x="89" y="1" on="1"/>
        <pt x="62" y="8" on="0"/>
        <pt x="62" y="36" on="1"/>
        <pt x="62" y="45" on="0"/>
        <pt x="65" y="51" on="1"/>
        <pt x="67" y="56" on="0"/>
        <pt x="186" y="197" on="0"/>
        <pt x="302" y="334" on="0"/>
        <pt x="302" y="336" on="1"/>
        <pt x="250" y="393" on="0"/>
        <pt x="187" y="463" on="1"/>
        <pt x="74" y="584" on="0"/>
        <pt x="68" y="594" on="1"/>
        <pt x="61" y="603" on="0"/>
        <pt x="61" y="639" on="1"/>
        <pt x="62" y="667" on="1"/>
        <pt x="68" y="685" on="0"/>
        <pt x="88" y="693" on="1"/>
        <pt x="91" y="694" on="0"/>
        <pt x="701" y="694" on="0"/>
        <pt x="706" y="692" on="1"/>
        <pt x="725" y="687" on="0"/>
        <pt x="730" y="669" on="1"/>
        <pt x="732" y="664" on="0"/>
        <pt x="732" y="635" on="1"/>
        <pt x="732" y="605" on="0"/>
        <pt x="730" y="600" on="1"/>
        <pt x="724" y="582" on="0"/>
        <pt x="706" y="576" on="1"/>
        <pt x="705" y="576" on="0"/>
        <pt x="699" y="576" on="0"/>
        <pt x="682" y="575" on="0"/>
        <pt x="670" y="575" on="1"/>
        <pt x="302" y="578" on="1"/>
        <pt x="490" y="371" on="1"/>
        <pt x="498" y="362" on="0"/>
        <pt x="498" y="347" on="1"/>
        <pt x="498" y="336" on="0"/>
        <pt x="478" y="309" on="0"/>
        <pt x="408" y="226" on="1"/>
      </contour>
    </TTGlyph>
    <TTGlyph name="T" xMin="40" yMin="0" xMax="692" yMax="688">
      <contour>
        <pt x="67" y="687" on="1"/>
        <pt x="70" y="688" on="0"/>
        <pt x="366" y="688" on="1"/>
        <pt x="661" y="688" on="0"/>
        <pt x="666" y="686" on="1"/>
        <pt x="685" y="681" on="0"/>
        <pt x="690" y="663" on="1"/>
        <pt x="692" y="658" on="0"/>
        <pt x="692" y="629" on="1"/>
        <pt x="692" y="599" on="0"/>
        <pt x="690" y="594" on="1"/>
        <pt x="682" y="569" on="0"/>
        <pt x="648" y="569" on="1"/>
        <pt x="645" y="569" on="0"/>
        <pt x="602" y="570" on="0"/>
        <pt x="581" y="570" on="1"/>
        <pt x="505" y="570" on="0"/>
        <pt x="475" y="572" on="1"/>
        <pt x="447" y="572" on="1"/>
        <pt x="447" y="302" on="1"/>
        <pt x="447" y="31" on="0"/>
        <pt x="445" y="25" on="1"/>
        <pt x="439" y="6" on="0"/>
        <pt x="421" y="2" on="1"/>
        <pt x="416" y="0" on="0"/>
        <pt x="364" y="0" on="1"/>
        <pt x="313" y="1" on="1"/>
        <pt x="294" y="7" on="0"/>
        <pt x="286" y="28" on="1"/>
        <pt x="285" y="300" on="1"/>
        <pt x="285" y="572" on="1"/>
        <pt x="257" y="572" on="1"/>
        <pt x="227" y="570" on="0"/>
        <pt x="151" y="570" on="1"/>
        <pt x="130" y="570" on="0"/>
        <pt x="87" y="569" on="0"/>
        <pt x="84" y="569" on="1"/>
        <pt x="77" y="569" on="0"/>
        <pt x="72" y="570" on="1"/>
        <pt x="66" y="570" on="1"/>
        <pt x="48" y="577" on="0"/>
        <pt x="40" y="598" on="0"/>
        <pt x="40" y="631" on="1"/>
        <pt x="41" y="661" on="1"/>
        <pt x="47" y="679" on="0"/>
      </contour>
    </TTGlyph>
    <TTGlyph name="Theta" xMin="62" yMin="-22" xMax="793" yMax="716">
      <contour>
        <pt x="62" y="340" on="1"/>
        <pt x="62" y="716" on="0"/>
        <pt x="425" y="716" on="1"/>
        <pt x="793" y="716" on="0"/>
        <pt x="793" y="341" on="1"/>
        <pt x="793" y="-22" on="0"/>
        <pt x="428" y="-22" on="1"/>
        <pt x="62" y="-22" on="0"/>
      </contour>
      <contour>
        <pt x="428" y="69" on="1"/>
        <pt x="543" y="69" on="0"/>
        <pt x="638" y="202" on="0"/>
        <pt x="638" y="333" on="1"/>
        <pt x="638" y="482" on="0"/>
        <pt x="594" y="552" on="1"/>
        <pt x="542" y="629" on="0"/>
        <pt x="427" y="629" on="1"/>
        <pt x="340" y="629" on="0"/>
        <pt x="288" y="583" on="1"/>
        <pt x="257" y="555" on="0"/>
        <pt x="240" y="511" on="1"/>
        <pt x="217" y="453" on="0"/>
        <pt x="217" y="345" on="1"/>
        <pt x="217" y="207" on="0"/>
        <pt x="309" y="69" on="0"/>
      </contour>
      <contour>
        <pt x="305" y="420" on="1"/>
        <pt x="309" y="422" on="0"/>
        <pt x="545" y="422" on="0"/>
        <pt x="550" y="420" on="1"/>
        <pt x="569" y="415" on="0"/>
        <pt x="574" y="397" on="1"/>
        <pt x="576" y="391" on="0"/>
        <pt x="576" y="349" on="1"/>
        <pt x="576" y="306" on="0"/>
        <pt x="574" y="300" on="1"/>
        <pt x="569" y="282" on="0"/>
        <pt x="550" y="277" on="1"/>
        <pt x="545" y="275" on="0"/>
        <pt x="428" y="275" on="1"/>
        <pt x="310" y="275" on="0"/>
        <pt x="305" y="277" on="1"/>
        <pt x="286" y="282" on="0"/>
        <pt x="281" y="300" on="1"/>
        <pt x="279" y="306" on="0"/>
        <pt x="279" y="349" on="1"/>
        <pt x="279" y="391" on="0"/>
        <pt x="281" y="397" on="1"/>
        <pt x="286" y="415" on="0"/>
      </contour>
    </TTGlyph>
    <TTGlyph name="U" xMin="92" yMin="-22" xMax="672" yMax="694">
      <contour>
        <pt x="92" y="667" on="1"/>
        <pt x="98" y="685" on="0"/>
        <pt x="118" y="693" on="1"/>
        <pt x="120" y="694" on="0"/>
        <pt x="172" y="694" on="1"/>
        <pt x="222" y="694" on="0"/>
        <pt x="227" y="692" on="1"/>
        <pt x="245" y="687" on="0"/>
        <pt x="251" y="671" on="1"/>
        <pt x="253" y="663" on="0"/>
        <pt x="253" y="430" on="1"/>
        <pt x="254" y="189" on="0"/>
        <pt x="255" y="185" on="1"/>
        <pt x="263" y="127" on="0"/>
        <pt x="322" y="79" on="0"/>
        <pt x="384" y="79" on="1"/>
        <pt x="498" y="79" on="0"/>
        <pt x="516" y="168" on="1"/>
        <pt x="520" y="191" on="0"/>
        <pt x="521" y="431" on="1"/>
        <pt x="521" y="663" on="0"/>
        <pt x="523" y="671" on="1"/>
        <pt x="529" y="687" on="0"/>
        <pt x="547" y="692" on="1"/>
        <pt x="552" y="694" on="0"/>
        <pt x="596" y="694" on="1"/>
        <pt x="647" y="694" on="0"/>
        <pt x="655" y="688" on="1"/>
        <pt x="660" y="685" on="0"/>
        <pt x="665" y="679" on="1"/>
        <pt x="671" y="672" on="0"/>
        <pt x="671" y="653" on="1"/>
        <pt x="672" y="632" on="0"/>
        <pt x="672" y="555" on="1"/>
        <pt x="672" y="432" on="1"/>
        <pt x="671" y="200" on="0"/>
        <pt x="670" y="190" on="1"/>
        <pt x="637" y="-22" on="0"/>
        <pt x="383" y="-22" on="1"/>
        <pt x="137" y="-22" on="0"/>
        <pt x="98" y="166" on="1"/>
        <pt x="92" y="195" on="0"/>
        <pt x="92" y="303" on="1"/>
      </contour>
    </TTGlyph>
    <TTGlyph name="Upsilon" xMin="62" yMin="0" xMax="793" yMax="715">
      <contour>
        <pt x="88" y="520" on="1"/>
        <pt x="73" y="527" on="0"/>
        <pt x="62" y="541" on="0"/>
        <pt x="62" y="560" on="1"/>
        <pt x="62" y="613" on="0"/>
        <pt x="101" y="652" on="1"/>
        <pt x="150" y="704" on="0"/>
        <pt x="239" y="715" on="1"/>
        <pt x="253" y="715" on="1"/>
        <pt x="278" y="715" on="0"/>
        <pt x="294" y="713" on="1"/>
        <pt x="363" y="698" on="0"/>
        <pt x="398" y="625" on="1"/>
        <pt x="416" y="591" on="0"/>
        <pt x="428" y="540" on="1"/>
        <pt x="430" y="542" on="0"/>
        <pt x="433" y="557" on="1"/>
        <pt x="451" y="632" on="0"/>
        <pt x="491" y="674" on="1"/>
        <pt x="512" y="696" on="0"/>
        <pt x="557" y="715" on="0"/>
        <pt x="593" y="715" on="1"/>
        <pt x="652" y="715" on="0"/>
        <pt x="700" y="692" on="1"/>
        <pt x="739" y="672" on="0"/>
        <pt x="793" y="602" on="0"/>
        <pt x="793" y="560" on="1"/>
        <pt x="793" y="541" on="0"/>
        <pt x="782" y="527" on="0"/>
        <pt x="767" y="520" on="1"/>
        <pt x="670" y="520" on="1"/>
        <pt x="644" y="534" on="0"/>
        <pt x="643" y="555" on="1"/>
        <pt x="642" y="574" on="0"/>
        <pt x="612" y="594" on="0"/>
        <pt x="591" y="594" on="1"/>
        <pt x="566" y="594" on="0"/>
        <pt x="549" y="577" on="1"/>
        <pt x="514" y="542" on="0"/>
        <pt x="510" y="425" on="1"/>
        <pt x="509" y="411" on="0"/>
        <pt x="509" y="216" on="1"/>
        <pt x="509" y="31" on="0"/>
        <pt x="507" y="25" on="1"/>
        <pt x="501" y="6" on="0"/>
        <pt x="483" y="2" on="1"/>
        <pt x="478" y="0" on="0"/>
        <pt x="426" y="0" on="1"/>
        <pt x="375" y="1" on="1"/>
        <pt x="356" y="7" on="0"/>
        <pt x="348" y="28" on="1"/>
        <pt x="347" y="232" on="1"/>
        <pt x="346" y="344" on="0"/>
        <pt x="346" y="441" on="1"/>
        <pt x="346" y="442" on="0"/>
        <pt x="345" y="448" on="0"/>
        <pt x="344" y="457" on="0"/>
        <pt x="344" y="460" on="1"/>
        <pt x="335" y="580" on="0"/>
        <pt x="279" y="593" on="1"/>
        <pt x="276" y="594" on="0"/>
        <pt x="266" y="594" on="1"/>
        <pt x="252" y="594" on="0"/>
        <pt x="247" y="593" on="1"/>
        <pt x="214" y="580" on="0"/>
        <pt x="212" y="555" on="1"/>
        <pt x="211" y="534" on="0"/>
        <pt x="185" y="520" on="1"/>
      </contour>
    </TTGlyph>
    <TTGlyph name="V" xMin="27" yMin="1" xMax="705" yMax="694">
      <contour>
        <pt x="44" y="692" on="1"/>
        <pt x="48" y="694" on="0"/>
        <pt x="101" y="694" on="1"/>
        <pt x="155" y="694" on="0"/>
        <pt x="159" y="692" on="1"/>
        <pt x="182" y="687" on="0"/>
        <pt x="194" y="665" on="1"/>
        <pt x="197" y="660" on="0"/>
        <pt x="275" y="441" on="1"/>
        <pt x="360" y="199" on="0"/>
        <pt x="370" y="154" on="1"/>
        <pt x="374" y="142" on="1"/>
        <pt x="376" y="165" on="0"/>
        <pt x="473" y="445" on="1"/>
        <pt x="552" y="664" on="0"/>
        <pt x="553" y="666" on="1"/>
        <pt x="565" y="687" on="0"/>
        <pt x="588" y="692" on="1"/>
        <pt x="593" y="694" on="0"/>
        <pt x="639" y="694" on="1"/>
        <pt x="684" y="694" on="0"/>
        <pt x="687" y="692" on="1"/>
        <pt x="705" y="687" on="0"/>
        <pt x="705" y="667" on="1"/>
        <pt x="705" y="660" on="0"/>
        <pt x="592" y="347" on="1"/>
        <pt x="481" y="32" on="0"/>
        <pt x="477" y="28" on="1"/>
        <pt x="466" y="9" on="0"/>
        <pt x="441" y="1" on="1"/>
        <pt x="292" y="1" on="1"/>
        <pt x="266" y="9" on="0"/>
        <pt x="255" y="28" on="1"/>
        <pt x="251" y="32" on="0"/>
        <pt x="140" y="347" on="1"/>
        <pt x="27" y="660" on="0"/>
        <pt x="27" y="667" on="1"/>
        <pt x="27" y="687" on="0"/>
      </contour>
    </TTGlyph>
    <TTGlyph name="W" xMin="24" yMin="0" xMax="1014" yMax="694">
      <contour>
        <pt x="994" y="694" on="1"/>
        <pt x="1013" y="684" on="0"/>
        <pt x="1014" y="668" on="1"/>
        <pt x="1014" y="661" on="0"/>
        <pt x="939" y="377" on="0"/>
        <pt x="852" y="56" on="0"/>
        <pt x="845" y="26" on="1"/>
        <pt x="834" y="7" on="0"/>
        <pt x="814" y="2" on="1"/>
        <pt x="808" y="0" on="0"/>
        <pt x="747" y="0" on="1"/>
        <pt x="680" y="0" on="0"/>
        <pt x="669" y="6" on="1"/>
        <pt x="657" y="12" on="0"/>
        <pt x="649" y="26" on="1"/>
        <pt x="645" y="34" on="0"/>
        <pt x="595" y="228" on="1"/>
        <pt x="524" y="497" on="0"/>
        <pt x="517" y="548" on="1"/>
        <pt x="516" y="552" on="0"/>
        <pt x="516" y="551" on="1"/>
        <pt x="503" y="479" on="0"/>
        <pt x="437" y="227" on="1"/>
        <pt x="389" y="37" on="0"/>
        <pt x="383" y="26" on="1"/>
        <pt x="371" y="6" on="0"/>
        <pt x="350" y="1" on="1"/>
        <pt x="347" y="0" on="0"/>
        <pt x="288" y="0" on="1"/>
        <pt x="230" y="0" on="0"/>
        <pt x="224" y="2" on="1"/>
        <pt x="204" y="7" on="0"/>
        <pt x="193" y="26" on="1"/>
        <pt x="191" y="32" on="0"/>
        <pt x="24" y="661" on="0"/>
        <pt x="24" y="665" on="1"/>
        <pt x="24" y="685" on="0"/>
        <pt x="44" y="693" on="1"/>
        <pt x="47" y="694" on="0"/>
        <pt x="98" y="694" on="1"/>
        <pt x="132" y="694" on="0"/>
        <pt x="135" y="693" on="1"/>
        <pt x="156" y="688" on="0"/>
        <pt x="168" y="668" on="1"/>
        <pt x="172" y="660" on="0"/>
        <pt x="220" y="476" on="1"/>
        <pt x="297" y="178" on="0"/>
        <pt x="297" y="144" on="1"/>
        <pt x="297" y="134" on="0"/>
        <pt x="300" y="153" on="1"/>
        <pt x="308" y="216" on="0"/>
        <pt x="383" y="504" on="1"/>
        <pt x="423" y="655" on="0"/>
        <pt x="427" y="668" on="1"/>
        <pt x="438" y="687" on="0"/>
        <pt x="458" y="692" on="1"/>
        <pt x="464" y="694" on="0"/>
        <pt x="523" y="694" on="1"/>
        <pt x="586" y="694" on="0"/>
        <pt x="597" y="688" on="1"/>
        <pt x="609" y="683" on="0"/>
        <pt x="618" y="668" on="1"/>
        <pt x="622" y="660" on="0"/>
        <pt x="673" y="462" on="1"/>
        <pt x="744" y="194" on="0"/>
        <pt x="750" y="146" on="1"/>
        <pt x="750" y="140" on="1"/>
        <pt x="773" y="255" on="0"/>
        <pt x="862" y="592" on="1"/>
        <pt x="878" y="655" on="0"/>
        <pt x="883" y="668" on="1"/>
        <pt x="893" y="688" on="0"/>
        <pt x="916" y="693" on="1"/>
        <pt x="920" y="694" on="0"/>
        <pt x="958" y="694" on="1"/>
      </contour>
    </TTGlyph>
    <TTGlyph name="X" xMin="37" yMin="0" xMax="694" yMax="694">
      <contour>
        <pt x="39" y="32" on="1"/>
        <pt x="275" y="369" on="1"/>
        <pt x="275" y="370" on="0"/>
        <pt x="167" y="513" on="0"/>
        <pt x="57" y="660" on="0"/>
        <pt x="55" y="663" on="1"/>
        <pt x="53" y="669" on="0"/>
        <pt x="53" y="671" on="1"/>
        <pt x="53" y="686" on="0"/>
        <pt x="68" y="693" on="1"/>
        <pt x="72" y="693" on="1"/>
        <pt x="77" y="693" on="0"/>
        <pt x="91" y="694" on="0"/>
        <pt x="108" y="694" on="0"/>
        <pt x="129" y="694" on="0"/>
        <pt x="139" y="694" on="1"/>
        <pt x="154" y="694" on="0"/>
        <pt x="188" y="694" on="0"/>
        <pt x="199" y="694" on="1"/>
        <pt x="210" y="693" on="1"/>
        <pt x="223" y="689" on="0"/>
        <pt x="230" y="682" on="1"/>
        <pt x="235" y="675" on="0"/>
        <pt x="253" y="649" on="0"/>
        <pt x="315" y="565" on="0"/>
        <pt x="358" y="504" on="1"/>
        <pt x="427" y="604" on="0"/>
        <pt x="468" y="664" on="1"/>
        <pt x="478" y="679" on="0"/>
        <pt x="481" y="682" on="1"/>
        <pt x="492" y="691" on="0"/>
        <pt x="499" y="692" on="1"/>
        <pt x="505" y="694" on="0"/>
        <pt x="569" y="694" on="1"/>
        <pt x="632" y="694" on="1"/>
        <pt x="650" y="683" on="0"/>
        <pt x="650" y="672" on="1"/>
        <pt x="650" y="665" on="0"/>
        <pt x="646" y="660" on="1"/>
        <pt x="643" y="654" on="0"/>
        <pt x="540" y="509" on="0"/>
        <pt x="441" y="370" on="0"/>
        <pt x="441" y="368" on="0"/>
        <pt x="691" y="33" on="0"/>
        <pt x="693" y="29" on="1"/>
        <pt x="694" y="27" on="0"/>
        <pt x="694" y="23" on="1"/>
        <pt x="694" y="9" on="0"/>
        <pt x="677" y="0" on="1"/>
        <pt x="607" y="0" on="1"/>
        <pt x="537" y="1" on="1"/>
        <pt x="524" y="6" on="0"/>
        <pt x="519" y="10" on="1"/>
        <pt x="515" y="14" on="0"/>
        <pt x="437" y="131" on="1"/>
        <pt x="422" y="153" on="0"/>
        <pt x="399" y="187" on="0"/>
        <pt x="381" y="214" on="0"/>
        <pt x="369" y="231" on="0"/>
        <pt x="361" y="243" on="0"/>
        <pt x="359" y="245" on="1"/>
        <pt x="357" y="247" on="1"/>
        <pt x="348" y="232" on="1"/>
        <pt x="339" y="218" on="0"/>
        <pt x="299" y="157" on="0"/>
        <pt x="283" y="131" on="1"/>
        <pt x="209" y="16" on="0"/>
        <pt x="202" y="9" on="1"/>
        <pt x="197" y="5" on="0"/>
        <pt x="186" y="1" on="1"/>
        <pt x="52" y="1" on="1"/>
        <pt x="37" y="12" on="0"/>
        <pt x="37" y="23" on="1"/>
        <pt x="37" y="26" on="0"/>
      </contour>
    </TTGlyph>
    <TTGlyph name="Xi" xMin="46" yMin="0" xMax="686" yMax="688">
      <contour>
        <pt x="627" y="553" on="1"/>
        <pt x="606" y="553" on="0"/>
        <pt x="398" y="555" on="0"/>
        <pt x="334" y="555" on="0"/>
        <pt x="127" y="553" on="0"/>
        <pt x="105" y="553" on="1"/>
        <pt x="96" y="553" on="0"/>
        <pt x="84" y="554" on="0"/>
        <pt x="79" y="554" on="0"/>
        <pt x="78" y="554" on="1"/>
        <pt x="57" y="562" on="0"/>
        <pt x="54" y="579" on="1"/>
        <pt x="52" y="585" on="0"/>
        <pt x="52" y="623" on="1"/>
        <pt x="53" y="661" on="1"/>
        <pt x="59" y="679" on="0"/>
        <pt x="79" y="687" on="1"/>
        <pt x="82" y="688" on="0"/>
        <pt x="366" y="688" on="1"/>
        <pt x="649" y="688" on="0"/>
        <pt x="654" y="686" on="1"/>
        <pt x="673" y="681" on="0"/>
        <pt x="678" y="663" on="1"/>
        <pt x="680" y="657" on="0"/>
        <pt x="680" y="621" on="1"/>
        <pt x="680" y="584" on="0"/>
        <pt x="678" y="578" on="1"/>
        <pt x="672" y="560" on="0"/>
        <pt x="654" y="554" on="1"/>
        <pt x="653" y="554" on="0"/>
        <pt x="648" y="554" on="0"/>
        <pt x="636" y="553" on="0"/>
      </contour>
      <contour>
        <pt x="149" y="423" on="1"/>
        <pt x="152" y="424" on="0"/>
        <pt x="366" y="424" on="1"/>
        <pt x="579" y="424" on="0"/>
        <pt x="584" y="422" on="1"/>
        <pt x="603" y="417" on="0"/>
        <pt x="608" y="399" on="1"/>
        <pt x="610" y="393" on="0"/>
        <pt x="610" y="358" on="1"/>
        <pt x="610" y="322" on="0"/>
        <pt x="608" y="316" on="1"/>
        <pt x="603" y="298" on="0"/>
        <pt x="584" y="293" on="1"/>
        <pt x="579" y="291" on="0"/>
        <pt x="366" y="291" on="1"/>
        <pt x="195" y="291" on="0"/>
        <pt x="146" y="292" on="0"/>
        <pt x="139" y="297" on="1"/>
        <pt x="134" y="300" on="0"/>
        <pt x="129" y="306" on="1"/>
        <pt x="122" y="315" on="0"/>
        <pt x="122" y="360" on="1"/>
        <pt x="123" y="397" on="1"/>
        <pt x="129" y="415" on="0"/>
      </contour>
      <contour>
        <pt x="108" y="135" on="1"/>
        <pt x="130" y="135" on="0"/>
        <pt x="328" y="133" on="0"/>
        <pt x="363" y="133" on="1"/>
        <pt x="395" y="133" on="0"/>
        <pt x="610" y="135" on="0"/>
        <pt x="632" y="135" on="1"/>
        <pt x="641" y="135" on="0"/>
        <pt x="654" y="134" on="0"/>
        <pt x="659" y="134" on="0"/>
        <pt x="660" y="134" on="1"/>
        <pt x="678" y="128" on="0"/>
        <pt x="684" y="110" on="1"/>
        <pt x="686" y="104" on="0"/>
        <pt x="686" y="68" on="1"/>
        <pt x="686" y="31" on="0"/>
        <pt x="684" y="25" on="1"/>
        <pt x="678" y="6" on="0"/>
        <pt x="660" y="2" on="1"/>
        <pt x="655" y="0" on="0"/>
        <pt x="364" y="0" on="1"/>
        <pt x="74" y="1" on="1"/>
        <pt x="53" y="9" on="0"/>
        <pt x="47" y="28" on="1"/>
        <pt x="46" y="65" on="1"/>
        <pt x="46" y="103" on="0"/>
        <pt x="48" y="109" on="1"/>
        <pt x="53" y="128" on="0"/>
        <pt x="72" y="133" on="1"/>
        <pt x="80" y="135" on="0"/>
      </contour>
    </TTGlyph>
    <TTGlyph name="Y" xMin="24" yMin="0" xMax="708" yMax="694">
      <contour>
        <pt x="24" y="671" on="1"/>
        <pt x="24" y="687" on="0"/>
        <pt x="39" y="693" on="1"/>
        <pt x="42" y="694" on="0"/>
        <pt x="105" y="694" on="1"/>
        <pt x="167" y="693" on="0"/>
        <pt x="174" y="691" on="1"/>
        <pt x="197" y="685" on="0"/>
        <pt x="214" y="666" on="1"/>
        <pt x="225" y="654" on="0"/>
        <pt x="336" y="485" on="1"/>
        <pt x="373" y="425" on="0"/>
        <pt x="373" y="420" on="1"/>
        <pt x="374" y="418" on="1"/>
        <pt x="375" y="419" on="0"/>
        <pt x="375" y="421" on="1"/>
        <pt x="376" y="426" on="0"/>
        <pt x="402" y="469" on="1"/>
        <pt x="424" y="503" on="0"/>
        <pt x="530" y="661" on="0"/>
        <pt x="536" y="667" on="1"/>
        <pt x="548" y="682" on="0"/>
        <pt x="575" y="691" on="1"/>
        <pt x="582" y="693" on="0"/>
        <pt x="635" y="694" on="1"/>
        <pt x="689" y="694" on="0"/>
        <pt x="692" y="693" on="1"/>
        <pt x="708" y="689" on="0"/>
        <pt x="708" y="670" on="1"/>
        <pt x="708" y="664" on="0"/>
        <pt x="704" y="658" on="1"/>
        <pt x="695" y="645" on="0"/>
        <pt x="573" y="465" on="1"/>
        <pt x="446" y="278" on="1"/>
        <pt x="445" y="152" on="1"/>
        <pt x="445" y="27" on="1"/>
        <pt x="436" y="7" on="0"/>
        <pt x="419" y="1" on="1"/>
        <pt x="368" y="0" on="1"/>
        <pt x="323" y="0" on="0"/>
        <pt x="306" y="2" on="0"/>
        <pt x="298" y="10" on="1"/>
        <pt x="291" y="17" on="0"/>
        <pt x="288" y="26" on="1"/>
        <pt x="286" y="31" on="0"/>
        <pt x="286" y="154" on="1"/>
        <pt x="286" y="278" on="1"/>
        <pt x="157" y="468" on="1"/>
        <pt x="28" y="657" on="0"/>
        <pt x="26" y="661" on="1"/>
        <pt x="24" y="664" on="0"/>
      </contour>
    </TTGlyph>
    <TTGlyph name="Z" xMin="61" yMin="0" xMax="616" yMax="694">
      <contour>
        <pt x="411" y="584" on="1"/>
        <pt x="152" y="581" on="0"/>
        <pt x="131" y="581" on="1"/>
        <pt x="122" y="581" on="0"/>
        <pt x="109" y="582" on="0"/>
        <pt x="103" y="582" on="0"/>
        <pt x="102" y="582" on="1"/>
        <pt x="85" y="589" on="0"/>
        <pt x="76" y="610" on="0"/>
        <pt x="76" y="640" on="1"/>
        <pt x="77" y="667" on="1"/>
        <pt x="83" y="685" on="0"/>
        <pt x="103" y="693" on="1"/>
        <pt x="106" y="694" on="0"/>
        <pt x="343" y="694" on="1"/>
        <pt x="579" y="694" on="0"/>
        <pt x="584" y="692" on="1"/>
        <pt x="592" y="691" on="0"/>
        <pt x="607" y="676" on="0"/>
        <pt x="609" y="668" on="1"/>
        <pt x="610" y="665" on="0"/>
        <pt x="610" y="646" on="1"/>
        <pt x="610" y="614" on="0"/>
        <pt x="608" y="608" on="1"/>
        <pt x="607" y="606" on="0"/>
        <pt x="261" y="116" on="1"/>
        <pt x="536" y="120" on="0"/>
        <pt x="560" y="120" on="1"/>
        <pt x="568" y="120" on="0"/>
        <pt x="581" y="120" on="0"/>
        <pt x="584" y="120" on="1"/>
        <pt x="588" y="119" on="1"/>
        <pt x="608" y="114" on="0"/>
        <pt x="614" y="95" on="1"/>
        <pt x="616" y="89" on="0"/>
        <pt x="616" y="60" on="1"/>
        <pt x="616" y="30" on="0"/>
        <pt x="614" y="25" on="1"/>
        <pt x="609" y="7" on="0"/>
        <pt x="590" y="2" on="1"/>
        <pt x="585" y="0" on="0"/>
        <pt x="339" y="0" on="1"/>
        <pt x="92" y="0" on="0"/>
        <pt x="87" y="2" on="1"/>
        <pt x="79" y="3" on="0"/>
        <pt x="64" y="18" on="0"/>
        <pt x="62" y="26" on="1"/>
        <pt x="61" y="29" on="0"/>
        <pt x="61" y="49" on="1"/>
        <pt x="61" y="84" on="0"/>
        <pt x="63" y="90" on="1"/>
        <pt x="65" y="94" on="0"/>
        <pt x="239" y="340" on="0"/>
        <pt x="411" y="582" on="0"/>
      </contour>
    </TTGlyph>
    <TTGlyph name="a" xMin="31" yMin="-11" xMax="472" yMax="475">
      <contour>
        <pt x="321" y="309" on="1"/>
        <pt x="321" y="355" on="0"/>
        <pt x="294" y="394" on="0"/>
        <pt x="255" y="394" on="1"/>
        <pt x="171" y="394" on="0"/>
        <pt x="108" y="332" on="1"/>
        <pt x="97" y="321" on="0"/>
        <pt x="94" y="321" on="1"/>
        <pt x="84" y="319" on="0"/>
        <pt x="81" y="327" on="1"/>
        <pt x="72" y="410" on="0"/>
        <pt x="72" y="420" on="1"/>
        <pt x="72" y="423" on="0"/>
        <pt x="73" y="428" on="0"/>
        <pt x="73" y="430" on="0"/>
        <pt x="76" y="433" on="0"/>
        <pt x="78" y="434" on="0"/>
        <pt x="83" y="436" on="0"/>
        <pt x="85" y="437" on="1"/>
        <pt x="164" y="475" on="0"/>
        <pt x="262" y="475" on="1"/>
        <pt x="452" y="475" on="0"/>
        <pt x="471" y="341" on="1"/>
        <pt x="472" y="332" on="0"/>
        <pt x="472" y="181" on="1"/>
        <pt x="472" y="31" on="0"/>
        <pt x="470" y="25" on="1"/>
        <pt x="465" y="7" on="0"/>
        <pt x="446" y="2" on="1"/>
        <pt x="442" y="0" on="0"/>
        <pt x="398" y="0" on="1"/>
        <pt x="373" y="0" on="0"/>
        <pt x="353" y="2" on="0"/>
        <pt x="330" y="10" on="0"/>
        <pt x="324" y="30" on="0"/>
        <pt x="324" y="48" on="1"/>
        <pt x="324" y="65" on="1"/>
        <pt x="300" y="33" on="0"/>
        <pt x="215" y="-11" on="0"/>
        <pt x="172" y="-11" on="1"/>
        <pt x="115" y="-11" on="0"/>
        <pt x="76" y="31" on="1"/>
        <pt x="31" y="76" on="0"/>
        <pt x="31" y="145" on="1"/>
        <pt x="31" y="188" on="0"/>
        <pt x="91" y="247" on="0"/>
        <pt x="135" y="261" on="1"/>
        <pt x="202" y="283" on="0"/>
        <pt x="307" y="289" on="1"/>
        <pt x="321" y="289" on="1"/>
      </contour>
      <contour>
        <pt x="231" y="77" on="1"/>
        <pt x="271" y="77" on="0"/>
        <pt x="321" y="136" on="0"/>
        <pt x="321" y="178" on="1"/>
        <pt x="321" y="201" on="1"/>
        <pt x="321" y="234" on="1"/>
        <pt x="308" y="232" on="1"/>
        <pt x="197" y="223" on="0"/>
        <pt x="178" y="164" on="1"/>
        <pt x="176" y="156" on="0"/>
        <pt x="176" y="146" on="1"/>
        <pt x="176" y="98" on="0"/>
        <pt x="212" y="80" on="1"/>
        <pt x="218" y="77" on="0"/>
      </contour>
    </TTGlyph>
    <TTGlyph name="acutecomb" xMin="-334" yMin="537" xMax="-93" yMax="694">
      <contour>
        <pt x="-100" y="694" on="1"/>
        <pt x="-93" y="685" on="0"/>
        <pt x="-93" y="681" on="1"/>
        <pt x="-93" y="678" on="0"/>
        <pt x="-94" y="677" on="1"/>
        <pt x="-95" y="675" on="0"/>
        <pt x="-252" y="539" on="0"/>
        <pt x="-255" y="538" on="1"/>
        <pt x="-256" y="537" on="0"/>
        <pt x="-290" y="537" on="1"/>
        <pt x="-318" y="537" on="0"/>
        <pt x="-329" y="538" on="0"/>
        <pt x="-332" y="543" on="1"/>
        <pt x="-334" y="547" on="0"/>
        <pt x="-334" y="549" on="1"/>
        <pt x="-334" y="554" on="0"/>
        <pt x="-330" y="559" on="1"/>
        <pt x="-324" y="568" on="0"/>
        <pt x="-243" y="688" on="0"/>
        <pt x="-241" y="690" on="1"/>
        <pt x="-240" y="690" on="0"/>
        <pt x="-237" y="693" on="0"/>
        <pt x="-236" y="693" on="1"/>
        <pt x="-235" y="694" on="0"/>
        <pt x="-167" y="694" on="1"/>
      </contour>
    </TTGlyph>
    <TTGlyph name="ampersand" xMin="47" yMin="-22" xMax="769" yMax="716">
      <contour>
        <pt x="347" y="716" on="1"/>
        <pt x="420" y="716" on="0"/>
        <pt x="526" y="617" on="0"/>
        <pt x="526" y="543" on="1"/>
        <pt x="526" y="518" on="0"/>
        <pt x="512" y="486" on="1"/>
        <pt x="481" y="422" on="0"/>
        <pt x="360" y="343" on="1"/>
        <pt x="342" y="330" on="1"/>
        <pt x="342" y="325" on="0"/>
        <pt x="377" y="280" on="1"/>
        <pt x="413" y="234" on="0"/>
        <pt x="458" y="189" on="1"/>
        <pt x="467" y="181" on="1"/>
        <pt x="569" y="269" on="0"/>
        <pt x="614" y="419" on="1"/>
        <pt x="620" y="437" on="0"/>
        <pt x="620" y="437" on="1"/>
        <pt x="622" y="443" on="0"/>
        <pt x="630" y="443" on="1"/>
        <pt x="631" y="443" on="0"/>
        <pt x="679" y="430" on="1"/>
        <pt x="718" y="420" on="0"/>
        <pt x="732" y="415" on="0"/>
        <pt x="733" y="409" on="1"/>
        <pt x="733" y="401" on="0"/>
        <pt x="721" y="368" on="1"/>
        <pt x="673" y="226" on="0"/>
        <pt x="573" y="123" on="1"/>
        <pt x="562" y="111" on="0"/>
        <pt x="563" y="111" on="1"/>
        <pt x="564" y="110" on="0"/>
        <pt x="594" y="99" on="1"/>
        <pt x="613" y="94" on="0"/>
        <pt x="644" y="94" on="1"/>
        <pt x="702" y="94" on="0"/>
        <pt x="746" y="114" on="1"/>
        <pt x="757" y="119" on="0"/>
        <pt x="769" y="110" on="1"/>
        <pt x="769" y="3" on="1"/>
        <pt x="763" y="-3" on="0"/>
        <pt x="752" y="-6" on="1"/>
        <pt x="693" y="-22" on="0"/>
        <pt x="641" y="-22" on="1"/>
        <pt x="617" y="-22" on="0"/>
        <pt x="601" y="-20" on="1"/>
        <pt x="529" y="-10" on="0"/>
        <pt x="458" y="29" on="1"/>
        <pt x="453" y="31" on="1"/>
        <pt x="437" y="23" on="1"/>
        <pt x="350" y="-19" on="0"/>
        <pt x="257" y="-22" on="1"/>
        <pt x="178" y="-22" on="0"/>
        <pt x="70" y="49" on="0"/>
        <pt x="53" y="110" on="1"/>
        <pt x="47" y="129" on="0"/>
        <pt x="47" y="155" on="1"/>
        <pt x="47" y="226" on="0"/>
        <pt x="100" y="276" on="1"/>
        <pt x="115" y="291" on="0"/>
        <pt x="151" y="313" on="1"/>
        <pt x="158" y="318" on="0"/>
        <pt x="174" y="328" on="0"/>
        <pt x="183" y="334" on="0"/>
        <pt x="187" y="336" on="1"/>
        <pt x="181" y="349" on="1"/>
        <pt x="150" y="429" on="0"/>
        <pt x="150" y="506" on="1"/>
        <pt x="150" y="591" on="0"/>
        <pt x="249" y="705" on="0"/>
        <pt x="322" y="714" on="1"/>
        <pt x="338" y="716" on="0"/>
      </contour>
      <contour>
        <pt x="346" y="629" on="1"/>
        <pt x="317" y="629" on="0"/>
        <pt x="277" y="577" on="0"/>
        <pt x="277" y="538" on="1"/>
        <pt x="277" y="484" on="0"/>
        <pt x="295" y="429" on="1"/>
        <pt x="301" y="413" on="0"/>
        <pt x="301" y="412" on="1"/>
        <pt x="302" y="409" on="0"/>
        <pt x="309" y="415" on="1"/>
        <pt x="356" y="448" on="0"/>
        <pt x="378" y="481" on="1"/>
        <pt x="397" y="512" on="0"/>
        <pt x="397" y="544" on="1"/>
        <pt x="397" y="572" on="0"/>
        <pt x="376" y="618" on="0"/>
        <pt x="361" y="626" on="1"/>
        <pt x="355" y="629" on="0"/>
      </contour>
      <contour>
        <pt x="234" y="248" on="1"/>
        <pt x="227" y="258" on="1"/>
        <pt x="223" y="255" on="0"/>
        <pt x="220" y="251" on="1"/>
        <pt x="197" y="228" on="0"/>
        <pt x="197" y="177" on="1"/>
        <pt x="197" y="147" on="0"/>
        <pt x="218" y="100" on="0"/>
        <pt x="234" y="95" on="1"/>
        <pt x="242" y="93" on="0"/>
        <pt x="251" y="93" on="1"/>
        <pt x="286" y="93" on="0"/>
        <pt x="337" y="107" on="1"/>
        <pt x="349" y="110" on="1"/>
        <pt x="328" y="131" on="1"/>
        <pt x="266" y="196" on="0"/>
      </contour>
    </TTGlyph>
    <TTGlyph name="asciicircum" xMin="108" yMin="537" xMax="441" yMax="694">
      <contour>
        <pt x="108" y="550" on="1"/>
        <pt x="108" y="556" on="0"/>
        <pt x="216" y="691" on="0"/>
        <pt x="219" y="692" on="1"/>
        <pt x="221" y="694" on="0"/>
        <pt x="275" y="694" on="1"/>
        <pt x="328" y="694" on="0"/>
        <pt x="330" y="693" on="1"/>
        <pt x="331" y="692" on="0"/>
        <pt x="432" y="565" on="0"/>
        <pt x="438" y="557" on="1"/>
        <pt x="441" y="553" on="0"/>
        <pt x="441" y="545" on="0"/>
        <pt x="434" y="538" on="1"/>
        <pt x="399" y="537" on="1"/>
        <pt x="363" y="537" on="0"/>
        <pt x="362" y="538" on="1"/>
        <pt x="361" y="538" on="0"/>
        <pt x="318" y="575" on="1"/>
        <pt x="275" y="611" on="1"/>
        <pt x="274" y="611" on="0"/>
        <pt x="231" y="575" on="1"/>
        <pt x="188" y="538" on="0"/>
        <pt x="187" y="538" on="1"/>
        <pt x="186" y="537" on="0"/>
        <pt x="150" y="537" on="1"/>
        <pt x="115" y="538" on="1"/>
        <pt x="108" y="545" on="0"/>
      </contour>
    </TTGlyph>
    <TTGlyph name="asciitilde" xMin="92" yMin="198" xMax="457" yMax="344">
      <contour>
        <pt x="450" y="344" on="1"/>
        <pt x="456" y="336" on="0"/>
        <pt x="457" y="330" on="1"/>
        <pt x="457" y="276" on="0"/>
        <pt x="394" y="198" on="0"/>
        <pt x="344" y="198" on="1"/>
        <pt x="330" y="198" on="0"/>
        <pt x="316" y="201" on="1"/>
        <pt x="285" y="209" on="0"/>
        <pt x="248" y="237" on="1"/>
        <pt x="220" y="257" on="0"/>
        <pt x="206" y="257" on="1"/>
        <pt x="183" y="257" on="0"/>
        <pt x="179" y="215" on="1"/>
        <pt x="178" y="205" on="0"/>
        <pt x="172" y="199" on="1"/>
        <pt x="137" y="198" on="1"/>
        <pt x="108" y="198" on="0"/>
        <pt x="97" y="200" on="0"/>
        <pt x="94" y="204" on="1"/>
        <pt x="92" y="208" on="0"/>
        <pt x="92" y="215" on="1"/>
        <pt x="92" y="218" on="0"/>
        <pt x="94" y="232" on="1"/>
        <pt x="100" y="278" on="0"/>
        <pt x="159" y="344" on="0"/>
        <pt x="204" y="344" on="1"/>
        <pt x="228" y="344" on="0"/>
        <pt x="250" y="336" on="1"/>
        <pt x="273" y="327" on="0"/>
        <pt x="301" y="305" on="1"/>
        <pt x="329" y="285" on="0"/>
        <pt x="343" y="285" on="1"/>
        <pt x="366" y="285" on="0"/>
        <pt x="370" y="327" on="1"/>
        <pt x="371" y="336" on="0"/>
        <pt x="377" y="344" on="1"/>
      </contour>
    </TTGlyph>
    <TTGlyph name="asterisk" xMin="67" yMin="293" xMax="482" yMax="750">
      <contour>
        <pt x="215" y="702" on="1"/>
        <pt x="215" y="721" on="0"/>
        <pt x="249" y="750" on="0"/>
        <pt x="271" y="750" on="1"/>
        <pt x="295" y="750" on="0"/>
        <pt x="334" y="722" on="0"/>
        <pt x="334" y="702" on="1"/>
        <pt x="334" y="697" on="1"/>
        <pt x="321" y="638" on="1"/>
        <pt x="308" y="580" on="0"/>
        <pt x="308" y="579" on="1"/>
        <pt x="328" y="598" on="0"/>
        <pt x="352" y="620" on="1"/>
        <pt x="389" y="654" on="0"/>
        <pt x="406" y="667" on="0"/>
        <pt x="417" y="668" on="1"/>
        <pt x="445" y="668" on="0"/>
        <pt x="482" y="630" on="0"/>
        <pt x="482" y="602" on="1"/>
        <pt x="482" y="571" on="0"/>
        <pt x="458" y="558" on="1"/>
        <pt x="457" y="558" on="0"/>
        <pt x="343" y="522" on="0"/>
        <pt x="342" y="521" on="1"/>
        <pt x="458" y="484" on="1"/>
        <pt x="482" y="471" on="0"/>
        <pt x="482" y="440" on="1"/>
        <pt x="482" y="412" on="0"/>
        <pt x="445" y="374" on="0"/>
        <pt x="417" y="374" on="1"/>
        <pt x="406" y="375" on="0"/>
        <pt x="389" y="388" on="0"/>
        <pt x="352" y="422" on="1"/>
        <pt x="308" y="463" on="1"/>
        <pt x="308" y="462" on="0"/>
        <pt x="334" y="346" on="0"/>
        <pt x="334" y="345" on="1"/>
        <pt x="334" y="339" on="1"/>
        <pt x="334" y="308" on="0"/>
        <pt x="296" y="295" on="1"/>
        <pt x="288" y="293" on="0"/>
        <pt x="275" y="293" on="1"/>
        <pt x="236" y="293" on="0"/>
        <pt x="219" y="323" on="1"/>
        <pt x="213" y="336" on="0"/>
        <pt x="215" y="345" on="1"/>
        <pt x="215" y="346" on="0"/>
        <pt x="241" y="462" on="0"/>
        <pt x="241" y="463" on="1"/>
        <pt x="221" y="444" on="0"/>
        <pt x="197" y="422" on="1"/>
        <pt x="160" y="388" on="0"/>
        <pt x="143" y="375" on="0"/>
        <pt x="132" y="374" on="1"/>
        <pt x="104" y="374" on="0"/>
        <pt x="67" y="412" on="0"/>
        <pt x="67" y="440" on="1"/>
        <pt x="67" y="471" on="0"/>
        <pt x="91" y="484" on="1"/>
        <pt x="92" y="484" on="0"/>
        <pt x="206" y="520" on="0"/>
        <pt x="207" y="521" on="1"/>
        <pt x="91" y="558" on="1"/>
        <pt x="67" y="571" on="0"/>
        <pt x="67" y="602" on="1"/>
        <pt x="67" y="630" on="0"/>
        <pt x="104" y="668" on="0"/>
        <pt x="132" y="668" on="1"/>
        <pt x="143" y="667" on="0"/>
        <pt x="160" y="654" on="0"/>
        <pt x="197" y="620" on="1"/>
        <pt x="241" y="579" on="1"/>
        <pt x="240" y="586" on="1"/>
        <pt x="238" y="594" on="0"/>
        <pt x="231" y="623" on="0"/>
        <pt x="228" y="636" on="1"/>
        <pt x="215" y="694" on="0"/>
      </contour>
    </TTGlyph>
    <TTGlyph name="at" xMin="61" yMin="-11" xMax="671" yMax="704">
      <contour>
        <pt x="422" y="-11" on="1"/>
        <pt x="245" y="-11" on="0"/>
        <pt x="61" y="170" on="0"/>
        <pt x="61" y="347" on="1"/>
        <pt x="61" y="540" on="0"/>
        <pt x="175" y="634" on="1"/>
        <pt x="266" y="704" on="0"/>
        <pt x="410" y="704" on="1"/>
        <pt x="460" y="704" on="0"/>
        <pt x="471" y="703" on="1"/>
        <pt x="534" y="694" on="0"/>
        <pt x="577" y="666" on="1"/>
        <pt x="633" y="623" on="0"/>
        <pt x="655" y="537" on="1"/>
        <pt x="670" y="480" on="0"/>
        <pt x="670" y="370" on="1"/>
        <pt x="670" y="312" on="0"/>
        <pt x="669" y="300" on="1"/>
        <pt x="644" y="116" on="0"/>
        <pt x="454" y="116" on="1"/>
        <pt x="238" y="116" on="0"/>
        <pt x="238" y="347" on="1"/>
        <pt x="238" y="443" on="0"/>
        <pt x="276" y="499" on="1"/>
        <pt x="327" y="578" on="0"/>
        <pt x="456" y="578" on="1"/>
        <pt x="488" y="578" on="0"/>
        <pt x="494" y="577" on="1"/>
        <pt x="504" y="575" on="1"/>
        <pt x="485" y="603" on="0"/>
        <pt x="451" y="615" on="1"/>
        <pt x="443" y="617" on="0"/>
        <pt x="421" y="617" on="1"/>
        <pt x="196" y="617" on="0"/>
        <pt x="196" y="347" on="1"/>
        <pt x="196" y="214" on="0"/>
        <pt x="253" y="143" on="1"/>
        <pt x="310" y="76" on="0"/>
        <pt x="427" y="76" on="1"/>
        <pt x="500" y="76" on="0"/>
        <pt x="561" y="102" on="1"/>
        <pt x="575" y="107" on="1"/>
        <pt x="664" y="107" on="1"/>
        <pt x="671" y="98" on="0"/>
        <pt x="671" y="94" on="1"/>
        <pt x="671" y="89" on="1"/>
        <pt x="663" y="81" on="1"/>
        <pt x="592" y="15" on="0"/>
        <pt x="494" y="-4" on="1"/>
        <pt x="465" y="-11" on="0"/>
      </contour>
      <contour>
        <pt x="469" y="490" on="1"/>
        <pt x="459" y="492" on="0"/>
        <pt x="453" y="492" on="1"/>
        <pt x="429" y="492" on="0"/>
        <pt x="405" y="472" on="1"/>
        <pt x="382" y="448" on="0"/>
        <pt x="375" y="396" on="1"/>
        <pt x="374" y="386" on="0"/>
        <pt x="374" y="308" on="0"/>
        <pt x="375" y="298" on="1"/>
        <pt x="384" y="228" on="0"/>
        <pt x="423" y="210" on="1"/>
        <pt x="436" y="202" on="0"/>
        <pt x="454" y="202" on="1"/>
        <pt x="486" y="210" on="1"/>
        <pt x="493" y="213" on="0"/>
        <pt x="504" y="222" on="1"/>
        <pt x="536" y="257" on="0"/>
        <pt x="536" y="347" on="1"/>
        <pt x="536" y="461" on="0"/>
        <pt x="486" y="484" on="1"/>
        <pt x="476" y="490" on="0"/>
      </contour>
    </TTGlyph>
    <TTGlyph name="b" xMin="54" yMin="-10" xMax="523" yMax="694">
      <contour>
        <pt x="321" y="-10" on="1"/>
        <pt x="258" y="-10" on="0"/>
        <pt x="204" y="33" on="1"/>
        <pt x="197" y="7" on="0"/>
        <pt x="178" y="2" on="1"/>
        <pt x="173" y="0" on="0"/>
        <pt x="126" y="0" on="1"/>
        <pt x="81" y="1" on="1"/>
        <pt x="62" y="7" on="0"/>
        <pt x="54" y="28" on="1"/>
        <pt x="54" y="667" on="1"/>
        <pt x="60" y="685" on="0"/>
        <pt x="80" y="693" on="1"/>
        <pt x="82" y="694" on="0"/>
        <pt x="127" y="694" on="1"/>
        <pt x="170" y="694" on="0"/>
        <pt x="175" y="692" on="1"/>
        <pt x="193" y="687" on="0"/>
        <pt x="199" y="671" on="1"/>
        <pt x="201" y="663" on="0"/>
        <pt x="201" y="544" on="1"/>
        <pt x="202" y="422" on="1"/>
        <pt x="211" y="428" on="1"/>
        <pt x="272" y="468" on="0"/>
        <pt x="355" y="468" on="1"/>
        <pt x="523" y="468" on="0"/>
        <pt x="523" y="231" on="1"/>
        <pt x="523" y="-10" on="0"/>
      </contour>
      <contour>
        <pt x="204" y="107" on="1"/>
        <pt x="235" y="76" on="0"/>
        <pt x="274" y="76" on="1"/>
        <pt x="335" y="76" on="0"/>
        <pt x="356" y="117" on="1"/>
        <pt x="372" y="148" on="0"/>
        <pt x="372" y="230" on="1"/>
        <pt x="372" y="311" on="0"/>
        <pt x="359" y="343" on="1"/>
        <pt x="340" y="382" on="0"/>
        <pt x="280" y="382" on="1"/>
        <pt x="248" y="382" on="0"/>
        <pt x="204" y="356" on="1"/>
      </contour>
    </TTGlyph>
    <TTGlyph name="bracketleft" xMin="79" yMin="-250" xMax="318" yMax="750">
      <contour>
        <pt x="105" y="748" on="1"/>
        <pt x="109" y="750" on="0"/>
        <pt x="198" y="750" on="1"/>
        <pt x="292" y="750" on="0"/>
        <pt x="301" y="745" on="1"/>
        <pt x="318" y="733" on="0"/>
        <pt x="318" y="707" on="1"/>
        <pt x="318" y="680" on="0"/>
        <pt x="301" y="668" on="1"/>
        <pt x="293" y="663" on="0"/>
        <pt x="255" y="663" on="1"/>
        <pt x="224" y="663" on="1"/>
        <pt x="224" y="-163" on="1"/>
        <pt x="255" y="-163" on="1"/>
        <pt x="293" y="-163" on="0"/>
        <pt x="301" y="-168" on="1"/>
        <pt x="318" y="-180" on="0"/>
        <pt x="318" y="-206" on="1"/>
        <pt x="318" y="-233" on="0"/>
        <pt x="301" y="-245" on="1"/>
        <pt x="292" y="-250" on="0"/>
        <pt x="198" y="-250" on="1"/>
        <pt x="110" y="-250" on="0"/>
        <pt x="105" y="-248" on="1"/>
        <pt x="86" y="-243" on="0"/>
        <pt x="81" y="-225" on="1"/>
        <pt x="79" y="-219" on="0"/>
        <pt x="79" y="719" on="0"/>
        <pt x="81" y="725" on="1"/>
        <pt x="86" y="743" on="0"/>
      </contour>
    </TTGlyph>
    <TTGlyph name="bracketright" xMin="24" yMin="-250" xMax="263" yMax="750">
      <contour>
        <pt x="24" y="706" on="1"/>
        <pt x="24" y="741" on="0"/>
        <pt x="50" y="748" on="1"/>
        <pt x="54" y="750" on="0"/>
        <pt x="232" y="750" on="0"/>
        <pt x="237" y="748" on="1"/>
        <pt x="256" y="743" on="0"/>
        <pt x="261" y="725" on="1"/>
        <pt x="263" y="719" on="0"/>
        <pt x="263" y="-219" on="0"/>
        <pt x="261" y="-225" on="1"/>
        <pt x="256" y="-243" on="0"/>
        <pt x="237" y="-248" on="1"/>
        <pt x="232" y="-250" on="0"/>
        <pt x="143" y="-250" on="1"/>
        <pt x="50" y="-250" on="0"/>
        <pt x="41" y="-245" on="1"/>
        <pt x="24" y="-233" on="0"/>
        <pt x="24" y="-207" on="1"/>
        <pt x="24" y="-180" on="0"/>
        <pt x="41" y="-168" on="1"/>
        <pt x="49" y="-163" on="0"/>
        <pt x="87" y="-163" on="1"/>
        <pt x="118" y="-163" on="1"/>
        <pt x="118" y="663" on="1"/>
        <pt x="87" y="663" on="1"/>
        <pt x="54" y="663" on="0"/>
        <pt x="50" y="665" on="1"/>
        <pt x="24" y="672" on="0"/>
      </contour>
    </TTGlyph>
    <TTGlyph name="c" xMin="37" yMin="-11" xMax="457" yMax="475">
      <contour>
        <pt x="37" y="232" on="1"/>
        <pt x="37" y="456" on="0"/>
        <pt x="244" y="474" on="1"/>
        <pt x="246" y="474" on="0"/>
        <pt x="269" y="475" on="0"/>
        <pt x="276" y="475" on="1"/>
        <pt x="349" y="475" on="0"/>
        <pt x="400" y="455" on="1"/>
        <pt x="443" y="436" on="0"/>
        <pt x="448" y="431" on="1"/>
        <pt x="451" y="425" on="1"/>
        <pt x="451" y="419" on="0"/>
        <pt x="443" y="377" on="1"/>
        <pt x="436" y="339" on="0"/>
        <pt x="433" y="328" on="0"/>
        <pt x="427" y="325" on="1"/>
        <pt x="422" y="323" on="0"/>
        <pt x="406" y="336" on="1"/>
        <pt x="375" y="363" on="0"/>
        <pt x="324" y="382" on="0"/>
        <pt x="281" y="382" on="1"/>
        <pt x="256" y="382" on="0"/>
        <pt x="221" y="367" on="0"/>
        <pt x="202" y="344" on="0"/>
        <pt x="191" y="303" on="0"/>
        <pt x="188" y="263" on="0"/>
        <pt x="188" y="233" on="1"/>
        <pt x="188" y="171" on="0"/>
        <pt x="205" y="105" on="0"/>
        <pt x="235" y="91" on="1"/>
        <pt x="252" y="83" on="0"/>
        <pt x="271" y="83" on="1"/>
        <pt x="281" y="83" on="1"/>
        <pt x="356" y="83" on="0"/>
        <pt x="421" y="130" on="1"/>
        <pt x="433" y="138" on="0"/>
        <pt x="434" y="139" on="1"/>
        <pt x="446" y="141" on="0"/>
        <pt x="448" y="131" on="1"/>
        <pt x="449" y="128" on="0"/>
        <pt x="457" y="40" on="0"/>
        <pt x="457" y="36" on="1"/>
        <pt x="456" y="31" on="0"/>
        <pt x="438" y="23" on="1"/>
        <pt x="363" y="-11" on="0"/>
        <pt x="273" y="-11" on="1"/>
        <pt x="37" y="-11" on="0"/>
      </contour>
    </TTGlyph>
    <TTGlyph name="colon" xMin="80" yMin="0" xMax="226" yMax="458">
      <contour>
        <pt x="226" y="319" on="1"/>
        <pt x="223" y="317" on="0"/>
        <pt x="219" y="313" on="1"/>
        <pt x="87" y="313" on="1"/>
        <pt x="81" y="319" on="1"/>
        <pt x="80" y="384" on="1"/>
        <pt x="80" y="437" on="0"/>
        <pt x="81" y="453" on="0"/>
        <pt x="86" y="456" on="1"/>
        <pt x="89" y="458" on="0"/>
        <pt x="154" y="458" on="1"/>
        <pt x="219" y="458" on="1"/>
        <pt x="222" y="454" on="0"/>
        <pt x="226" y="451" on="1"/>
      </contour>
      <contour>
        <pt x="219" y="146" on="1"/>
        <pt x="222" y="142" on="0"/>
        <pt x="226" y="139" on="1"/>
        <pt x="226" y="7" on="1"/>
        <pt x="222" y="4" on="1"/>
        <pt x="219" y="1" on="1"/>
        <pt x="154" y="0" on="1"/>
        <pt x="102" y="0" on="0"/>
        <pt x="85" y="1" on="0"/>
        <pt x="82" y="6" on="1"/>
        <pt x="80" y="9" on="0"/>
        <pt x="80" y="74" on="1"/>
        <pt x="81" y="139" on="1"/>
        <pt x="84" y="145" on="0"/>
        <pt x="88" y="145" on="1"/>
        <pt x="89" y="146" on="0"/>
        <pt x="154" y="146" on="1"/>
      </contour>
    </TTGlyph>
    <TTGlyph name="comma" xMin="80" yMin="-106" xMax="226" yMax="146">
      <contour>
        <pt x="81" y="139" on="1"/>
        <pt x="84" y="145" on="0"/>
        <pt x="88" y="145" on="1"/>
        <pt x="89" y="146" on="0"/>
        <pt x="154" y="146" on="1"/>
        <pt x="219" y="146" on="1"/>
        <pt x="222" y="142" on="0"/>
        <pt x="226" y="139" on="1"/>
        <pt x="226" y="8" on="1"/>
        <pt x="187" y="-47" on="1"/>
        <pt x="149" y="-103" on="0"/>
        <pt x="146" y="-104" on="1"/>
        <pt x="144" y="-106" on="0"/>
        <pt x="116" y="-106" on="1"/>
        <pt x="85" y="-106" on="0"/>
        <pt x="82" y="-100" on="1"/>
        <pt x="80" y="-98" on="0"/>
        <pt x="80" y="-95" on="1"/>
        <pt x="80" y="-93" on="0"/>
        <pt x="98" y="-47" on="1"/>
        <pt x="117" y="-2" on="1"/>
        <pt x="117" y="0" on="0"/>
        <pt x="102" y="0" on="1"/>
        <pt x="87" y="1" on="1"/>
        <pt x="81" y="7" on="1"/>
      </contour>
    </TTGlyph>
    <TTGlyph name="d" xMin="37" yMin="-11" xMax="507" yMax="694">
      <contour>
        <pt x="356" y="40" on="1"/>
        <pt x="295" y="-11" on="0"/>
        <pt x="225" y="-11" on="1"/>
        <pt x="136" y="-11" on="0"/>
        <pt x="89" y="44" on="1"/>
        <pt x="37" y="103" on="0"/>
        <pt x="37" y="227" on="1"/>
        <pt x="37" y="321" on="0"/>
        <pt x="63" y="376" on="1"/>
        <pt x="111" y="469" on="0"/>
        <pt x="223" y="469" on="1"/>
        <pt x="292" y="469" on="0"/>
        <pt x="349" y="433" on="1"/>
        <pt x="359" y="426" on="1"/>
        <pt x="359" y="546" on="1"/>
        <pt x="359" y="663" on="0"/>
        <pt x="361" y="671" on="1"/>
        <pt x="367" y="687" on="0"/>
        <pt x="385" y="692" on="1"/>
        <pt x="389" y="694" on="0"/>
        <pt x="477" y="694" on="0"/>
        <pt x="481" y="692" on="1"/>
        <pt x="500" y="687" on="0"/>
        <pt x="505" y="669" on="1"/>
        <pt x="507" y="663" on="0"/>
        <pt x="507" y="31" on="0"/>
        <pt x="505" y="25" on="1"/>
        <pt x="500" y="7" on="0"/>
        <pt x="481" y="2" on="1"/>
        <pt x="477" y="0" on="0"/>
        <pt x="432" y="0" on="1"/>
        <pt x="386" y="0" on="0"/>
        <pt x="382" y="2" on="1"/>
        <pt x="356" y="9" on="0"/>
        <pt x="356" y="36" on="1"/>
      </contour>
      <contour>
        <pt x="189" y="203" on="1"/>
        <pt x="189" y="138" on="0"/>
        <pt x="224" y="76" on="0"/>
        <pt x="274" y="76" on="1"/>
        <pt x="318" y="76" on="0"/>
        <pt x="356" y="114" on="1"/>
        <pt x="356" y="359" on="1"/>
        <pt x="326" y="382" on="0"/>
        <pt x="286" y="382" on="1"/>
        <pt x="239" y="382" on="0"/>
        <pt x="215" y="358" on="1"/>
        <pt x="200" y="342" on="0"/>
        <pt x="195" y="319" on="1"/>
        <pt x="189" y="297" on="0"/>
        <pt x="189" y="229" on="1"/>
      </contour>
    </TTGlyph>
    <TTGlyph name="dollar" xMin="49" yMin="-56" xMax="488" yMax="750">
      <contour>
        <pt x="231" y="288" on="1"/>
        <pt x="156" y="303" on="0"/>
        <pt x="61" y="418" on="0"/>
        <pt x="61" y="496" on="1"/>
        <pt x="61" y="595" on="0"/>
        <pt x="112" y="648" on="1"/>
        <pt x="142" y="679" on="0"/>
        <pt x="183" y="692" on="1"/>
        <pt x="213" y="702" on="0"/>
        <pt x="228" y="702" on="1"/>
        <pt x="231" y="702" on="1"/>
        <pt x="231" y="712" on="1"/>
        <pt x="236" y="750" on="0"/>
        <pt x="271" y="750" on="1"/>
        <pt x="318" y="750" on="0"/>
        <pt x="318" y="711" on="1"/>
        <pt x="318" y="703" on="1"/>
        <pt x="323" y="702" on="1"/>
        <pt x="391" y="693" on="0"/>
        <pt x="451" y="656" on="1"/>
        <pt x="469" y="645" on="0"/>
        <pt x="470" y="640" on="1"/>
        <pt x="470" y="635" on="0"/>
        <pt x="461" y="587" on="1"/>
        <pt x="453" y="537" on="1"/>
        <pt x="445" y="529" on="0"/>
        <pt x="442" y="529" on="1"/>
        <pt x="436" y="529" on="0"/>
        <pt x="424" y="539" on="1"/>
        <pt x="378" y="576" on="0"/>
        <pt x="330" y="585" on="1"/>
        <pt x="328" y="585" on="0"/>
        <pt x="322" y="586" on="0"/>
        <pt x="320" y="586" on="1"/>
        <pt x="318" y="587" on="1"/>
        <pt x="318" y="434" on="1"/>
        <pt x="350" y="424" on="0"/>
        <pt x="364" y="418" on="1"/>
        <pt x="395" y="402" on="0"/>
        <pt x="419" y="380" on="1"/>
        <pt x="488" y="313" on="0"/>
        <pt x="488" y="213" on="1"/>
        <pt x="488" y="24" on="0"/>
        <pt x="334" y="-5" on="1"/>
        <pt x="318" y="-8" on="1"/>
        <pt x="318" y="-17" on="1"/>
        <pt x="318" y="-47" on="0"/>
        <pt x="292" y="-55" on="1"/>
        <pt x="287" y="-56" on="0"/>
        <pt x="272" y="-56" on="1"/>
        <pt x="252" y="-56" on="0"/>
        <pt x="233" y="-38" on="0"/>
        <pt x="231" y="-18" on="1"/>
        <pt x="231" y="-8" on="1"/>
        <pt x="224" y="-8" on="1"/>
        <pt x="133" y="8" on="0"/>
        <pt x="66" y="52" on="1"/>
        <pt x="50" y="63" on="0"/>
        <pt x="49" y="67" on="1"/>
        <pt x="49" y="71" on="0"/>
        <pt x="67" y="174" on="0"/>
        <pt x="68" y="176" on="1"/>
        <pt x="71" y="182" on="0"/>
        <pt x="79" y="182" on="1"/>
        <pt x="84" y="182" on="0"/>
        <pt x="94" y="173" on="1"/>
        <pt x="148" y="126" on="0"/>
        <pt x="216" y="110" on="1"/>
        <pt x="228" y="108" on="0"/>
        <pt x="229" y="108" on="1"/>
        <pt x="231" y="108" on="1"/>
      </contour>
      <contour>
        <pt x="231" y="521" on="1"/>
        <pt x="231" y="583" on="0"/>
        <pt x="230" y="583" on="1"/>
        <pt x="223" y="583" on="0"/>
        <pt x="210" y="570" on="1"/>
        <pt x="193" y="553" on="0"/>
        <pt x="193" y="521" on="1"/>
        <pt x="193" y="491" on="0"/>
        <pt x="212" y="472" on="1"/>
        <pt x="226" y="458" on="0"/>
        <pt x="230" y="458" on="1"/>
        <pt x="231" y="458" on="0"/>
      </contour>
      <contour>
        <pt x="318" y="112" on="1"/>
        <pt x="356" y="132" on="0"/>
        <pt x="356" y="187" on="1"/>
        <pt x="356" y="234" on="0"/>
        <pt x="318" y="263" on="1"/>
      </contour>
    </TTGlyph>
    <TTGlyph name="dotlessi" xMin="54" yMin="0" xMax="201" yMax="458">
      <contour>
        <pt x="54" y="431" on="1"/>
        <pt x="60" y="449" on="0"/>
        <pt x="80" y="457" on="1"/>
        <pt x="82" y="458" on="0"/>
        <pt x="127" y="458" on="1"/>
        <pt x="170" y="458" on="0"/>
        <pt x="175" y="456" on="1"/>
        <pt x="194" y="451" on="0"/>
        <pt x="199" y="433" on="1"/>
        <pt x="201" y="427" on="0"/>
        <pt x="201" y="31" on="0"/>
        <pt x="199" y="25" on="1"/>
        <pt x="193" y="6" on="0"/>
        <pt x="175" y="2" on="1"/>
        <pt x="170" y="0" on="0"/>
        <pt x="125" y="0" on="1"/>
        <pt x="81" y="1" on="1"/>
        <pt x="62" y="7" on="0"/>
        <pt x="54" y="28" on="1"/>
      </contour>
    </TTGlyph>
    <TTGlyph name="e" xMin="30" yMin="-10" xMax="480" yMax="474">
      <contour>
        <pt x="30" y="231" on="1"/>
        <pt x="30" y="459" on="0"/>
        <pt x="245" y="474" on="1"/>
        <pt x="262" y="474" on="1"/>
        <pt x="305" y="474" on="0"/>
        <pt x="313" y="473" on="1"/>
        <pt x="480" y="450" on="0"/>
        <pt x="480" y="260" on="1"/>
        <pt x="480" y="222" on="0"/>
        <pt x="454" y="216" on="1"/>
        <pt x="449" y="214" on="0"/>
        <pt x="311" y="214" on="1"/>
        <pt x="173" y="214" on="1"/>
        <pt x="173" y="211" on="1"/>
        <pt x="173" y="175" on="0"/>
        <pt x="198" y="110" on="0"/>
        <pt x="216" y="96" on="1"/>
        <pt x="244" y="76" on="0"/>
        <pt x="287" y="76" on="1"/>
        <pt x="369" y="76" on="0"/>
        <pt x="440" y="129" on="1"/>
        <pt x="446" y="134" on="0"/>
        <pt x="451" y="136" on="1"/>
        <pt x="463" y="138" on="0"/>
        <pt x="465" y="128" on="1"/>
        <pt x="466" y="125" on="0"/>
        <pt x="473" y="42" on="0"/>
        <pt x="473" y="39" on="1"/>
        <pt x="472" y="34" on="0"/>
        <pt x="456" y="27" on="1"/>
        <pt x="376" y="-10" on="0"/>
        <pt x="286" y="-10" on="1"/>
        <pt x="161" y="-10" on="0"/>
        <pt x="30" y="111" on="0"/>
      </contour>
      <contour>
        <pt x="353" y="292" on="1"/>
        <pt x="348" y="342" on="0"/>
        <pt x="310" y="387" on="0"/>
        <pt x="264" y="387" on="1"/>
        <pt x="235" y="387" on="0"/>
        <pt x="211" y="368" on="1"/>
        <pt x="185" y="346" on="0"/>
        <pt x="175" y="286" on="1"/>
        <pt x="175" y="282" on="1"/>
        <pt x="353" y="282" on="1"/>
      </contour>
    </TTGlyph>
    <TTGlyph name="eight" xMin="46" yMin="-22" xMax="503" yMax="715">
      <contour>
        <pt x="61" y="518" on="1"/>
        <pt x="61" y="614" on="0"/>
        <pt x="164" y="715" on="0"/>
        <pt x="263" y="715" on="1"/>
        <pt x="308" y="715" on="0"/>
        <pt x="319" y="714" on="1"/>
        <pt x="488" y="693" on="0"/>
        <pt x="488" y="517" on="1"/>
        <pt x="488" y="429" on="0"/>
        <pt x="421" y="390" on="1"/>
        <pt x="403" y="380" on="0"/>
        <pt x="390" y="376" on="1"/>
        <pt x="388" y="375" on="0"/>
        <pt x="393" y="373" on="1"/>
        <pt x="395" y="372" on="0"/>
        <pt x="398" y="371" on="1"/>
        <pt x="442" y="354" on="0"/>
        <pt x="467" y="324" on="1"/>
        <pt x="503" y="278" on="0"/>
        <pt x="503" y="204" on="1"/>
        <pt x="503" y="-22" on="0"/>
        <pt x="275" y="-22" on="1"/>
        <pt x="182" y="-22" on="0"/>
        <pt x="129" y="15" on="1"/>
        <pt x="46" y="70" on="0"/>
        <pt x="46" y="204" on="1"/>
        <pt x="46" y="331" on="0"/>
        <pt x="152" y="371" on="1"/>
        <pt x="158" y="373" on="0"/>
        <pt x="161" y="375" on="0"/>
        <pt x="160" y="376" on="1"/>
        <pt x="114" y="391" on="0"/>
        <pt x="61" y="463" on="0"/>
      </contour>
      <contour>
        <pt x="344" y="538" on="1"/>
        <pt x="344" y="579" on="0"/>
        <pt x="318" y="610" on="0"/>
        <pt x="279" y="612" on="1"/>
        <pt x="252" y="612" on="0"/>
        <pt x="238" y="607" on="1"/>
        <pt x="218" y="601" on="0"/>
        <pt x="204" y="564" on="0"/>
        <pt x="204" y="518" on="1"/>
        <pt x="204" y="460" on="0"/>
        <pt x="229" y="418" on="0"/>
        <pt x="275" y="418" on="1"/>
        <pt x="328" y="418" on="0"/>
        <pt x="338" y="450" on="1"/>
        <pt x="344" y="464" on="0"/>
        <pt x="344" y="515" on="1"/>
      </contour>
      <contour>
        <pt x="274" y="88" on="1"/>
        <pt x="323" y="88" on="0"/>
        <pt x="347" y="134" on="0"/>
        <pt x="349" y="197" on="1"/>
        <pt x="349" y="269" on="0"/>
        <pt x="342" y="290" on="1"/>
        <pt x="338" y="309" on="0"/>
        <pt x="301" y="331" on="0"/>
        <pt x="274" y="331" on="1"/>
        <pt x="217" y="331" on="0"/>
        <pt x="207" y="290" on="1"/>
        <pt x="200" y="269" on="0"/>
        <pt x="200" y="197" on="1"/>
        <pt x="201" y="170" on="0"/>
        <pt x="203" y="143" on="0"/>
        <pt x="211" y="111" on="0"/>
        <pt x="226" y="98" on="0"/>
        <pt x="253" y="88" on="0"/>
      </contour>
    </TTGlyph>
    <TTGlyph name="emdash" xMin="0" yMin="240" xMax="1099" yMax="327">
      <contour>
        <pt x="0" y="284" on="1"/>
        <pt x="0" y="318" on="0"/>
        <pt x="26" y="325" on="1"/>
        <pt x="30" y="327" on="0"/>
        <pt x="1068" y="327" on="0"/>
        <pt x="1073" y="325" on="1"/>
        <pt x="1099" y="318" on="0"/>
        <pt x="1099" y="284" on="1"/>
        <pt x="1099" y="249" on="0"/>
        <pt x="1073" y="242" on="1"/>
        <pt x="1068" y="240" on="0"/>
        <pt x="549" y="240" on="1"/>
        <pt x="31" y="240" on="0"/>
        <pt x="26" y="242" on="1"/>
        <pt x="0" y="249" on="0"/>
      </contour>
    </TTGlyph>
    <TTGlyph name="endash" xMin="0" yMin="240" xMax="549" yMax="327">
      <contour>
        <pt x="0" y="284" on="1"/>
        <pt x="0" y="318" on="0"/>
        <pt x="26" y="325" on="1"/>
        <pt x="30" y="327" on="0"/>
        <pt x="274" y="327" on="1"/>
        <pt x="469" y="327" on="0"/>
        <pt x="525" y="326" on="0"/>
        <pt x="532" y="322" on="1"/>
        <pt x="549" y="310" on="0"/>
        <pt x="549" y="283" on="1"/>
        <pt x="549" y="257" on="0"/>
        <pt x="532" y="245" on="1"/>
        <pt x="525" y="241" on="0"/>
        <pt x="470" y="240" on="0"/>
        <pt x="275" y="240" on="1"/>
        <pt x="31" y="240" on="0"/>
        <pt x="26" y="242" on="1"/>
        <pt x="0" y="249" on="0"/>
      </contour>
    </TTGlyph>
    <TTGlyph name="equal" xMin="61" yMin="94" xMax="794" yMax="407">
      <contour>
        <pt x="94" y="324" on="1"/>
        <pt x="61" y="336" on="0"/>
        <pt x="61" y="396" on="0"/>
        <pt x="91" y="405" on="1"/>
        <pt x="96" y="407" on="0"/>
        <pt x="429" y="407" on="1"/>
        <pt x="762" y="407" on="1"/>
        <pt x="773" y="401" on="0"/>
        <pt x="783" y="393" on="0"/>
        <pt x="794" y="376" on="0"/>
        <pt x="794" y="365" on="1"/>
        <pt x="794" y="337" on="0"/>
        <pt x="762" y="324" on="1"/>
      </contour>
      <contour>
        <pt x="94" y="94" on="1"/>
        <pt x="61" y="106" on="0"/>
        <pt x="61" y="135" on="1"/>
        <pt x="61" y="150" on="0"/>
        <pt x="79" y="172" on="0"/>
        <pt x="92" y="175" on="1"/>
        <pt x="97" y="177" on="0"/>
        <pt x="430" y="177" on="1"/>
        <pt x="762" y="177" on="1"/>
        <pt x="767" y="174" on="1"/>
        <pt x="794" y="164" on="0"/>
        <pt x="794" y="135" on="1"/>
        <pt x="794" y="107" on="0"/>
        <pt x="762" y="94" on="1"/>
      </contour>
    </TTGlyph>
    <TTGlyph name="exclam" xMin="110" yMin="0" xMax="256" yMax="694">
      <contour>
        <pt x="249" y="694" on="1"/>
        <pt x="254" y="687" on="0"/>
        <pt x="256" y="681" on="1"/>
        <pt x="244" y="220" on="0"/>
        <pt x="239" y="213" on="1"/>
        <pt x="236" y="208" on="0"/>
        <pt x="222" y="207" on="0"/>
        <pt x="144" y="207" on="0"/>
        <pt x="130" y="208" on="0"/>
        <pt x="127" y="213" on="1"/>
        <pt x="124" y="217" on="0"/>
        <pt x="117" y="450" on="1"/>
        <pt x="111" y="651" on="0"/>
        <pt x="111" y="669" on="1"/>
        <pt x="111" y="689" on="0"/>
        <pt x="116" y="692" on="1"/>
        <pt x="119" y="694" on="0"/>
        <pt x="184" y="694" on="1"/>
      </contour>
      <contour>
        <pt x="136" y="144" on="1"/>
        <pt x="140" y="146" on="0"/>
        <pt x="226" y="146" on="0"/>
        <pt x="230" y="144" on="1"/>
        <pt x="249" y="139" on="0"/>
        <pt x="254" y="121" on="1"/>
        <pt x="256" y="115" on="0"/>
        <pt x="256" y="31" on="0"/>
        <pt x="254" y="25" on="1"/>
        <pt x="248" y="6" on="0"/>
        <pt x="230" y="2" on="1"/>
        <pt x="225" y="0" on="0"/>
        <pt x="181" y="0" on="1"/>
        <pt x="138" y="1" on="1"/>
        <pt x="117" y="9" on="0"/>
        <pt x="111" y="28" on="1"/>
        <pt x="110" y="71" on="1"/>
        <pt x="110" y="114" on="0"/>
        <pt x="112" y="120" on="1"/>
        <pt x="117" y="139" on="0"/>
      </contour>
    </TTGlyph>
    <TTGlyph name="f" xMin="29" yMin="0" xMax="381" yMax="705">
      <contour>
        <pt x="29" y="417" on="1"/>
        <pt x="31" y="438" on="0"/>
        <pt x="47" y="456" on="0"/>
        <pt x="67" y="458" on="1"/>
        <pt x="78" y="458" on="1"/>
        <pt x="78" y="502" on="1"/>
        <pt x="78" y="560" on="0"/>
        <pt x="84" y="585" on="1"/>
        <pt x="113" y="695" on="0"/>
        <pt x="253" y="704" on="1"/>
        <pt x="254" y="704" on="0"/>
        <pt x="262" y="705" on="0"/>
        <pt x="268" y="705" on="0"/>
        <pt x="283" y="704" on="0"/>
        <pt x="287" y="704" on="1"/>
        <pt x="329" y="704" on="0"/>
        <pt x="364" y="695" on="1"/>
        <pt x="376" y="692" on="0"/>
        <pt x="381" y="687" on="1"/>
        <pt x="381" y="638" on="1"/>
        <pt x="381" y="588" on="0"/>
        <pt x="379" y="585" on="1"/>
        <pt x="374" y="579" on="0"/>
        <pt x="366" y="579" on="1"/>
        <pt x="363" y="581" on="0"/>
        <pt x="353" y="589" on="1"/>
        <pt x="324" y="618" on="0"/>
        <pt x="282" y="618" on="1"/>
        <pt x="237" y="618" on="0"/>
        <pt x="226" y="587" on="1"/>
        <pt x="224" y="581" on="0"/>
        <pt x="223" y="519" on="1"/>
        <pt x="223" y="458" on="1"/>
        <pt x="253" y="458" on="1"/>
        <pt x="288" y="458" on="0"/>
        <pt x="298" y="453" on="1"/>
        <pt x="315" y="441" on="0"/>
        <pt x="315" y="415" on="1"/>
        <pt x="315" y="388" on="0"/>
        <pt x="298" y="376" on="1"/>
        <pt x="288" y="371" on="0"/>
        <pt x="255" y="371" on="1"/>
        <pt x="226" y="371" on="1"/>
        <pt x="226" y="201" on="1"/>
        <pt x="226" y="31" on="0"/>
        <pt x="224" y="25" on="1"/>
        <pt x="218" y="6" on="0"/>
        <pt x="200" y="2" on="1"/>
        <pt x="195" y="0" on="0"/>
        <pt x="150" y="0" on="1"/>
        <pt x="106" y="1" on="1"/>
        <pt x="87" y="7" on="0"/>
        <pt x="79" y="28" on="1"/>
        <pt x="78" y="199" on="1"/>
        <pt x="78" y="371" on="1"/>
        <pt x="69" y="371" on="1"/>
        <pt x="29" y="371" on="0"/>
      </contour>
    </TTGlyph>
    <TTGlyph name="five" xMin="37" yMin="-22" xMax="494" yMax="694">
      <contour>
        <pt x="109" y="282" on="1"/>
        <pt x="87" y="290" on="0"/>
        <pt x="83" y="310" on="1"/>
        <pt x="83" y="666" on="1"/>
        <pt x="91" y="686" on="0"/>
        <pt x="108" y="693" on="1"/>
        <pt x="112" y="694" on="0"/>
        <pt x="426" y="694" on="0"/>
        <pt x="431" y="692" on="1"/>
        <pt x="450" y="687" on="0"/>
        <pt x="455" y="669" on="1"/>
        <pt x="457" y="664" on="0"/>
        <pt x="457" y="637" on="1"/>
        <pt x="457" y="609" on="0"/>
        <pt x="455" y="604" on="1"/>
        <pt x="450" y="586" on="0"/>
        <pt x="431" y="581" on="1"/>
        <pt x="426" y="579" on="0"/>
        <pt x="326" y="579" on="1"/>
        <pt x="227" y="579" on="1"/>
        <pt x="227" y="510" on="1"/>
        <pt x="227" y="442" on="0"/>
        <pt x="229" y="442" on="1"/>
        <pt x="235" y="446" on="0"/>
        <pt x="257" y="449" on="1"/>
        <pt x="263" y="450" on="0"/>
        <pt x="288" y="450" on="1"/>
        <pt x="383" y="450" on="0"/>
        <pt x="436" y="397" on="1"/>
        <pt x="494" y="339" on="0"/>
        <pt x="494" y="222" on="1"/>
        <pt x="494" y="-22" on="0"/>
        <pt x="241" y="-22" on="1"/>
        <pt x="143" y="-22" on="0"/>
        <pt x="76" y="43" on="1"/>
        <pt x="37" y="80" on="0"/>
        <pt x="37" y="94" on="1"/>
        <pt x="37" y="97" on="0"/>
        <pt x="69" y="151" on="1"/>
        <pt x="91" y="185" on="0"/>
        <pt x="97" y="185" on="1"/>
        <pt x="106" y="185" on="0"/>
        <pt x="112" y="170" on="1"/>
        <pt x="128" y="133" on="0"/>
        <pt x="194" y="87" on="0"/>
        <pt x="240" y="87" on="1"/>
        <pt x="298" y="87" on="0"/>
        <pt x="332" y="148" on="0"/>
        <pt x="332" y="226" on="1"/>
        <pt x="332" y="310" on="0"/>
        <pt x="325" y="332" on="1"/>
        <pt x="314" y="363" on="0"/>
        <pt x="281" y="363" on="1"/>
        <pt x="228" y="363" on="0"/>
        <pt x="197" y="306" on="1"/>
        <pt x="188" y="289" on="0"/>
        <pt x="172" y="282" on="1"/>
      </contour>
    </TTGlyph>
    <TTGlyph name="four" xMin="31" yMin="0" xMax="518" yMax="694">
      <contour>
        <pt x="518" y="194" on="1"/>
        <pt x="518" y="159" on="0"/>
        <pt x="497" y="140" on="0"/>
        <pt x="461" y="140" on="1"/>
        <pt x="435" y="140" on="1"/>
        <pt x="435" y="86" on="1"/>
        <pt x="435" y="31" on="0"/>
        <pt x="433" y="25" on="1"/>
        <pt x="428" y="7" on="0"/>
        <pt x="409" y="2" on="1"/>
        <pt x="405" y="0" on="0"/>
        <pt x="366" y="0" on="1"/>
        <pt x="326" y="0" on="0"/>
        <pt x="322" y="2" on="1"/>
        <pt x="303" y="7" on="0"/>
        <pt x="298" y="25" on="1"/>
        <pt x="296" y="31" on="0"/>
        <pt x="296" y="86" on="1"/>
        <pt x="296" y="140" on="1"/>
        <pt x="179" y="140" on="1"/>
        <pt x="62" y="140" on="0"/>
        <pt x="57" y="142" on="1"/>
        <pt x="38" y="147" on="0"/>
        <pt x="33" y="165" on="1"/>
        <pt x="31" y="171" on="0"/>
        <pt x="31" y="208" on="1"/>
        <pt x="31" y="246" on="0"/>
        <pt x="33" y="251" on="1"/>
        <pt x="251" y="673" on="0"/>
        <pt x="262" y="684" on="1"/>
        <pt x="268" y="691" on="0"/>
        <pt x="278" y="693" on="1"/>
        <pt x="282" y="693" on="1"/>
        <pt x="285" y="693" on="0"/>
        <pt x="297" y="694" on="0"/>
        <pt x="313" y="694" on="0"/>
        <pt x="332" y="694" on="0"/>
        <pt x="342" y="694" on="1"/>
        <pt x="409" y="694" on="0"/>
        <pt x="417" y="689" on="1"/>
        <pt x="423" y="686" on="0"/>
        <pt x="430" y="677" on="1"/>
        <pt x="434" y="670" on="0"/>
        <pt x="435" y="622" on="0"/>
        <pt x="435" y="456" on="1"/>
        <pt x="435" y="249" on="1"/>
        <pt x="461" y="249" on="1"/>
        <pt x="497" y="249" on="0"/>
        <pt x="518" y="230" on="0"/>
      </contour>
      <contour>
        <pt x="302" y="249" on="1"/>
        <pt x="302" y="416" on="1"/>
        <pt x="301" y="576" on="1"/>
        <pt x="301" y="550" on="0"/>
        <pt x="238" y="415" on="0"/>
        <pt x="165" y="276" on="1"/>
        <pt x="151" y="250" on="1"/>
        <pt x="226" y="249" on="1"/>
      </contour>
    </TTGlyph>
    <TTGlyph name="g" xMin="17" yMin="-206" xMax="534" yMax="469">
      <contour>
        <pt x="35" y="300" on="1"/>
        <pt x="35" y="469" on="0"/>
        <pt x="243" y="469" on="1"/>
        <pt x="331" y="469" on="0"/>
        <pt x="385" y="437" on="1"/>
        <pt x="397" y="443" on="1"/>
        <pt x="449" y="469" on="0"/>
        <pt x="508" y="469" on="1"/>
        <pt x="515" y="468" on="0"/>
        <pt x="518" y="465" on="1"/>
        <pt x="522" y="461" on="0"/>
        <pt x="528" y="425" on="1"/>
        <pt x="534" y="392" on="0"/>
        <pt x="534" y="386" on="1"/>
        <pt x="532" y="379" on="0"/>
        <pt x="523" y="377" on="1"/>
        <pt x="520" y="377" on="0"/>
        <pt x="510" y="380" on="1"/>
        <pt x="487" y="390" on="0"/>
        <pt x="425" y="399" on="1"/>
        <pt x="453" y="361" on="0"/>
        <pt x="453" y="297" on="1"/>
        <pt x="453" y="208" on="0"/>
        <pt x="389" y="165" on="1"/>
        <pt x="337" y="130" on="0"/>
        <pt x="242" y="130" on="1"/>
        <pt x="172" y="130" on="0"/>
        <pt x="119" y="153" on="1"/>
        <pt x="117" y="141" on="0"/>
        <pt x="117" y="137" on="1"/>
        <pt x="117" y="96" on="0"/>
        <pt x="155" y="83" on="1"/>
        <pt x="161" y="81" on="0"/>
        <pt x="252" y="81" on="1"/>
        <pt x="354" y="80" on="0"/>
        <pt x="362" y="79" on="1"/>
        <pt x="437" y="71" on="0"/>
        <pt x="513" y="24" on="0"/>
        <pt x="526" y="-24" on="1"/>
        <pt x="532" y="-42" on="0"/>
        <pt x="532" y="-65" on="1"/>
        <pt x="532" y="-130" on="0"/>
        <pt x="424" y="-197" on="0"/>
        <pt x="341" y="-204" on="1"/>
        <pt x="323" y="-206" on="0"/>
        <pt x="274" y="-206" on="1"/>
        <pt x="158" y="-206" on="0"/>
        <pt x="91" y="-176" on="1"/>
        <pt x="57" y="-160" on="0"/>
        <pt x="17" y="-104" on="0"/>
        <pt x="17" y="-68" on="1"/>
        <pt x="17" y="-29" on="0"/>
        <pt x="52" y="30" on="0"/>
        <pt x="82" y="42" on="1"/>
        <pt x="76" y="53" on="1"/>
        <pt x="63" y="79" on="0"/>
        <pt x="63" y="108" on="1"/>
        <pt x="63" y="143" on="0"/>
        <pt x="83" y="176" on="1"/>
        <pt x="76" y="184" on="1"/>
        <pt x="35" y="228" on="0"/>
      </contour>
      <contour>
        <pt x="201" y="203" on="0"/>
        <pt x="287" y="203" on="0"/>
        <pt x="310" y="246" on="0"/>
        <pt x="310" y="300" on="1"/>
        <pt x="310" y="357" on="0"/>
        <pt x="285" y="396" on="0"/>
        <pt x="238" y="396" on="1"/>
        <pt x="200" y="396" on="0"/>
        <pt x="178" y="351" on="0"/>
        <pt x="178" y="300" on="1"/>
        <pt x="178" y="246" on="0"/>
      </contour>
      <contour>
        <pt x="135" y="-62" on="1"/>
        <pt x="135" y="-92" on="0"/>
        <pt x="179" y="-125" on="0"/>
        <pt x="234" y="-134" on="0"/>
        <pt x="274" y="-134" on="1"/>
        <pt x="362" y="-134" on="0"/>
        <pt x="392" y="-109" on="1"/>
        <pt x="414" y="-92" on="0"/>
        <pt x="414" y="-66" on="1"/>
        <pt x="414" y="-54" on="0"/>
        <pt x="408" y="-42" on="1"/>
        <pt x="396" y="-16" on="0"/>
        <pt x="340" y="-8" on="1"/>
        <pt x="333" y="-7" on="0"/>
        <pt x="246" y="-6" on="1"/>
        <pt x="164" y="-6" on="0"/>
        <pt x="159" y="-8" on="1"/>
        <pt x="135" y="-15" on="0"/>
      </contour>
    </TTGlyph>
    <TTGlyph name="gravecomb" xMin="-458" yMin="537" xMax="-218" yMax="694">
      <contour>
        <pt x="-452" y="692" on="1"/>
        <pt x="-449" y="694" on="0"/>
        <pt x="-381" y="694" on="1"/>
        <pt x="-314" y="694" on="1"/>
        <pt x="-312" y="691" on="1"/>
        <pt x="-311" y="691" on="0"/>
        <pt x="-299" y="673" on="0"/>
        <pt x="-274" y="637" on="0"/>
        <pt x="-263" y="622" on="1"/>
        <pt x="-218" y="555" on="1"/>
        <pt x="-218" y="549" on="1"/>
        <pt x="-218" y="544" on="0"/>
        <pt x="-224" y="538" on="1"/>
        <pt x="-259" y="537" on="1"/>
        <pt x="-295" y="537" on="0"/>
        <pt x="-296" y="538" on="1"/>
        <pt x="-298" y="539" on="0"/>
        <pt x="-455" y="673" on="0"/>
        <pt x="-456" y="676" on="1"/>
        <pt x="-458" y="680" on="0"/>
        <pt x="-458" y="682" on="1"/>
        <pt x="-458" y="688" on="0"/>
      </contour>
    </TTGlyph>
    <TTGlyph name="h" xMin="53" yMin="0" xMax="508" yMax="694">
      <contour>
        <pt x="200" y="390" on="1"/>
        <pt x="263" y="469" on="0"/>
        <pt x="361" y="469" on="1"/>
        <pt x="431" y="469" on="0"/>
        <pt x="502" y="414" on="0"/>
        <pt x="507" y="351" on="1"/>
        <pt x="508" y="342" on="0"/>
        <pt x="508" y="185" on="1"/>
        <pt x="508" y="31" on="0"/>
        <pt x="506" y="25" on="1"/>
        <pt x="501" y="7" on="0"/>
        <pt x="482" y="2" on="1"/>
        <pt x="478" y="0" on="0"/>
        <pt x="432" y="0" on="1"/>
        <pt x="387" y="0" on="0"/>
        <pt x="383" y="2" on="1"/>
        <pt x="365" y="7" on="0"/>
        <pt x="359" y="23" on="1"/>
        <pt x="357" y="31" on="0"/>
        <pt x="357" y="186" on="1"/>
        <pt x="356" y="345" on="0"/>
        <pt x="355" y="350" on="1"/>
        <pt x="349" y="369" on="0"/>
        <pt x="336" y="376" on="1"/>
        <pt x="324" y="381" on="0"/>
        <pt x="301" y="381" on="1"/>
        <pt x="270" y="381" on="0"/>
        <pt x="242" y="362" on="1"/>
        <pt x="209" y="336" on="0"/>
        <pt x="204" y="291" on="1"/>
        <pt x="203" y="286" on="0"/>
        <pt x="203" y="157" on="1"/>
        <pt x="203" y="31" on="0"/>
        <pt x="201" y="25" on="1"/>
        <pt x="195" y="6" on="0"/>
        <pt x="177" y="2" on="1"/>
        <pt x="172" y="0" on="0"/>
        <pt x="125" y="0" on="1"/>
        <pt x="80" y="1" on="1"/>
        <pt x="61" y="7" on="0"/>
        <pt x="53" y="28" on="1"/>
        <pt x="53" y="667" on="1"/>
        <pt x="59" y="685" on="0"/>
        <pt x="79" y="693" on="1"/>
        <pt x="81" y="694" on="0"/>
        <pt x="126" y="694" on="1"/>
        <pt x="169" y="694" on="0"/>
        <pt x="174" y="692" on="1"/>
        <pt x="193" y="687" on="0"/>
        <pt x="198" y="669" on="1"/>
        <pt x="200" y="663" on="0"/>
        <pt x="200" y="526" on="1"/>
      </contour>
    </TTGlyph>
    <TTGlyph name="hyphen" xMin="12" yMin="186" xMax="305" yMax="273">
      <contour>
        <pt x="12" y="230" on="1"/>
        <pt x="12" y="264" on="0"/>
        <pt x="38" y="271" on="1"/>
        <pt x="42" y="273" on="0"/>
        <pt x="158" y="273" on="1"/>
        <pt x="251" y="273" on="0"/>
        <pt x="281" y="272" on="0"/>
        <pt x="288" y="268" on="1"/>
        <pt x="305" y="256" on="0"/>
        <pt x="305" y="230" on="1"/>
        <pt x="305" y="203" on="0"/>
        <pt x="288" y="191" on="1"/>
        <pt x="281" y="187" on="0"/>
        <pt x="252" y="186" on="0"/>
        <pt x="159" y="186" on="1"/>
        <pt x="43" y="186" on="0"/>
        <pt x="38" y="188" on="1"/>
        <pt x="12" y="195" on="0"/>
      </contour>
    </TTGlyph>
    <TTGlyph name="i" xMin="46" yMin="0" xMax="208" yMax="695">
      <contour>
        <pt x="181" y="695" on="1"/>
        <pt x="183" y="694" on="0"/>
        <pt x="193" y="687" on="0"/>
        <pt x="195" y="686" on="0"/>
        <pt x="202" y="680" on="0"/>
        <pt x="203" y="678" on="0"/>
        <pt x="206" y="670" on="0"/>
        <pt x="206" y="665" on="0"/>
        <pt x="208" y="654" on="0"/>
        <pt x="208" y="642" on="0"/>
        <pt x="208" y="634" on="1"/>
        <pt x="208" y="605" on="0"/>
        <pt x="205" y="596" on="1"/>
        <pt x="201" y="584" on="0"/>
        <pt x="181" y="574" on="1"/>
        <pt x="72" y="574" on="1"/>
        <pt x="52" y="584" on="0"/>
        <pt x="48" y="596" on="1"/>
        <pt x="46" y="601" on="0"/>
        <pt x="46" y="636" on="1"/>
        <pt x="47" y="670" on="1"/>
        <pt x="58" y="691" on="0"/>
        <pt x="73" y="694" on="1"/>
        <pt x="81" y="694" on="1"/>
        <pt x="89" y="694" on="0"/>
        <pt x="116" y="695" on="0"/>
        <pt x="129" y="695" on="1"/>
      </contour>
      <contour>
        <pt x="54" y="431" on="1"/>
        <pt x="60" y="449" on="0"/>
        <pt x="80" y="457" on="1"/>
        <pt x="82" y="458" on="0"/>
        <pt x="127" y="458" on="1"/>
        <pt x="170" y="458" on="0"/>
        <pt x="175" y="456" on="1"/>
        <pt x="194" y="451" on="0"/>
        <pt x="199" y="433" on="1"/>
        <pt x="201" y="427" on="0"/>
        <pt x="201" y="31" on="0"/>
        <pt x="199" y="25" on="1"/>
        <pt x="193" y="6" on="0"/>
        <pt x="175" y="2" on="1"/>
        <pt x="170" y="0" on="0"/>
        <pt x="125" y="0" on="1"/>
        <pt x="81" y="1" on="1"/>
        <pt x="62" y="7" on="0"/>
        <pt x="54" y="28" on="1"/>
      </contour>
    </TTGlyph>
    <TTGlyph name="j" xMin="-71" yMin="-205" xMax="232" yMax="695">
      <contour>
        <pt x="96" y="693" on="1"/>
        <pt x="100" y="695" on="0"/>
        <pt x="202" y="695" on="0"/>
        <pt x="206" y="693" on="1"/>
        <pt x="225" y="688" on="0"/>
        <pt x="230" y="670" on="1"/>
        <pt x="232" y="665" on="0"/>
        <pt x="232" y="603" on="0"/>
        <pt x="230" y="598" on="1"/>
        <pt x="225" y="580" on="0"/>
        <pt x="206" y="575" on="1"/>
        <pt x="202" y="573" on="0"/>
        <pt x="100" y="573" on="0"/>
        <pt x="96" y="575" on="1"/>
        <pt x="77" y="580" on="0"/>
        <pt x="72" y="598" on="1"/>
        <pt x="70" y="603" on="0"/>
        <pt x="70" y="665" on="0"/>
        <pt x="72" y="670" on="1"/>
        <pt x="77" y="688" on="0"/>
      </contour>
      <contour>
        <pt x="-41" y="-84" on="1"/>
        <pt x="1" y="-105" on="0"/>
        <pt x="28" y="-105" on="1"/>
        <pt x="67" y="-105" on="0"/>
        <pt x="78" y="-85" on="1"/>
        <pt x="83" y="-77" on="0"/>
        <pt x="84" y="-19" on="0"/>
        <pt x="84" y="180" on="1"/>
        <pt x="84" y="427" on="0"/>
        <pt x="86" y="433" on="1"/>
        <pt x="91" y="451" on="0"/>
        <pt x="110" y="456" on="1"/>
        <pt x="114" y="458" on="0"/>
        <pt x="158" y="458" on="1"/>
        <pt x="207" y="458" on="0"/>
        <pt x="215" y="452" on="1"/>
        <pt x="220" y="449" on="0"/>
        <pt x="225" y="443" on="1"/>
        <pt x="230" y="436" on="0"/>
        <pt x="231" y="418" on="1"/>
        <pt x="232" y="397" on="0"/>
        <pt x="232" y="313" on="1"/>
        <pt x="232" y="183" on="1"/>
        <pt x="231" y="-62" on="0"/>
        <pt x="230" y="-71" on="1"/>
        <pt x="211" y="-205" on="0"/>
        <pt x="78" y="-205" on="1"/>
        <pt x="5" y="-205" on="0"/>
        <pt x="-57" y="-173" on="1"/>
        <pt x="-71" y="-166" on="0"/>
        <pt x="-71" y="-159" on="1"/>
        <pt x="-71" y="-156" on="0"/>
        <pt x="-53" y="-91" on="0"/>
        <pt x="-52" y="-89" on="1"/>
        <pt x="-49" y="-84" on="0"/>
      </contour>
    </TTGlyph>
    <TTGlyph name="k" xMin="63" yMin="0" xMax="496" yMax="694">
      <contour>
        <pt x="496" y="23" on="1"/>
        <pt x="496" y="5" on="0"/>
        <pt x="480" y="1" on="1"/>
        <pt x="472" y="0" on="1"/>
        <pt x="463" y="0" on="0"/>
        <pt x="438" y="0" on="0"/>
        <pt x="427" y="0" on="1"/>
        <pt x="394" y="0" on="1"/>
        <pt x="368" y="0" on="0"/>
        <pt x="354" y="11" on="1"/>
        <pt x="352" y="12" on="0"/>
        <pt x="288" y="99" on="1"/>
        <pt x="226" y="183" on="1"/>
        <pt x="220" y="177" on="0"/>
        <pt x="197" y="155" on="0"/>
        <pt x="191" y="150" on="1"/>
        <pt x="191" y="90" on="1"/>
        <pt x="191" y="31" on="0"/>
        <pt x="189" y="25" on="1"/>
        <pt x="183" y="6" on="0"/>
        <pt x="165" y="2" on="1"/>
        <pt x="160" y="0" on="0"/>
        <pt x="124" y="0" on="1"/>
        <pt x="90" y="1" on="1"/>
        <pt x="71" y="7" on="0"/>
        <pt x="63" y="28" on="1"/>
        <pt x="63" y="667" on="1"/>
        <pt x="69" y="685" on="0"/>
        <pt x="89" y="693" on="1"/>
        <pt x="91" y="694" on="0"/>
        <pt x="128" y="694" on="1"/>
        <pt x="164" y="694" on="0"/>
        <pt x="168" y="692" on="1"/>
        <pt x="186" y="687" on="0"/>
        <pt x="192" y="671" on="1"/>
        <pt x="194" y="663" on="0"/>
        <pt x="194" y="496" on="1"/>
        <pt x="195" y="325" on="1"/>
        <pt x="254" y="383" on="1"/>
        <pt x="266" y="394" on="0"/>
        <pt x="301" y="428" on="0"/>
        <pt x="318" y="444" on="0"/>
        <pt x="320" y="445" on="1"/>
        <pt x="332" y="453" on="0"/>
        <pt x="345" y="456" on="1"/>
        <pt x="352" y="458" on="0"/>
        <pt x="409" y="458" on="1"/>
        <pt x="464" y="458" on="0"/>
        <pt x="470" y="455" on="1"/>
        <pt x="480" y="450" on="0"/>
        <pt x="480" y="437" on="1"/>
        <pt x="480" y="430" on="0"/>
        <pt x="477" y="426" on="1"/>
        <pt x="319" y="271" on="1"/>
        <pt x="319" y="270" on="0"/>
        <pt x="398" y="163" on="0"/>
        <pt x="486" y="43" on="0"/>
        <pt x="494" y="32" on="1"/>
        <pt x="496" y="30" on="0"/>
      </contour>
    </TTGlyph>
    <TTGlyph name="l" xMin="54" yMin="0" xMax="201" yMax="694">
      <contour>
        <pt x="54" y="667" on="1"/>
        <pt x="60" y="685" on="0"/>
        <pt x="80" y="693" on="1"/>
        <pt x="82" y="694" on="0"/>
        <pt x="127" y="694" on="1"/>
        <pt x="170" y="694" on="0"/>
        <pt x="175" y="692" on="1"/>
        <pt x="194" y="687" on="0"/>
        <pt x="199" y="669" on="1"/>
        <pt x="201" y="663" on="0"/>
        <pt x="201" y="31" on="0"/>
        <pt x="199" y="25" on="1"/>
        <pt x="193" y="6" on="0"/>
        <pt x="175" y="2" on="1"/>
        <pt x="170" y="0" on="0"/>
        <pt x="125" y="0" on="1"/>
        <pt x="81" y="1" on="1"/>
        <pt x="62" y="7" on="0"/>
        <pt x="54" y="28" on="1"/>
      </contour>
    </TTGlyph>
    <TTGlyph name="m" xMin="53" yMin="0" xMax="815" yMax="469">
      <contour>
        <pt x="197" y="386" on="1"/>
        <pt x="256" y="468" on="0"/>
        <pt x="366" y="468" on="1"/>
        <pt x="475" y="468" on="0"/>
        <pt x="500" y="393" on="1"/>
        <pt x="503" y="385" on="1"/>
        <pt x="562" y="469" on="0"/>
        <pt x="666" y="469" on="1"/>
        <pt x="738" y="469" on="0"/>
        <pt x="808" y="414" on="0"/>
        <pt x="814" y="350" on="1"/>
        <pt x="815" y="343" on="0"/>
        <pt x="815" y="185" on="1"/>
        <pt x="815" y="31" on="0"/>
        <pt x="813" y="25" on="1"/>
        <pt x="807" y="6" on="0"/>
        <pt x="789" y="2" on="1"/>
        <pt x="784" y="0" on="0"/>
        <pt x="737" y="0" on="1"/>
        <pt x="692" y="1" on="1"/>
        <pt x="673" y="7" on="0"/>
        <pt x="665" y="28" on="1"/>
        <pt x="664" y="186" on="1"/>
        <pt x="663" y="345" on="0"/>
        <pt x="662" y="350" on="1"/>
        <pt x="653" y="381" on="0"/>
        <pt x="610" y="381" on="1"/>
        <pt x="562" y="381" on="0"/>
        <pt x="534" y="347" on="1"/>
        <pt x="513" y="321" on="0"/>
        <pt x="510" y="291" on="1"/>
        <pt x="509" y="286" on="0"/>
        <pt x="509" y="157" on="1"/>
        <pt x="509" y="31" on="0"/>
        <pt x="507" y="25" on="1"/>
        <pt x="501" y="6" on="0"/>
        <pt x="483" y="2" on="1"/>
        <pt x="478" y="0" on="0"/>
        <pt x="431" y="0" on="1"/>
        <pt x="386" y="1" on="1"/>
        <pt x="367" y="7" on="0"/>
        <pt x="359" y="28" on="1"/>
        <pt x="358" y="186" on="1"/>
        <pt x="357" y="345" on="0"/>
        <pt x="356" y="350" on="1"/>
        <pt x="347" y="381" on="0"/>
        <pt x="304" y="381" on="1"/>
        <pt x="256" y="381" on="0"/>
        <pt x="228" y="347" on="1"/>
        <pt x="207" y="321" on="0"/>
        <pt x="204" y="291" on="1"/>
        <pt x="203" y="286" on="0"/>
        <pt x="203" y="157" on="1"/>
        <pt x="203" y="31" on="0"/>
        <pt x="201" y="25" on="1"/>
        <pt x="195" y="6" on="0"/>
        <pt x="177" y="2" on="1"/>
        <pt x="172" y="0" on="0"/>
        <pt x="125" y="0" on="1"/>
        <pt x="80" y="1" on="1"/>
        <pt x="61" y="7" on="0"/>
        <pt x="53" y="28" on="1"/>
        <pt x="53" y="437" on="1"/>
        <pt x="58" y="453" on="0"/>
        <pt x="80" y="464" on="1"/>
        <pt x="122" y="464" on="1"/>
        <pt x="166" y="464" on="0"/>
        <pt x="171" y="462" on="1"/>
        <pt x="189" y="458" on="0"/>
        <pt x="195" y="439" on="1"/>
        <pt x="197" y="434" on="0"/>
        <pt x="197" y="409" on="1"/>
      </contour>
    </TTGlyph>
    <TTGlyph name="n" xMin="53" yMin="0" xMax="508" yMax="468">
      <contour>
        <pt x="53" y="437" on="1"/>
        <pt x="58" y="453" on="0"/>
        <pt x="80" y="464" on="1"/>
        <pt x="122" y="464" on="1"/>
        <pt x="166" y="464" on="0"/>
        <pt x="171" y="462" on="1"/>
        <pt x="189" y="458" on="0"/>
        <pt x="195" y="439" on="1"/>
        <pt x="197" y="434" on="0"/>
        <pt x="197" y="409" on="1"/>
        <pt x="197" y="386" on="1"/>
        <pt x="221" y="415" on="0"/>
        <pt x="235" y="426" on="1"/>
        <pt x="284" y="468" on="0"/>
        <pt x="350" y="468" on="1"/>
        <pt x="397" y="468" on="0"/>
        <pt x="451" y="456" on="0"/>
        <pt x="472" y="437" on="1"/>
        <pt x="503" y="408" on="0"/>
        <pt x="507" y="351" on="1"/>
        <pt x="508" y="342" on="0"/>
        <pt x="508" y="185" on="1"/>
        <pt x="508" y="31" on="0"/>
        <pt x="506" y="25" on="1"/>
        <pt x="501" y="7" on="0"/>
        <pt x="482" y="2" on="1"/>
        <pt x="478" y="0" on="0"/>
        <pt x="432" y="0" on="1"/>
        <pt x="387" y="0" on="0"/>
        <pt x="383" y="2" on="1"/>
        <pt x="365" y="7" on="0"/>
        <pt x="359" y="23" on="1"/>
        <pt x="357" y="31" on="0"/>
        <pt x="357" y="186" on="1"/>
        <pt x="356" y="345" on="0"/>
        <pt x="355" y="350" on="1"/>
        <pt x="349" y="369" on="0"/>
        <pt x="336" y="376" on="1"/>
        <pt x="324" y="381" on="0"/>
        <pt x="301" y="381" on="1"/>
        <pt x="270" y="381" on="0"/>
        <pt x="242" y="362" on="1"/>
        <pt x="209" y="336" on="0"/>
        <pt x="204" y="291" on="1"/>
        <pt x="203" y="286" on="0"/>
        <pt x="203" y="157" on="1"/>
        <pt x="203" y="31" on="0"/>
        <pt x="201" y="25" on="1"/>
        <pt x="195" y="6" on="0"/>
        <pt x="177" y="2" on="1"/>
        <pt x="172" y="0" on="0"/>
        <pt x="125" y="0" on="1"/>
        <pt x="80" y="1" on="1"/>
        <pt x="61" y="7" on="0"/>
        <pt x="53" y="28" on="1"/>
      </contour>
    </TTGlyph>
    <TTGlyph name="nine" xMin="46" yMin="-22" xMax="503" yMax="716">
      <contour>
        <pt x="115" y="661" on="1"/>
        <pt x="175" y="716" on="0"/>
        <pt x="276" y="716" on="1"/>
        <pt x="476" y="716" on="0"/>
        <pt x="499" y="456" on="1"/>
        <pt x="503" y="402" on="0"/>
        <pt x="503" y="342" on="1"/>
        <pt x="503" y="116" on="0"/>
        <pt x="392" y="29" on="1"/>
        <pt x="324" y="-22" on="0"/>
        <pt x="231" y="-22" on="1"/>
        <pt x="163" y="-22" on="0"/>
        <pt x="115" y="7" on="1"/>
        <pt x="100" y="17" on="0"/>
        <pt x="82" y="31" on="1"/>
        <pt x="76" y="38" on="0"/>
        <pt x="81" y="46" on="1"/>
        <pt x="116" y="112" on="0"/>
        <pt x="127" y="123" on="1"/>
        <pt x="130" y="126" on="0"/>
        <pt x="134" y="126" on="1"/>
        <pt x="139" y="126" on="0"/>
        <pt x="146" y="119" on="1"/>
        <pt x="182" y="87" on="0"/>
        <pt x="226" y="87" on="1"/>
        <pt x="287" y="87" on="0"/>
        <pt x="318" y="132" on="1"/>
        <pt x="338" y="162" on="0"/>
        <pt x="344" y="232" on="1"/>
        <pt x="347" y="272" on="1"/>
        <pt x="346" y="272" on="0"/>
        <pt x="342" y="265" on="1"/>
        <pt x="301" y="207" on="0"/>
        <pt x="230" y="207" on="1"/>
        <pt x="185" y="207" on="0"/>
        <pt x="150" y="223" on="1"/>
        <pt x="116" y="240" on="0"/>
        <pt x="64" y="313" on="0"/>
        <pt x="54" y="357" on="1"/>
        <pt x="46" y="393" on="0"/>
        <pt x="46" y="468" on="1"/>
        <pt x="46" y="477" on="0"/>
        <pt x="47" y="500" on="0"/>
        <pt x="48" y="515" on="0"/>
        <pt x="48" y="519" on="1"/>
        <pt x="58" y="606" on="0"/>
      </contour>
      <contour>
        <pt x="317" y="595" on="1"/>
        <pt x="300" y="612" on="0"/>
        <pt x="277" y="612" on="1"/>
        <pt x="220" y="612" on="0"/>
        <pt x="208" y="565" on="1"/>
        <pt x="201" y="536" on="0"/>
        <pt x="201" y="454" on="1"/>
        <pt x="201" y="345" on="0"/>
        <pt x="214" y="322" on="1"/>
        <pt x="227" y="297" on="0"/>
        <pt x="262" y="294" on="1"/>
        <pt x="283" y="294" on="0"/>
        <pt x="295" y="300" on="1"/>
        <pt x="347" y="327" on="0"/>
        <pt x="347" y="447" on="1"/>
        <pt x="347" y="469" on="0"/>
        <pt x="346" y="481" on="1"/>
        <pt x="344" y="535" on="0"/>
        <pt x="332" y="580" on="0"/>
      </contour>
    </TTGlyph>
    <TTGlyph name="numbersign" xMin="61" yMin="-193" xMax="855" yMax="694">
      <contour>
        <pt x="225" y="-193" on="1"/>
        <pt x="206" y="-193" on="0"/>
        <pt x="183" y="-168" on="0"/>
        <pt x="183" y="-151" on="1"/>
        <pt x="183" y="-144" on="0"/>
        <pt x="217" y="-26" on="1"/>
        <pt x="225" y="-1" on="0"/>
        <pt x="243" y="61" on="0"/>
        <pt x="248" y="76" on="1"/>
        <pt x="252" y="91" on="1"/>
        <pt x="252" y="93" on="0"/>
        <pt x="173" y="93" on="1"/>
        <pt x="94" y="94" on="1"/>
        <pt x="61" y="105" on="0"/>
        <pt x="61" y="135" on="1"/>
        <pt x="61" y="164" on="0"/>
        <pt x="88" y="174" on="1"/>
        <pt x="94" y="177" on="1"/>
        <pt x="185" y="177" on="1"/>
        <pt x="277" y="178" on="1"/>
        <pt x="297" y="248" on="1"/>
        <pt x="318" y="320" on="1"/>
        <pt x="318" y="323" on="1"/>
        <pt x="206" y="323" on="1"/>
        <pt x="94" y="324" on="1"/>
        <pt x="61" y="335" on="0"/>
        <pt x="61" y="365" on="1"/>
        <pt x="61" y="394" on="0"/>
        <pt x="88" y="404" on="1"/>
        <pt x="94" y="407" on="1"/>
        <pt x="344" y="407" on="1"/>
        <pt x="381" y="536" on="1"/>
        <pt x="418" y="666" on="0"/>
        <pt x="421" y="671" on="1"/>
        <pt x="431" y="694" on="0"/>
        <pt x="457" y="694" on="1"/>
        <pt x="476" y="694" on="0"/>
        <pt x="500" y="669" on="0"/>
        <pt x="500" y="651" on="1"/>
        <pt x="500" y="644" on="0"/>
        <pt x="466" y="527" on="1"/>
        <pt x="459" y="503" on="0"/>
        <pt x="440" y="438" on="0"/>
        <pt x="436" y="424" on="1"/>
        <pt x="431" y="409" on="1"/>
        <pt x="431" y="407" on="0"/>
        <pt x="504" y="407" on="1"/>
        <pt x="577" y="407" on="1"/>
        <pt x="609" y="521" on="1"/>
        <pt x="651" y="668" on="0"/>
        <pt x="656" y="675" on="1"/>
        <pt x="669" y="693" on="0"/>
        <pt x="691" y="693" on="1"/>
        <pt x="710" y="693" on="0"/>
        <pt x="733" y="668" on="0"/>
        <pt x="733" y="651" on="1"/>
        <pt x="733" y="644" on="0"/>
        <pt x="699" y="527" on="1"/>
        <pt x="692" y="503" on="0"/>
        <pt x="673" y="438" on="0"/>
        <pt x="668" y="424" on="1"/>
        <pt x="664" y="409" on="1"/>
        <pt x="664" y="407" on="0"/>
        <pt x="743" y="407" on="1"/>
        <pt x="823" y="407" on="1"/>
        <pt x="828" y="404" on="1"/>
        <pt x="855" y="394" on="0"/>
        <pt x="855" y="365" on="1"/>
        <pt x="855" y="337" on="0"/>
        <pt x="823" y="324" on="1"/>
        <pt x="731" y="323" on="1"/>
        <pt x="639" y="323" on="1"/>
        <pt x="619" y="253" on="1"/>
        <pt x="599" y="181" on="0"/>
        <pt x="598" y="180" on="1"/>
        <pt x="598" y="177" on="1"/>
        <pt x="823" y="177" on="1"/>
        <pt x="828" y="174" on="1"/>
        <pt x="855" y="164" on="0"/>
        <pt x="855" y="135" on="1"/>
        <pt x="855" y="107" on="0"/>
        <pt x="823" y="94" on="1"/>
        <pt x="698" y="93" on="1"/>
        <pt x="573" y="93" on="1"/>
        <pt x="540" y="-21" on="1"/>
        <pt x="498" y="-168" on="0"/>
        <pt x="493" y="-175" on="1"/>
        <pt x="480" y="-193" on="0"/>
        <pt x="458" y="-193" on="1"/>
        <pt x="439" y="-193" on="0"/>
        <pt x="416" y="-168" on="0"/>
        <pt x="416" y="-151" on="1"/>
        <pt x="416" y="-144" on="0"/>
        <pt x="450" y="-26" on="1"/>
        <pt x="458" y="-1" on="0"/>
        <pt x="476" y="61" on="0"/>
        <pt x="480" y="76" on="1"/>
        <pt x="485" y="91" on="1"/>
        <pt x="485" y="93" on="0"/>
        <pt x="412" y="93" on="1"/>
        <pt x="340" y="93" on="1"/>
        <pt x="307" y="-21" on="1"/>
        <pt x="265" y="-168" on="0"/>
        <pt x="260" y="-175" on="1"/>
        <pt x="247" y="-193" on="0"/>
      </contour>
      <contour>
        <pt x="551" y="320" on="1"/>
        <pt x="551" y="323" on="1"/>
        <pt x="479" y="323" on="1"/>
        <pt x="406" y="323" on="0"/>
        <pt x="405" y="322" on="1"/>
        <pt x="404" y="319" on="0"/>
        <pt x="365" y="179" on="0"/>
        <pt x="365" y="177" on="0"/>
        <pt x="438" y="177" on="1"/>
        <pt x="510" y="178" on="1"/>
        <pt x="530" y="248" on="1"/>
      </contour>
    </TTGlyph>
    <TTGlyph name="o" xMin="32" yMin="-11" xMax="518" yMax="474">
      <contour>
        <pt x="274" y="-11" on="1"/>
        <pt x="32" y="-11" on="0"/>
        <pt x="32" y="225" on="1"/>
        <pt x="32" y="344" on="0"/>
        <pt x="138" y="466" on="0"/>
        <pt x="249" y="474" on="1"/>
        <pt x="266" y="474" on="1"/>
        <pt x="311" y="474" on="0"/>
        <pt x="320" y="473" on="1"/>
        <pt x="518" y="449" on="0"/>
        <pt x="518" y="225" on="1"/>
        <pt x="518" y="-11" on="0"/>
      </contour>
      <contour>
        <pt x="367" y="233" on="1"/>
        <pt x="367" y="269" on="0"/>
        <pt x="365" y="308" on="0"/>
        <pt x="355" y="352" on="0"/>
        <pt x="334" y="373" on="0"/>
        <pt x="297" y="387" on="0"/>
        <pt x="270" y="387" on="1"/>
        <pt x="207" y="387" on="0"/>
        <pt x="192" y="338" on="1"/>
        <pt x="182" y="308" on="0"/>
        <pt x="182" y="233" on="1"/>
        <pt x="182" y="174" on="0"/>
        <pt x="194" y="119" on="0"/>
        <pt x="210" y="104" on="1"/>
        <pt x="231" y="83" on="0"/>
        <pt x="275" y="83" on="1"/>
        <pt x="318" y="83" on="0"/>
        <pt x="339" y="104" on="1"/>
        <pt x="355" y="119" on="0"/>
        <pt x="367" y="174" on="0"/>
      </contour>
    </TTGlyph>
    <TTGlyph name="one" xMin="76" yMin="1" xMax="473" yMax="716">
      <contour>
        <pt x="118" y="560" on="1"/>
        <pt x="96" y="560" on="0"/>
        <pt x="78" y="578" on="0"/>
        <pt x="76" y="600" on="1"/>
        <pt x="76" y="633" on="0"/>
        <pt x="99" y="644" on="1"/>
        <pt x="104" y="646" on="0"/>
        <pt x="126" y="647" on="1"/>
        <pt x="225" y="651" on="0"/>
        <pt x="275" y="700" on="1"/>
        <pt x="290" y="714" on="0"/>
        <pt x="299" y="715" on="1"/>
        <pt x="303" y="716" on="0"/>
        <pt x="310" y="716" on="1"/>
        <pt x="354" y="716" on="0"/>
        <pt x="360" y="691" on="1"/>
        <pt x="362" y="685" on="0"/>
        <pt x="362" y="386" on="1"/>
        <pt x="362" y="87" on="1"/>
        <pt x="446" y="87" on="1"/>
        <pt x="457" y="81" on="0"/>
        <pt x="466" y="73" on="0"/>
        <pt x="473" y="57" on="0"/>
        <pt x="473" y="44" on="1"/>
        <pt x="473" y="11" on="0"/>
        <pt x="446" y="1" on="1"/>
        <pt x="118" y="1" on="1"/>
        <pt x="102" y="8" on="0"/>
        <pt x="93" y="22" on="0"/>
        <pt x="93" y="44" on="1"/>
        <pt x="93" y="62" on="1"/>
        <pt x="100" y="79" on="0"/>
        <pt x="119" y="87" on="1"/>
        <pt x="210" y="87" on="1"/>
        <pt x="210" y="329" on="1"/>
        <pt x="210" y="571" on="0"/>
        <pt x="208" y="571" on="1"/>
        <pt x="180" y="560" on="0"/>
      </contour>
    </TTGlyph>
    <TTGlyph name="p" xMin="54" yMin="-194" xMax="523" yMax="469">
      <contour>
        <pt x="323" y="-11" on="1"/>
        <pt x="254" y="-11" on="0"/>
        <pt x="204" y="33" on="1"/>
        <pt x="204" y="-65" on="1"/>
        <pt x="204" y="-163" on="0"/>
        <pt x="202" y="-169" on="1"/>
        <pt x="196" y="-188" on="0"/>
        <pt x="178" y="-192" on="1"/>
        <pt x="173" y="-194" on="0"/>
        <pt x="126" y="-194" on="1"/>
        <pt x="81" y="-193" on="1"/>
        <pt x="62" y="-187" on="0"/>
        <pt x="54" y="-166" on="1"/>
        <pt x="54" y="431" on="1"/>
        <pt x="59" y="447" on="0"/>
        <pt x="81" y="458" on="1"/>
        <pt x="125" y="458" on="1"/>
        <pt x="170" y="458" on="0"/>
        <pt x="175" y="456" on="1"/>
        <pt x="196" y="450" on="0"/>
        <pt x="202" y="420" on="1"/>
        <pt x="211" y="426" on="1"/>
        <pt x="280" y="469" on="0"/>
        <pt x="354" y="469" on="1"/>
        <pt x="356" y="469" on="0"/>
        <pt x="366" y="468" on="0"/>
        <pt x="369" y="468" on="1"/>
        <pt x="442" y="468" on="0"/>
        <pt x="481" y="412" on="1"/>
        <pt x="523" y="354" on="0"/>
        <pt x="523" y="223" on="1"/>
        <pt x="523" y="25" on="0"/>
        <pt x="371" y="-6" on="1"/>
        <pt x="343" y="-11" on="0"/>
      </contour>
      <contour>
        <pt x="282" y="376" on="1"/>
        <pt x="245" y="376" on="0"/>
        <pt x="204" y="352" on="1"/>
        <pt x="204" y="107" on="1"/>
        <pt x="210" y="102" on="1"/>
        <pt x="238" y="76" on="0"/>
        <pt x="274" y="76" on="1"/>
        <pt x="323" y="76" on="0"/>
        <pt x="349" y="116" on="1"/>
        <pt x="372" y="153" on="0"/>
        <pt x="372" y="230" on="1"/>
        <pt x="372" y="299" on="0"/>
        <pt x="334" y="376" on="0"/>
      </contour>
    </TTGlyph>
    <TTGlyph name="parenleft" xMin="79" yMin="-249" xMax="366" yMax="750">
      <contour>
        <pt x="366" y="-238" on="1"/>
        <pt x="366" y="-242" on="0"/>
        <pt x="359" y="-249" on="1"/>
        <pt x="286" y="-249" on="1"/>
        <pt x="277" y="-242" on="1"/>
        <pt x="121" y="-110" on="0"/>
        <pt x="87" y="128" on="1"/>
        <pt x="79" y="177" on="0"/>
        <pt x="79" y="323" on="0"/>
        <pt x="87" y="372" on="1"/>
        <pt x="121" y="612" on="0"/>
        <pt x="277" y="742" on="1"/>
        <pt x="286" y="749" on="0"/>
        <pt x="287" y="749" on="1"/>
        <pt x="288" y="750" on="0"/>
        <pt x="324" y="750" on="1"/>
        <pt x="359" y="750" on="1"/>
        <pt x="366" y="741" on="0"/>
        <pt x="366" y="738" on="1"/>
        <pt x="366" y="733" on="0"/>
        <pt x="355" y="719" on="1"/>
        <pt x="260" y="602" on="0"/>
        <pt x="238" y="407" on="1"/>
        <pt x="230" y="346" on="0"/>
        <pt x="230" y="250" on="1"/>
        <pt x="230" y="-65" on="0"/>
        <pt x="355" y="-219" on="1"/>
        <pt x="366" y="-233" on="0"/>
      </contour>
    </TTGlyph>
    <TTGlyph name="parenright" xMin="61" yMin="-250" xMax="348" yMax="750">
      <contour>
        <pt x="67" y="748" on="1"/>
        <pt x="70" y="750" on="0"/>
        <pt x="106" y="750" on="1"/>
        <pt x="141" y="750" on="1"/>
        <pt x="150" y="742" on="1"/>
        <pt x="306" y="610" on="0"/>
        <pt x="340" y="372" on="1"/>
        <pt x="348" y="323" on="0"/>
        <pt x="348" y="177" on="0"/>
        <pt x="340" y="128" on="1"/>
        <pt x="306" y="-110" on="0"/>
        <pt x="150" y="-242" on="1"/>
        <pt x="141" y="-249" on="1"/>
        <pt x="106" y="-250" on="1"/>
        <pt x="77" y="-250" on="0"/>
        <pt x="66" y="-248" on="0"/>
        <pt x="63" y="-244" on="1"/>
        <pt x="61" y="-240" on="0"/>
        <pt x="61" y="-238" on="1"/>
        <pt x="61" y="-233" on="0"/>
        <pt x="74" y="-216" on="1"/>
        <pt x="157" y="-113" on="0"/>
        <pt x="183" y="51" on="1"/>
        <pt x="197" y="130" on="0"/>
        <pt x="197" y="370" on="0"/>
        <pt x="183" y="449" on="1"/>
        <pt x="157" y="612" on="0"/>
        <pt x="74" y="717" on="1"/>
        <pt x="61" y="734" on="0"/>
        <pt x="61" y="737" on="1"/>
        <pt x="61" y="744" on="0"/>
      </contour>
    </TTGlyph>
    <TTGlyph name="percent" xMin="61" yMin="-56" xMax="966" yMax="750">
      <contour>
        <pt x="422" y="548" on="1"/>
        <pt x="422" y="347" on="0"/>
        <pt x="243" y="347" on="1"/>
        <pt x="61" y="347" on="0"/>
        <pt x="61" y="549" on="1"/>
        <pt x="61" y="733" on="0"/>
        <pt x="218" y="749" on="1"/>
        <pt x="220" y="749" on="0"/>
        <pt x="236" y="750" on="0"/>
        <pt x="241" y="750" on="1"/>
        <pt x="422" y="750" on="0"/>
      </contour>
      <contour>
        <pt x="196" y="548" on="1"/>
        <pt x="196" y="529" on="1"/>
        <pt x="196" y="497" on="0"/>
        <pt x="200" y="463" on="0"/>
        <pt x="221" y="434" on="0"/>
        <pt x="242" y="434" on="1"/>
        <pt x="251" y="434" on="0"/>
        <pt x="258" y="438" on="1"/>
        <pt x="292" y="454" on="0"/>
        <pt x="292" y="549" on="1"/>
        <pt x="292" y="643" on="0"/>
        <pt x="258" y="659" on="1"/>
        <pt x="251" y="663" on="0"/>
        <pt x="242" y="663" on="1"/>
        <pt x="221" y="663" on="0"/>
        <pt x="200" y="633" on="0"/>
        <pt x="196" y="599" on="0"/>
        <pt x="196" y="567" on="1"/>
      </contour>
      <contour>
        <pt x="243" y="-55" on="1"/>
        <pt x="225" y="-55" on="0"/>
        <pt x="201" y="-30" on="0"/>
        <pt x="201" y="-13" on="1"/>
        <pt x="201" y="-2" on="0"/>
        <pt x="207" y="7" on="1"/>
        <pt x="209" y="11" on="0"/>
        <pt x="752" y="731" on="0"/>
        <pt x="758" y="738" on="1"/>
        <pt x="770" y="750" on="0"/>
        <pt x="788" y="750" on="1"/>
        <pt x="805" y="750" on="0"/>
        <pt x="830" y="727" on="0"/>
        <pt x="830" y="709" on="1"/>
        <pt x="830" y="694" on="0"/>
        <pt x="820" y="681" on="1"/>
        <pt x="816" y="675" on="0"/>
        <pt x="274" y="-42" on="0"/>
        <pt x="269" y="-47" on="1"/>
        <pt x="258" y="-55" on="0"/>
      </contour>
      <contour>
        <pt x="606" y="146" on="1"/>
        <pt x="606" y="330" on="0"/>
        <pt x="763" y="346" on="1"/>
        <pt x="764" y="346" on="0"/>
        <pt x="782" y="347" on="0"/>
        <pt x="786" y="347" on="1"/>
        <pt x="853" y="347" on="0"/>
        <pt x="896" y="318" on="1"/>
        <pt x="966" y="273" on="0"/>
        <pt x="966" y="146" on="1"/>
        <pt x="966" y="58" on="0"/>
        <pt x="934" y="11" on="1"/>
        <pt x="921" y="-11" on="0"/>
        <pt x="896" y="-27" on="1"/>
        <pt x="852" y="-56" on="0"/>
        <pt x="788" y="-56" on="1"/>
        <pt x="606" y="-56" on="0"/>
      </contour>
      <contour>
        <pt x="832" y="212" on="1"/>
        <pt x="820" y="260" on="0"/>
        <pt x="754" y="260" on="0"/>
        <pt x="747" y="227" on="1"/>
        <pt x="742" y="210" on="0"/>
        <pt x="742" y="146" on="1"/>
        <pt x="742" y="81" on="0"/>
        <pt x="747" y="64" on="1"/>
        <pt x="754" y="31" on="0"/>
        <pt x="820" y="31" on="0"/>
        <pt x="832" y="79" on="1"/>
        <pt x="837" y="97" on="0"/>
        <pt x="837" y="146" on="1"/>
        <pt x="837" y="194" on="0"/>
      </contour>
    </TTGlyph>
    <TTGlyph name="period" xMin="80" yMin="0" xMax="226" yMax="146">
      <contour>
        <pt x="219" y="146" on="1"/>
        <pt x="222" y="142" on="0"/>
        <pt x="226" y="139" on="1"/>
        <pt x="226" y="7" on="1"/>
        <pt x="222" y="4" on="1"/>
        <pt x="219" y="1" on="1"/>
        <pt x="154" y="0" on="1"/>
        <pt x="102" y="0" on="0"/>
        <pt x="85" y="1" on="0"/>
        <pt x="82" y="6" on="1"/>
        <pt x="80" y="9" on="0"/>
        <pt x="80" y="74" on="1"/>
        <pt x="81" y="139" on="1"/>
        <pt x="84" y="145" on="0"/>
        <pt x="88" y="145" on="1"/>
        <pt x="89" y="146" on="0"/>
        <pt x="154" y="146" on="1"/>
      </contour>
    </TTGlyph>
    <TTGlyph name="plus" xMin="61" yMin="-116" xMax="794" yMax="617">
      <contour>
        <pt x="61" y="250" on="1"/>
        <pt x="61" y="276" on="0"/>
        <pt x="94" y="292" on="1"/>
        <pt x="386" y="292" on="1"/>
        <pt x="386" y="436" on="1"/>
        <pt x="386" y="581" on="0"/>
        <pt x="388" y="587" on="1"/>
        <pt x="391" y="601" on="0"/>
        <pt x="401" y="607" on="1"/>
        <pt x="411" y="617" on="0"/>
        <pt x="427" y="617" on="1"/>
        <pt x="457" y="617" on="0"/>
        <pt x="468" y="587" on="1"/>
        <pt x="470" y="581" on="0"/>
        <pt x="470" y="436" on="1"/>
        <pt x="470" y="292" on="1"/>
        <pt x="762" y="292" on="1"/>
        <pt x="767" y="289" on="1"/>
        <pt x="794" y="279" on="0"/>
        <pt x="794" y="250" on="1"/>
        <pt x="794" y="222" on="0"/>
        <pt x="762" y="209" on="1"/>
        <pt x="616" y="208" on="1"/>
        <pt x="470" y="208" on="1"/>
        <pt x="470" y="64" on="1"/>
        <pt x="470" y="-81" on="0"/>
        <pt x="468" y="-87" on="1"/>
        <pt x="459" y="-116" on="0"/>
        <pt x="397" y="-116" on="0"/>
        <pt x="388" y="-87" on="1"/>
        <pt x="386" y="-81" on="0"/>
        <pt x="386" y="64" on="1"/>
        <pt x="386" y="208" on="1"/>
        <pt x="240" y="208" on="1"/>
        <pt x="94" y="209" on="1"/>
        <pt x="61" y="221" on="0"/>
      </contour>
    </TTGlyph>
    <TTGlyph name="q" xMin="37" yMin="-194" xMax="507" yMax="469">
      <contour>
        <pt x="37" y="236" on="1"/>
        <pt x="37" y="451" on="0"/>
        <pt x="216" y="468" on="1"/>
        <pt x="218" y="468" on="0"/>
        <pt x="229" y="469" on="0"/>
        <pt x="233" y="469" on="1"/>
        <pt x="300" y="469" on="0"/>
        <pt x="349" y="422" on="1"/>
        <pt x="359" y="413" on="1"/>
        <pt x="359" y="425" on="1"/>
        <pt x="359" y="452" on="0"/>
        <pt x="376" y="464" on="1"/>
        <pt x="384" y="469" on="0"/>
        <pt x="433" y="469" on="1"/>
        <pt x="476" y="469" on="0"/>
        <pt x="481" y="467" on="1"/>
        <pt x="500" y="462" on="0"/>
        <pt x="505" y="444" on="1"/>
        <pt x="507" y="438" on="0"/>
        <pt x="507" y="137" on="1"/>
        <pt x="507" y="-163" on="0"/>
        <pt x="505" y="-169" on="1"/>
        <pt x="500" y="-187" on="0"/>
        <pt x="481" y="-192" on="1"/>
        <pt x="477" y="-194" on="0"/>
        <pt x="432" y="-194" on="1"/>
        <pt x="386" y="-194" on="0"/>
        <pt x="382" y="-192" on="1"/>
        <pt x="364" y="-187" on="0"/>
        <pt x="358" y="-171" on="1"/>
        <pt x="356" y="-163" on="0"/>
        <pt x="356" y="-63" on="1"/>
        <pt x="356" y="40" on="1"/>
        <pt x="348" y="33" on="1"/>
        <pt x="294" y="-11" on="0"/>
        <pt x="226" y="-11" on="1"/>
        <pt x="180" y="-11" on="0"/>
        <pt x="139" y="8" on="1"/>
        <pt x="37" y="56" on="0"/>
      </contour>
      <contour>
        <pt x="272" y="375" on="1"/>
        <pt x="188" y="363" on="0"/>
        <pt x="188" y="228" on="1"/>
        <pt x="188" y="157" on="0"/>
        <pt x="208" y="118" on="1"/>
        <pt x="228" y="77" on="0"/>
        <pt x="275" y="77" on="1"/>
        <pt x="321" y="77" on="0"/>
        <pt x="359" y="120" on="1"/>
        <pt x="359" y="328" on="1"/>
        <pt x="346" y="346" on="0"/>
        <pt x="331" y="362" on="0"/>
        <pt x="302" y="375" on="0"/>
        <pt x="281" y="375" on="1"/>
      </contour>
    </TTGlyph>
    <TTGlyph name="question" xMin="61" yMin="0" xMax="457" yMax="705">
      <contour>
        <pt x="306" y="559" on="1"/>
        <pt x="306" y="595" on="0"/>
        <pt x="286" y="618" on="0"/>
        <pt x="253" y="618" on="1"/>
        <pt x="172" y="618" on="0"/>
        <pt x="125" y="565" on="1"/>
        <pt x="112" y="547" on="0"/>
        <pt x="104" y="547" on="1"/>
        <pt x="99" y="547" on="0"/>
        <pt x="95" y="551" on="1"/>
        <pt x="93" y="553" on="0"/>
        <pt x="61" y="641" on="0"/>
        <pt x="61" y="644" on="1"/>
        <pt x="61" y="652" on="0"/>
        <pt x="88" y="666" on="1"/>
        <pt x="161" y="705" on="0"/>
        <pt x="244" y="705" on="1"/>
        <pt x="347" y="705" on="0"/>
        <pt x="457" y="634" on="0"/>
        <pt x="457" y="551" on="1"/>
        <pt x="457" y="475" on="0"/>
        <pt x="405" y="435" on="1"/>
        <pt x="324" y="373" on="0"/>
        <pt x="306" y="300" on="1"/>
        <pt x="304" y="289" on="0"/>
        <pt x="303" y="252" on="1"/>
        <pt x="303" y="218" on="0"/>
        <pt x="297" y="208" on="0"/>
        <pt x="283" y="207" on="0"/>
        <pt x="244" y="207" on="1"/>
        <pt x="206" y="207" on="0"/>
        <pt x="192" y="208" on="0"/>
        <pt x="188" y="213" on="1"/>
        <pt x="187" y="214" on="0"/>
        <pt x="186" y="215" on="1"/>
        <pt x="186" y="255" on="1"/>
        <pt x="187" y="305" on="0"/>
        <pt x="194" y="331" on="1"/>
        <pt x="215" y="414" on="0"/>
        <pt x="288" y="496" on="1"/>
        <pt x="306" y="515" on="0"/>
      </contour>
      <contour>
        <pt x="197" y="144" on="1"/>
        <pt x="201" y="146" on="0"/>
        <pt x="287" y="146" on="0"/>
        <pt x="291" y="144" on="1"/>
        <pt x="310" y="139" on="0"/>
        <pt x="315" y="121" on="1"/>
        <pt x="317" y="115" on="0"/>
        <pt x="317" y="31" on="0"/>
        <pt x="315" y="25" on="1"/>
        <pt x="309" y="6" on="0"/>
        <pt x="291" y="2" on="1"/>
        <pt x="286" y="0" on="0"/>
        <pt x="242" y="0" on="1"/>
        <pt x="199" y="1" on="1"/>
        <pt x="178" y="9" on="0"/>
        <pt x="172" y="28" on="1"/>
        <pt x="171" y="71" on="1"/>
        <pt x="171" y="114" on="0"/>
        <pt x="173" y="120" on="1"/>
        <pt x="178" y="139" on="0"/>
      </contour>
    </TTGlyph>
    <TTGlyph name="quotedbl" xMin="37" yMin="442" xMax="420" yMax="694">
      <contour>
        <pt x="38" y="687" on="1"/>
        <pt x="41" y="693" on="0"/>
        <pt x="45" y="693" on="1"/>
        <pt x="46" y="694" on="0"/>
        <pt x="111" y="694" on="1"/>
        <pt x="176" y="694" on="1"/>
        <pt x="179" y="690" on="0"/>
        <pt x="183" y="687" on="1"/>
        <pt x="183" y="556" on="1"/>
        <pt x="144" y="501" on="1"/>
        <pt x="106" y="445" on="0"/>
        <pt x="103" y="444" on="1"/>
        <pt x="101" y="442" on="0"/>
        <pt x="73" y="442" on="1"/>
        <pt x="42" y="442" on="0"/>
        <pt x="39" y="448" on="1"/>
        <pt x="37" y="450" on="0"/>
        <pt x="37" y="453" on="1"/>
        <pt x="37" y="455" on="0"/>
        <pt x="55" y="501" on="1"/>
        <pt x="74" y="546" on="1"/>
        <pt x="74" y="548" on="0"/>
        <pt x="59" y="548" on="1"/>
        <pt x="44" y="549" on="1"/>
        <pt x="38" y="555" on="1"/>
      </contour>
      <contour>
        <pt x="275" y="687" on="1"/>
        <pt x="278" y="693" on="0"/>
        <pt x="282" y="693" on="1"/>
        <pt x="283" y="694" on="0"/>
        <pt x="348" y="694" on="1"/>
        <pt x="413" y="694" on="1"/>
        <pt x="416" y="690" on="0"/>
        <pt x="420" y="687" on="1"/>
        <pt x="420" y="556" on="1"/>
        <pt x="381" y="501" on="1"/>
        <pt x="343" y="445" on="0"/>
        <pt x="340" y="444" on="1"/>
        <pt x="338" y="442" on="0"/>
        <pt x="310" y="442" on="1"/>
        <pt x="279" y="442" on="0"/>
        <pt x="276" y="448" on="1"/>
        <pt x="274" y="450" on="0"/>
        <pt x="274" y="453" on="1"/>
        <pt x="274" y="455" on="0"/>
        <pt x="292" y="501" on="1"/>
        <pt x="311" y="546" on="1"/>
        <pt x="311" y="548" on="0"/>
        <pt x="296" y="548" on="1"/>
        <pt x="281" y="549" on="1"/>
        <pt x="275" y="555" on="1"/>
      </contour>
    </TTGlyph>
    <TTGlyph name="quotedblleft" xMin="138" yMin="443" xMax="520" yMax="694">
      <contour>
        <pt x="144" y="443" on="1"/>
        <pt x="138" y="449" on="1"/>
        <pt x="138" y="581" on="1"/>
        <pt x="176" y="636" on="1"/>
        <pt x="215" y="691" on="0"/>
        <pt x="217" y="692" on="1"/>
        <pt x="219" y="694" on="0"/>
        <pt x="247" y="694" on="1"/>
        <pt x="278" y="694" on="0"/>
        <pt x="281" y="688" on="1"/>
        <pt x="283" y="686" on="0"/>
        <pt x="283" y="683" on="1"/>
        <pt x="283" y="681" on="0"/>
        <pt x="265" y="635" on="1"/>
        <pt x="246" y="590" on="1"/>
        <pt x="246" y="588" on="0"/>
        <pt x="261" y="588" on="1"/>
        <pt x="276" y="588" on="1"/>
        <pt x="279" y="584" on="0"/>
        <pt x="283" y="581" on="1"/>
        <pt x="283" y="449" on="1"/>
        <pt x="280" y="447" on="0"/>
        <pt x="276" y="443" on="1"/>
      </contour>
      <contour>
        <pt x="381" y="443" on="1"/>
        <pt x="375" y="449" on="1"/>
        <pt x="375" y="581" on="1"/>
        <pt x="413" y="636" on="1"/>
        <pt x="452" y="691" on="0"/>
        <pt x="454" y="692" on="1"/>
        <pt x="456" y="694" on="0"/>
        <pt x="484" y="694" on="1"/>
        <pt x="515" y="694" on="0"/>
        <pt x="518" y="688" on="1"/>
        <pt x="520" y="686" on="0"/>
        <pt x="520" y="683" on="1"/>
        <pt x="520" y="681" on="0"/>
        <pt x="502" y="635" on="1"/>
        <pt x="483" y="590" on="1"/>
        <pt x="483" y="588" on="0"/>
        <pt x="498" y="588" on="1"/>
        <pt x="513" y="588" on="1"/>
        <pt x="516" y="584" on="0"/>
        <pt x="520" y="581" on="1"/>
        <pt x="520" y="449" on="1"/>
        <pt x="517" y="447" on="0"/>
        <pt x="513" y="443" on="1"/>
      </contour>
    </TTGlyph>
    <TTGlyph name="quotedblright" xMin="37" yMin="442" xMax="420" yMax="694">
      <contour>
        <pt x="38" y="687" on="1"/>
        <pt x="41" y="693" on="0"/>
        <pt x="45" y="693" on="1"/>
        <pt x="46" y="694" on="0"/>
        <pt x="111" y="694" on="1"/>
        <pt x="176" y="694" on="1"/>
        <pt x="179" y="690" on="0"/>
        <pt x="183" y="687" on="1"/>
        <pt x="183" y="556" on="1"/>
        <pt x="144" y="501" on="1"/>
        <pt x="106" y="445" on="0"/>
        <pt x="103" y="444" on="1"/>
        <pt x="101" y="442" on="0"/>
        <pt x="73" y="442" on="1"/>
        <pt x="42" y="442" on="0"/>
        <pt x="39" y="448" on="1"/>
        <pt x="37" y="450" on="0"/>
        <pt x="37" y="453" on="1"/>
        <pt x="37" y="455" on="0"/>
        <pt x="55" y="501" on="1"/>
        <pt x="74" y="546" on="1"/>
        <pt x="74" y="548" on="0"/>
        <pt x="59" y="548" on="1"/>
        <pt x="44" y="549" on="1"/>
        <pt x="38" y="555" on="1"/>
      </contour>
      <contour>
        <pt x="275" y="687" on="1"/>
        <pt x="278" y="693" on="0"/>
        <pt x="282" y="693" on="1"/>
        <pt x="283" y="694" on="0"/>
        <pt x="348" y="694" on="1"/>
        <pt x="413" y="694" on="1"/>
        <pt x="416" y="690" on="0"/>
        <pt x="420" y="687" on="1"/>
        <pt x="420" y="556" on="1"/>
        <pt x="381" y="501" on="1"/>
        <pt x="343" y="445" on="0"/>
        <pt x="340" y="444" on="1"/>
        <pt x="338" y="442" on="0"/>
        <pt x="310" y="442" on="1"/>
        <pt x="279" y="442" on="0"/>
        <pt x="276" y="448" on="1"/>
        <pt x="274" y="450" on="0"/>
        <pt x="274" y="453" on="1"/>
        <pt x="274" y="455" on="0"/>
        <pt x="292" y="501" on="1"/>
        <pt x="311" y="546" on="1"/>
        <pt x="311" y="548" on="0"/>
        <pt x="296" y="548" on="1"/>
        <pt x="281" y="549" on="1"/>
        <pt x="275" y="555" on="1"/>
      </contour>
    </TTGlyph>
    <TTGlyph name="quoteleft" xMin="81" yMin="443" xMax="226" yMax="694">
      <contour>
        <pt x="87" y="443" on="1"/>
        <pt x="81" y="449" on="1"/>
        <pt x="81" y="581" on="1"/>
        <pt x="119" y="636" on="1"/>
        <pt x="158" y="691" on="0"/>
        <pt x="160" y="692" on="1"/>
        <pt x="162" y="694" on="0"/>
        <pt x="190" y="694" on="1"/>
        <pt x="221" y="694" on="0"/>
        <pt x="224" y="688" on="1"/>
        <pt x="226" y="686" on="0"/>
        <pt x="226" y="683" on="1"/>
        <pt x="226" y="681" on="0"/>
        <pt x="208" y="635" on="1"/>
        <pt x="189" y="590" on="1"/>
        <pt x="189" y="588" on="0"/>
        <pt x="204" y="588" on="1"/>
        <pt x="219" y="588" on="1"/>
        <pt x="222" y="584" on="0"/>
        <pt x="226" y="581" on="1"/>
        <pt x="226" y="449" on="1"/>
        <pt x="223" y="447" on="0"/>
        <pt x="219" y="443" on="1"/>
      </contour>
    </TTGlyph>
    <TTGlyph name="quoteright" xMin="80" yMin="442" xMax="226" yMax="694">
      <contour>
        <pt x="81" y="687" on="1"/>
        <pt x="84" y="693" on="0"/>
        <pt x="88" y="693" on="1"/>
        <pt x="89" y="694" on="0"/>
        <pt x="154" y="694" on="1"/>
        <pt x="219" y="694" on="1"/>
        <pt x="222" y="690" on="0"/>
        <pt x="226" y="687" on="1"/>
        <pt x="226" y="556" on="1"/>
        <pt x="187" y="501" on="1"/>
        <pt x="149" y="445" on="0"/>
        <pt x="146" y="444" on="1"/>
        <pt x="144" y="442" on="0"/>
        <pt x="116" y="442" on="1"/>
        <pt x="85" y="442" on="0"/>
        <pt x="82" y="448" on="1"/>
        <pt x="80" y="450" on="0"/>
        <pt x="80" y="453" on="1"/>
        <pt x="80" y="455" on="0"/>
        <pt x="98" y="501" on="1"/>
        <pt x="117" y="546" on="1"/>
        <pt x="117" y="548" on="0"/>
        <pt x="102" y="548" on="1"/>
        <pt x="87" y="549" on="1"/>
        <pt x="81" y="555" on="1"/>
      </contour>
    </TTGlyph>
    <TTGlyph name="quotesingle" xMin="80" yMin="442" xMax="226" yMax="694">
      <contour>
        <pt x="81" y="687" on="1"/>
        <pt x="84" y="693" on="0"/>
        <pt x="88" y="693" on="1"/>
        <pt x="89" y="694" on="0"/>
        <pt x="154" y="694" on="1"/>
        <pt x="219" y="694" on="1"/>
        <pt x="222" y="690" on="0"/>
        <pt x="226" y="687" on="1"/>
        <pt x="226" y="556" on="1"/>
        <pt x="187" y="501" on="1"/>
        <pt x="149" y="445" on="0"/>
        <pt x="146" y="444" on="1"/>
        <pt x="144" y="442" on="0"/>
        <pt x="116" y="442" on="1"/>
        <pt x="85" y="442" on="0"/>
        <pt x="82" y="448" on="1"/>
        <pt x="80" y="450" on="0"/>
        <pt x="80" y="453" on="1"/>
        <pt x="80" y="455" on="0"/>
        <pt x="98" y="501" on="1"/>
        <pt x="117" y="546" on="1"/>
        <pt x="117" y="548" on="0"/>
        <pt x="102" y="548" on="1"/>
        <pt x="87" y="549" on="1"/>
        <pt x="81" y="555" on="1"/>
      </contour>
    </TTGlyph>
    <TTGlyph name="r" xMin="54" yMin="0" xMax="356" yMax="469">
      <contour>
        <pt x="54" y="437" on="1"/>
        <pt x="59" y="453" on="0"/>
        <pt x="81" y="464" on="1"/>
        <pt x="122" y="464" on="1"/>
        <pt x="165" y="464" on="0"/>
        <pt x="170" y="462" on="1"/>
        <pt x="188" y="458" on="0"/>
        <pt x="194" y="439" on="1"/>
        <pt x="196" y="434" on="0"/>
        <pt x="196" y="405" on="1"/>
        <pt x="196" y="377" on="1"/>
        <pt x="203" y="387" on="1"/>
        <pt x="222" y="418" on="0"/>
        <pt x="286" y="463" on="0"/>
        <pt x="324" y="468" on="1"/>
        <pt x="325" y="468" on="0"/>
        <pt x="337" y="469" on="0"/>
        <pt x="340" y="469" on="1"/>
        <pt x="346" y="469" on="0"/>
        <pt x="356" y="462" on="1"/>
        <pt x="356" y="360" on="1"/>
        <pt x="347" y="354" on="0"/>
        <pt x="337" y="353" on="1"/>
        <pt x="283" y="350" on="0"/>
        <pt x="207" y="293" on="0"/>
        <pt x="202" y="252" on="1"/>
        <pt x="201" y="247" on="0"/>
        <pt x="201" y="138" on="1"/>
        <pt x="201" y="31" on="0"/>
        <pt x="199" y="25" on="1"/>
        <pt x="193" y="6" on="0"/>
        <pt x="175" y="2" on="1"/>
        <pt x="170" y="0" on="0"/>
        <pt x="125" y="0" on="1"/>
        <pt x="81" y="1" on="1"/>
        <pt x="62" y="7" on="0"/>
        <pt x="54" y="28" on="1"/>
      </contour>
    </TTGlyph>
    <TTGlyph name="s" xMin="30" yMin="-10" xMax="396" yMax="474">
      <contour>
        <pt x="218" y="82" on="1"/>
        <pt x="283" y="82" on="0"/>
        <pt x="283" y="126" on="1"/>
        <pt x="283" y="154" on="0"/>
        <pt x="245" y="166" on="1"/>
        <pt x="242" y="167" on="0"/>
        <pt x="158" y="184" on="0"/>
        <pt x="153" y="186" on="1"/>
        <pt x="104" y="201" on="0"/>
        <pt x="37" y="276" on="0"/>
        <pt x="37" y="328" on="1"/>
        <pt x="37" y="395" on="0"/>
        <pt x="75" y="433" on="1"/>
        <pt x="116" y="474" on="0"/>
        <pt x="203" y="474" on="1"/>
        <pt x="254" y="474" on="0"/>
        <pt x="265" y="473" on="1"/>
        <pt x="319" y="465" on="0"/>
        <pt x="370" y="442" on="1"/>
        <pt x="378" y="439" on="0"/>
        <pt x="380" y="432" on="1"/>
        <pt x="380" y="426" on="0"/>
        <pt x="372" y="384" on="1"/>
        <pt x="365" y="346" on="0"/>
        <pt x="362" y="335" on="0"/>
        <pt x="356" y="332" on="1"/>
        <pt x="351" y="330" on="0"/>
        <pt x="337" y="341" on="1"/>
        <pt x="306" y="367" on="0"/>
        <pt x="251" y="388" on="0"/>
        <pt x="208" y="388" on="1"/>
        <pt x="178" y="388" on="0"/>
        <pt x="151" y="373" on="0"/>
        <pt x="151" y="351" on="1"/>
        <pt x="151" y="324" on="0"/>
        <pt x="184" y="314" on="1"/>
        <pt x="190" y="311" on="0"/>
        <pt x="224" y="306" on="1"/>
        <pt x="229" y="305" on="0"/>
        <pt x="252" y="300" on="0"/>
        <pt x="260" y="299" on="0"/>
        <pt x="277" y="295" on="0"/>
        <pt x="284" y="292" on="0"/>
        <pt x="298" y="287" on="0"/>
        <pt x="307" y="282" on="0"/>
        <pt x="319" y="275" on="0"/>
        <pt x="325" y="271" on="1"/>
        <pt x="396" y="225" on="0"/>
        <pt x="396" y="144" on="1"/>
        <pt x="396" y="17" on="0"/>
        <pt x="282" y="-5" on="1"/>
        <pt x="260" y="-10" on="0"/>
        <pt x="218" y="-10" on="1"/>
        <pt x="126" y="-10" on="0"/>
        <pt x="47" y="31" on="1"/>
        <pt x="31" y="39" on="0"/>
        <pt x="30" y="44" on="1"/>
        <pt x="30" y="48" on="0"/>
        <pt x="48" y="151" on="0"/>
        <pt x="49" y="153" on="1"/>
        <pt x="52" y="159" on="0"/>
        <pt x="60" y="159" on="1"/>
        <pt x="66" y="159" on="0"/>
        <pt x="70" y="153" on="1"/>
        <pt x="103" y="118" on="0"/>
        <pt x="168" y="82" on="0"/>
      </contour>
    </TTGlyph>
    <TTGlyph name="semicolon" xMin="80" yMin="-106" xMax="226" yMax="458">
      <contour>
        <pt x="226" y="319" on="1"/>
        <pt x="223" y="317" on="0"/>
        <pt x="219" y="313" on="1"/>
        <pt x="87" y="313" on="1"/>
        <pt x="81" y="319" on="1"/>
        <pt x="80" y="384" on="1"/>
        <pt x="80" y="437" on="0"/>
        <pt x="81" y="453" on="0"/>
        <pt x="86" y="456" on="1"/>
        <pt x="89" y="458" on="0"/>
        <pt x="154" y="458" on="1"/>
        <pt x="219" y="458" on="1"/>
        <pt x="222" y="454" on="0"/>
        <pt x="226" y="451" on="1"/>
      </contour>
      <contour>
        <pt x="81" y="139" on="1"/>
        <pt x="84" y="145" on="0"/>
        <pt x="88" y="145" on="1"/>
        <pt x="89" y="146" on="0"/>
        <pt x="154" y="146" on="1"/>
        <pt x="219" y="146" on="1"/>
        <pt x="222" y="142" on="0"/>
        <pt x="226" y="139" on="1"/>
        <pt x="226" y="8" on="1"/>
        <pt x="187" y="-47" on="1"/>
        <pt x="149" y="-103" on="0"/>
        <pt x="146" y="-104" on="1"/>
        <pt x="144" y="-106" on="0"/>
        <pt x="116" y="-106" on="1"/>
        <pt x="85" y="-106" on="0"/>
        <pt x="82" y="-100" on="1"/>
        <pt x="80" y="-98" on="0"/>
        <pt x="80" y="-95" on="1"/>
        <pt x="80" y="-93" on="0"/>
        <pt x="98" y="-47" on="1"/>
        <pt x="117" y="-2" on="1"/>
        <pt x="117" y="0" on="0"/>
        <pt x="102" y="0" on="1"/>
        <pt x="87" y="1" on="1"/>
        <pt x="81" y="7" on="1"/>
      </contour>
    </TTGlyph>
    <TTGlyph name="seven" xMin="46" yMin="-11" xMax="503" yMax="695">
      <contour>
        <pt x="214" y="-11" on="1"/>
        <pt x="202" y="-11" on="1"/>
        <pt x="162" y="-11" on="0"/>
        <pt x="135" y="5" on="0"/>
        <pt x="135" y="38" on="1"/>
        <pt x="135" y="55" on="0"/>
        <pt x="136" y="66" on="1"/>
        <pt x="143" y="202" on="0"/>
        <pt x="245" y="451" on="0"/>
        <pt x="334" y="551" on="1"/>
        <pt x="352" y="571" on="0"/>
        <pt x="353" y="572" on="1"/>
        <pt x="215" y="572" on="1"/>
        <pt x="185" y="572" on="0"/>
        <pt x="117" y="571" on="0"/>
        <pt x="110" y="571" on="1"/>
        <pt x="78" y="571" on="0"/>
        <pt x="72" y="573" on="1"/>
        <pt x="53" y="578" on="0"/>
        <pt x="48" y="596" on="1"/>
        <pt x="46" y="602" on="0"/>
        <pt x="46" y="664" on="0"/>
        <pt x="48" y="670" on="1"/>
        <pt x="53" y="688" on="0"/>
        <pt x="72" y="693" on="1"/>
        <pt x="76" y="695" on="0"/>
        <pt x="124" y="695" on="1"/>
        <pt x="134" y="695" on="0"/>
        <pt x="232" y="694" on="0"/>
        <pt x="274" y="694" on="1"/>
        <pt x="472" y="694" on="0"/>
        <pt x="477" y="692" on="1"/>
        <pt x="495" y="688" on="0"/>
        <pt x="501" y="669" on="1"/>
        <pt x="503" y="664" on="0"/>
        <pt x="503" y="637" on="1"/>
        <pt x="503" y="612" on="0"/>
        <pt x="500" y="598" on="0"/>
        <pt x="491" y="588" on="1"/>
        <pt x="300" y="349" on="0"/>
        <pt x="292" y="46" on="1"/>
        <pt x="292" y="7" on="0"/>
        <pt x="271" y="-11" on="0"/>
        <pt x="234" y="-11" on="1"/>
      </contour>
    </TTGlyph>
    <TTGlyph name="six" xMin="46" yMin="-22" xMax="503" yMax="716">
      <contour>
        <pt x="279" y="-22" on="1"/>
        <pt x="211" y="-22" on="0"/>
        <pt x="116" y="33" on="0"/>
        <pt x="66" y="137" on="0"/>
        <pt x="46" y="257" on="0"/>
        <pt x="46" y="336" on="1"/>
        <pt x="46" y="406" on="0"/>
        <pt x="52" y="447" on="1"/>
        <pt x="84" y="698" on="0"/>
        <pt x="312" y="715" on="1"/>
        <pt x="315" y="716" on="1"/>
        <pt x="318" y="716" on="0"/>
        <pt x="321" y="716" on="1"/>
        <pt x="323" y="716" on="0"/>
        <pt x="334" y="715" on="0"/>
        <pt x="337" y="715" on="1"/>
        <pt x="398" y="715" on="0"/>
        <pt x="425" y="688" on="1"/>
        <pt x="425" y="596" on="1"/>
        <pt x="418" y="590" on="0"/>
        <pt x="414" y="589" on="1"/>
        <pt x="409" y="589" on="0"/>
        <pt x="400" y="594" on="1"/>
        <pt x="369" y="612" on="0"/>
        <pt x="334" y="612" on="1"/>
        <pt x="277" y="612" on="0"/>
        <pt x="209" y="538" on="0"/>
        <pt x="202" y="433" on="1"/>
        <pt x="202" y="422" on="1"/>
        <pt x="209" y="431" on="1"/>
        <pt x="243" y="487" on="0"/>
        <pt x="317" y="487" on="1"/>
        <pt x="394" y="487" on="0"/>
        <pt x="440" y="442" on="1"/>
        <pt x="476" y="404" on="0"/>
        <pt x="503" y="315" on="0"/>
        <pt x="503" y="236" on="1"/>
        <pt x="503" y="161" on="0"/>
        <pt x="488" y="117" on="1"/>
        <pt x="478" y="83" on="0"/>
        <pt x="454" y="54" on="1"/>
        <pt x="421" y="13" on="0"/>
        <pt x="342" y="-22" on="0"/>
      </contour>
      <contour>
        <pt x="303" y="398" on="1"/>
        <pt x="298" y="399" on="0"/>
        <pt x="277" y="399" on="1"/>
        <pt x="265" y="399" on="0"/>
        <pt x="254" y="394" on="1"/>
        <pt x="228" y="381" on="0"/>
        <pt x="202" y="302" on="0"/>
        <pt x="202" y="253" on="1"/>
        <pt x="202" y="187" on="0"/>
        <pt x="210" y="151" on="1"/>
        <pt x="224" y="87" on="0"/>
        <pt x="282" y="87" on="1"/>
        <pt x="314" y="88" on="0"/>
        <pt x="328" y="104" on="1"/>
        <pt x="348" y="127" on="0"/>
        <pt x="348" y="231" on="1"/>
        <pt x="348" y="295" on="0"/>
        <pt x="344" y="343" on="1"/>
        <pt x="338" y="388" on="0"/>
      </contour>
    </TTGlyph>
    <TTGlyph name="slash" xMin="61" yMin="-249" xMax="488" yMax="750">
      <contour>
        <pt x="103" y="-249" on="1"/>
        <pt x="84" y="-249" on="0"/>
        <pt x="61" y="-224" on="0"/>
        <pt x="61" y="-207" on="1"/>
        <pt x="61" y="-201" on="0"/>
        <pt x="62" y="-198" on="1"/>
        <pt x="64" y="-192" on="0"/>
        <pt x="407" y="723" on="0"/>
        <pt x="409" y="727" on="1"/>
        <pt x="419" y="750" on="0"/>
        <pt x="445" y="750" on="1"/>
        <pt x="463" y="750" on="0"/>
        <pt x="488" y="724" on="0"/>
        <pt x="488" y="707" on="1"/>
        <pt x="488" y="702" on="0"/>
        <pt x="487" y="699" on="1"/>
        <pt x="482" y="683" on="0"/>
        <pt x="141" y="-228" on="0"/>
        <pt x="137" y="-232" on="1"/>
        <pt x="127" y="-249" on="0"/>
      </contour>
    </TTGlyph>
    <TTGlyph name="t" xMin="20" yMin="-10" xMax="373" yMax="589">
      <contour>
        <pt x="66" y="371" on="1"/>
        <pt x="40" y="371" on="0"/>
        <pt x="20" y="392" on="0"/>
        <pt x="20" y="417" on="1"/>
        <pt x="21" y="432" on="0"/>
        <pt x="23" y="437" on="1"/>
        <pt x="30" y="449" on="0"/>
        <pt x="42" y="455" on="1"/>
        <pt x="49" y="458" on="0"/>
        <pt x="65" y="458" on="1"/>
        <pt x="83" y="458" on="1"/>
        <pt x="83" y="510" on="1"/>
        <pt x="84" y="562" on="1"/>
        <pt x="90" y="580" on="0"/>
        <pt x="110" y="588" on="1"/>
        <pt x="112" y="589" on="0"/>
        <pt x="154" y="589" on="1"/>
        <pt x="194" y="589" on="0"/>
        <pt x="199" y="587" on="1"/>
        <pt x="218" y="582" on="0"/>
        <pt x="223" y="564" on="1"/>
        <pt x="225" y="558" on="0"/>
        <pt x="225" y="508" on="1"/>
        <pt x="225" y="458" on="1"/>
        <pt x="274" y="458" on="1"/>
        <pt x="330" y="458" on="0"/>
        <pt x="338" y="453" on="1"/>
        <pt x="355" y="441" on="0"/>
        <pt x="355" y="415" on="1"/>
        <pt x="355" y="388" on="0"/>
        <pt x="338" y="376" on="1"/>
        <pt x="330" y="371" on="0"/>
        <pt x="274" y="371" on="1"/>
        <pt x="225" y="371" on="1"/>
        <pt x="225" y="267" on="1"/>
        <pt x="225" y="139" on="0"/>
        <pt x="233" y="110" on="1"/>
        <pt x="238" y="94" on="0"/>
        <pt x="250" y="82" on="0"/>
        <pt x="265" y="82" on="1"/>
        <pt x="303" y="85" on="0"/>
        <pt x="333" y="110" on="1"/>
        <pt x="343" y="117" on="0"/>
        <pt x="347" y="116" on="1"/>
        <pt x="355" y="114" on="0"/>
        <pt x="364" y="77" on="1"/>
        <pt x="373" y="46" on="0"/>
        <pt x="373" y="40" on="0"/>
        <pt x="370" y="35" on="0"/>
        <pt x="367" y="33" on="0"/>
        <pt x="358" y="29" on="0"/>
        <pt x="355" y="27" on="1"/>
        <pt x="279" y="-10" on="0"/>
        <pt x="190" y="-10" on="1"/>
        <pt x="139" y="-10" on="0"/>
        <pt x="91" y="46" on="0"/>
        <pt x="84" y="99" on="1"/>
        <pt x="80" y="130" on="0"/>
        <pt x="80" y="258" on="1"/>
        <pt x="80" y="371" on="1"/>
      </contour>
    </TTGlyph>
    <TTGlyph name="three" xMin="46" yMin="-22" xMax="503" yMax="716">
      <contour>
        <pt x="318" y="539" on="1"/>
        <pt x="318" y="579" on="0"/>
        <pt x="293" y="611" on="0"/>
        <pt x="257" y="611" on="1"/>
        <pt x="236" y="611" on="0"/>
        <pt x="230" y="610" on="1"/>
        <pt x="171" y="598" on="0"/>
        <pt x="137" y="556" on="1"/>
        <pt x="126" y="543" on="0"/>
        <pt x="114" y="543" on="0"/>
        <pt x="87" y="581" on="1"/>
        <pt x="61" y="618" on="0"/>
        <pt x="61" y="624" on="1"/>
        <pt x="62" y="629" on="0"/>
        <pt x="73" y="639" on="1"/>
        <pt x="150" y="716" on="0"/>
        <pt x="262" y="716" on="1"/>
        <pt x="364" y="716" on="0"/>
        <pt x="473" y="626" on="0"/>
        <pt x="473" y="536" on="1"/>
        <pt x="473" y="437" on="0"/>
        <pt x="375" y="376" on="1"/>
        <pt x="387" y="371" on="1"/>
        <pt x="503" y="331" on="0"/>
        <pt x="503" y="208" on="1"/>
        <pt x="503" y="95" on="0"/>
        <pt x="377" y="-22" on="0"/>
        <pt x="261" y="-22" on="1"/>
        <pt x="153" y="-22" on="0"/>
        <pt x="69" y="34" on="1"/>
        <pt x="47" y="49" on="0"/>
        <pt x="46" y="53" on="1"/>
        <pt x="46" y="56" on="0"/>
        <pt x="61" y="142" on="0"/>
        <pt x="62" y="145" on="1"/>
        <pt x="66" y="152" on="0"/>
        <pt x="71" y="152" on="1"/>
        <pt x="75" y="152" on="0"/>
        <pt x="90" y="142" on="1"/>
        <pt x="160" y="90" on="0"/>
        <pt x="248" y="87" on="1"/>
        <pt x="302" y="87" on="0"/>
        <pt x="341" y="140" on="0"/>
        <pt x="341" y="202" on="1"/>
        <pt x="341" y="262" on="0"/>
        <pt x="317" y="321" on="0"/>
        <pt x="279" y="329" on="1"/>
        <pt x="232" y="331" on="1"/>
        <pt x="190" y="332" on="1"/>
        <pt x="184" y="338" on="1"/>
        <pt x="184" y="411" on="1"/>
        <pt x="188" y="417" on="0"/>
        <pt x="192" y="417" on="1"/>
        <pt x="193" y="418" on="0"/>
        <pt x="251" y="424" on="0"/>
        <pt x="252" y="424" on="1"/>
        <pt x="281" y="431" on="0"/>
        <pt x="318" y="495" on="0"/>
      </contour>
    </TTGlyph>
    <TTGlyph name="tildecomb" xMin="-458" yMin="548" xMax="-93" yMax="694">
      <contour>
        <pt x="-100" y="694" on="1"/>
        <pt x="-94" y="686" on="0"/>
        <pt x="-93" y="680" on="1"/>
        <pt x="-93" y="626" on="0"/>
        <pt x="-156" y="548" on="0"/>
        <pt x="-206" y="548" on="1"/>
        <pt x="-220" y="548" on="0"/>
        <pt x="-234" y="551" on="1"/>
        <pt x="-265" y="559" on="0"/>
        <pt x="-302" y="587" on="1"/>
        <pt x="-330" y="607" on="0"/>
        <pt x="-344" y="607" on="1"/>
        <pt x="-367" y="607" on="0"/>
        <pt x="-371" y="565" on="1"/>
        <pt x="-372" y="555" on="0"/>
        <pt x="-378" y="549" on="1"/>
        <pt x="-413" y="548" on="1"/>
        <pt x="-442" y="548" on="0"/>
        <pt x="-453" y="550" on="0"/>
        <pt x="-456" y="554" on="1"/>
        <pt x="-458" y="558" on="0"/>
        <pt x="-458" y="565" on="1"/>
        <pt x="-458" y="568" on="0"/>
        <pt x="-456" y="582" on="1"/>
        <pt x="-450" y="628" on="0"/>
        <pt x="-391" y="694" on="0"/>
        <pt x="-346" y="694" on="1"/>
        <pt x="-322" y="694" on="0"/>
        <pt x="-300" y="686" on="1"/>
        <pt x="-277" y="677" on="0"/>
        <pt x="-249" y="655" on="1"/>
        <pt x="-221" y="635" on="0"/>
        <pt x="-207" y="635" on="1"/>
        <pt x="-184" y="635" on="0"/>
        <pt x="-180" y="677" on="1"/>
        <pt x="-179" y="686" on="0"/>
        <pt x="-173" y="694" on="1"/>
      </contour>
    </TTGlyph>
    <TTGlyph name="two" xMin="46" yMin="0" xMax="494" yMax="716">
      <contour>
        <pt x="339" y="477" on="1"/>
        <pt x="339" y="533" on="0"/>
        <pt x="285" y="601" on="0"/>
        <pt x="242" y="601" on="1"/>
        <pt x="232" y="601" on="0"/>
        <pt x="226" y="600" on="1"/>
        <pt x="161" y="589" on="0"/>
        <pt x="136" y="503" on="1"/>
        <pt x="131" y="486" on="0"/>
        <pt x="121" y="486" on="1"/>
        <pt x="116" y="486" on="0"/>
        <pt x="94" y="514" on="1"/>
        <pt x="86" y="523" on="0"/>
        <pt x="82" y="528" on="1"/>
        <pt x="50" y="567" on="0"/>
        <pt x="46" y="575" on="0"/>
        <pt x="46" y="577" on="1"/>
        <pt x="46" y="582" on="0"/>
        <pt x="52" y="592" on="1"/>
        <pt x="87" y="663" on="0"/>
        <pt x="147" y="691" on="1"/>
        <pt x="193" y="716" on="0"/>
        <pt x="257" y="716" on="1"/>
        <pt x="305" y="716" on="0"/>
        <pt x="351" y="700" on="1"/>
        <pt x="415" y="674" on="0"/>
        <pt x="491" y="561" on="0"/>
        <pt x="494" y="487" on="1"/>
        <pt x="495" y="415" on="0"/>
        <pt x="446" y="353" on="1"/>
        <pt x="421" y="322" on="0"/>
        <pt x="356" y="266" on="1"/>
        <pt x="314" y="230" on="0"/>
        <pt x="310" y="226" on="1"/>
        <pt x="199" y="126" on="0"/>
        <pt x="199" y="122" on="1"/>
        <pt x="331" y="122" on="1"/>
        <pt x="359" y="122" on="0"/>
        <pt x="425" y="123" on="0"/>
        <pt x="431" y="123" on="1"/>
        <pt x="462" y="123" on="0"/>
        <pt x="468" y="121" on="1"/>
        <pt x="487" y="116" on="0"/>
        <pt x="492" y="98" on="1"/>
        <pt x="494" y="92" on="0"/>
        <pt x="494" y="62" on="1"/>
        <pt x="494" y="31" on="0"/>
        <pt x="492" y="25" on="1"/>
        <pt x="486" y="6" on="0"/>
        <pt x="468" y="2" on="1"/>
        <pt x="463" y="0" on="0"/>
        <pt x="272" y="0" on="1"/>
        <pt x="83" y="1" on="1"/>
        <pt x="64" y="7" on="0"/>
        <pt x="56" y="28" on="1"/>
        <pt x="55" y="57" on="1"/>
        <pt x="55" y="89" on="1"/>
        <pt x="59" y="97" on="0"/>
        <pt x="215" y="261" on="1"/>
        <pt x="283" y="333" on="0"/>
        <pt x="311" y="380" on="1"/>
        <pt x="339" y="430" on="0"/>
      </contour>
    </TTGlyph>
    <TTGlyph name="u" xMin="52" yMin="-11" xMax="508" yMax="458">
      <contour>
        <pt x="408" y="0" on="1"/>
        <pt x="382" y="0" on="0"/>
        <pt x="361" y="18" on="0"/>
        <pt x="360" y="43" on="1"/>
        <pt x="360" y="58" on="1"/>
        <pt x="352" y="49" on="1"/>
        <pt x="298" y="-11" on="0"/>
        <pt x="199" y="-11" on="1"/>
        <pt x="136" y="-9" on="0"/>
        <pt x="66" y="33" on="0"/>
        <pt x="56" y="80" on="1"/>
        <pt x="52" y="100" on="0"/>
        <pt x="52" y="273" on="1"/>
        <pt x="53" y="431" on="1"/>
        <pt x="59" y="449" on="0"/>
        <pt x="79" y="457" on="1"/>
        <pt x="81" y="458" on="0"/>
        <pt x="127" y="458" on="1"/>
        <pt x="172" y="458" on="0"/>
        <pt x="177" y="456" on="1"/>
        <pt x="195" y="451" on="0"/>
        <pt x="201" y="435" on="1"/>
        <pt x="203" y="427" on="0"/>
        <pt x="203" y="262" on="1"/>
        <pt x="204" y="87" on="0"/>
        <pt x="208" y="78" on="1"/>
        <pt x="216" y="66" on="0"/>
        <pt x="258" y="66" on="1"/>
        <pt x="279" y="66" on="0"/>
        <pt x="286" y="68" on="1"/>
        <pt x="338" y="82" on="0"/>
        <pt x="354" y="140" on="1"/>
        <pt x="356" y="150" on="1"/>
        <pt x="357" y="290" on="1"/>
        <pt x="357" y="427" on="0"/>
        <pt x="359" y="435" on="1"/>
        <pt x="365" y="451" on="0"/>
        <pt x="383" y="456" on="1"/>
        <pt x="387" y="458" on="0"/>
        <pt x="432" y="458" on="1"/>
        <pt x="478" y="458" on="0"/>
        <pt x="482" y="456" on="1"/>
        <pt x="501" y="451" on="0"/>
        <pt x="506" y="433" on="1"/>
        <pt x="508" y="427" on="0"/>
        <pt x="508" y="31" on="0"/>
        <pt x="506" y="25" on="1"/>
        <pt x="501" y="7" on="0"/>
        <pt x="482" y="2" on="1"/>
        <pt x="478" y="0" on="0"/>
        <pt x="434" y="0" on="1"/>
      </contour>
    </TTGlyph>
    <TTGlyph name="underscore" xMin="0" yMin="-110" xMax="549" yMax="-23">
      <contour>
        <pt x="0" y="-66" on="1"/>
        <pt x="0" y="-32" on="0"/>
        <pt x="26" y="-25" on="1"/>
        <pt x="30" y="-23" on="0"/>
        <pt x="274" y="-23" on="1"/>
        <pt x="469" y="-23" on="0"/>
        <pt x="525" y="-24" on="0"/>
        <pt x="532" y="-28" on="1"/>
        <pt x="549" y="-40" on="0"/>
        <pt x="549" y="-67" on="1"/>
        <pt x="549" y="-93" on="0"/>
        <pt x="532" y="-105" on="1"/>
        <pt x="525" y="-109" on="0"/>
        <pt x="470" y="-110" on="0"/>
        <pt x="275" y="-110" on="1"/>
        <pt x="31" y="-110" on="0"/>
        <pt x="26" y="-108" on="1"/>
        <pt x="0" y="-101" on="0"/>
      </contour>
    </TTGlyph>
    <TTGlyph name="uni0237" xMin="-71" yMin="-205" xMax="232" yMax="458">
      <contour>
        <pt x="110" y="456" on="1"/>
        <pt x="114" y="458" on="0"/>
        <pt x="158" y="458" on="1"/>
        <pt x="207" y="458" on="0"/>
        <pt x="215" y="452" on="1"/>
        <pt x="220" y="449" on="0"/>
        <pt x="225" y="443" on="1"/>
        <pt x="230" y="436" on="0"/>
        <pt x="231" y="418" on="1"/>
        <pt x="232" y="397" on="0"/>
        <pt x="232" y="313" on="1"/>
        <pt x="232" y="183" on="1"/>
        <pt x="231" y="-62" on="0"/>
        <pt x="230" y="-71" on="1"/>
        <pt x="211" y="-205" on="0"/>
        <pt x="78" y="-205" on="1"/>
        <pt x="5" y="-205" on="0"/>
        <pt x="-57" y="-173" on="1"/>
        <pt x="-71" y="-166" on="0"/>
        <pt x="-71" y="-159" on="1"/>
        <pt x="-71" y="-156" on="0"/>
        <pt x="-59" y="-123" on="1"/>
        <pt x="-50" y="-96" on="0"/>
        <pt x="-44" y="-85" on="0"/>
        <pt x="-38" y="-84" on="1"/>
        <pt x="-33" y="-84" on="0"/>
        <pt x="-27" y="-88" on="1"/>
        <pt x="2" y="-106" on="0"/>
        <pt x="33" y="-106" on="1"/>
        <pt x="38" y="-106" on="1"/>
        <pt x="70" y="-103" on="0"/>
        <pt x="78" y="-86" on="1"/>
        <pt x="83" y="-78" on="0"/>
        <pt x="84" y="-19" on="0"/>
        <pt x="84" y="180" on="1"/>
        <pt x="84" y="427" on="0"/>
        <pt x="86" y="433" on="1"/>
        <pt x="91" y="451" on="0"/>
      </contour>
    </TTGlyph>
</ttFont>
